<?xml version="1.0" encoding="UTF-8"?>
<svg version="1.1" xmlns="http://www.w3.org/2000/svg" width="802" height="645">
<path d="M0 0 C264.66 0 529.32 0 802 0 C802 212.85 802 425.7 802 645 C537.34 645 272.68 645 0 645 C0 432.15 0 219.3 0 0 Z " fill="#D3D3D3" transform="translate(0,0)"/>
<path d="M0 0 C7.3625718 5.92206863 12.12831918 12.68432638 15.875 21.3125 C16.23851562 20.59964844 16.60203125 19.88679688 16.9765625 19.15234375 C22.80010002 8.05775817 29.07684521 0.36073214 41.01171875 -4.5703125 C50.67266614 -7.35297889 59.87106123 -5.78794239 68.875 -1.6875 C79.4920812 4.5277789 84.89602726 13.72234078 88.1484375 25.33203125 C88.38820313 26.31558594 88.62796875 27.29914063 88.875 28.3125 C89.16310547 29.48619141 89.16310547 29.48619141 89.45703125 30.68359375 C91.73309911 44.99942242 90.3017423 62.9463723 82.33203125 75.39453125 C75.68436846 84.145208 67.77150323 89.13754926 56.875 91.3125 C46.53257672 92.33500862 37.07482933 89.83509151 28.875 83.3125 C28.31296875 82.86648438 27.7509375 82.42046875 27.171875 81.9609375 C21.37578195 76.84525537 18.76782226 70.35911831 15.875 63.3125 C15.45541016 64.47265625 15.45541016 64.47265625 15.02734375 65.65625 C10.63175296 77.07630582 4.9016485 84.04848319 -6.17578125 89.28125 C-15.41819281 92.93090429 -25.46082505 92.42023877 -34.55859375 88.6328125 C-42.39489043 84.60135394 -48.04746816 79.16374758 -52.125 71.3125 C-52.125 70.6525 -52.125 69.9925 -52.125 69.3125 C-52.785 69.3125 -53.445 69.3125 -54.125 69.3125 C-54.351875 70.34375 -54.57875 71.375 -54.8125 72.4375 C-57.00114538 79.8372058 -62.05548037 83.36308814 -68.53515625 86.98828125 C-78.01280442 91.83431855 -87.69080281 92.88945092 -98.21875 90.65625 C-107.41631203 87.65929159 -114.46623024 82.37752965 -119.34765625 74.01171875 C-120.125 72.3125 -120.125 72.3125 -120.125 70.3125 C-117.88192972 69.10999842 -115.6321209 67.9255838 -113.375 66.75 C-112.74078125 66.40775391 -112.1065625 66.06550781 -111.453125 65.71289062 C-106.73004963 63.27755489 -106.73004963 63.27755489 -103.7578125 63.44921875 C-102.125 64.3125 -102.125 64.3125 -100.75 66.6875 C-98.60828161 70.14719894 -96.95326613 70.96551747 -93.125 72.3125 C-87.42462464 73.05824803 -83.01078419 72.56968946 -78.125 69.3125 C-74.55733212 65.41972089 -74.48930077 62.19304896 -74.66015625 57.07421875 C-75.288681 53.34004231 -76.47969131 51.29966642 -79.18359375 48.68359375 C-88.72457292 41.94539719 -102.21927606 43.57654394 -113.125 45.3125 C-112.26350707 28.76589448 -109.00135714 12.6118571 -106.125 -3.6875 C-90.285 -3.6875 -74.445 -3.6875 -58.125 -3.6875 C-58.125 2.5825 -58.125 8.8525 -58.125 15.3125 C-68.025 15.3125 -77.925 15.3125 -88.125 15.3125 C-88.455 19.2725 -88.785 23.2325 -89.125 27.3125 C-88.073125 27.23 -87.02125 27.1475 -85.9375 27.0625 C-76.20197286 27.09702315 -66.50419996 31.04376217 -59.125 37.3125 C-58.795 37.9725 -58.465 38.6325 -58.125 39.3125 C-58.01542969 38.49007812 -57.90585937 37.66765625 -57.79296875 36.8203125 C-55.66422144 21.83254692 -52.12470988 10.63415493 -40.03515625 0.7109375 C-27.17802037 -8.70185318 -13.29490285 -7.17924754 0 0 Z " fill="#030303" transform="translate(358.125,219.6875)"/>
<path d="M0 0 C1.00385742 -0.00626404 2.00771484 -0.01252808 3.04199219 -0.01898193 C17.04335326 -0.07430176 30.51926463 1.03822727 44.3125 3.4375 C45.60326447 3.66175911 45.60326447 3.66175911 46.92010498 3.89054871 C98.34465596 12.94768367 148.50201404 35.84314777 187.05859375 71.3671875 C189.06553483 73.21065157 191.11162242 74.98529093 193.1875 76.75 C196.82041592 79.92786895 200.3011242 83.24994867 203.75 86.625 C204.28286621 87.13651611 204.81573242 87.64803223 205.36474609 88.17504883 C208.10687098 90.89273013 209.51314338 92.70465541 210.3125 96.4375 C212.18339516 98.81652642 212.18339516 98.81652642 214.5 101.1875 C218.42263104 105.41090786 221.97027122 109.74527292 225.3125 114.4375 C224.9825 115.0975 224.6525 115.7575 224.3125 116.4375 C223.62285156 115.61507812 222.93320312 114.79265625 222.22265625 113.9453125 C217.0686239 107.81601839 211.87199966 101.74394751 206.4765625 95.82421875 C205.03799159 94.23763604 203.61586484 92.6359811 202.2109375 91.01953125 C163.33066078 46.55463297 105.63424775 19.47024428 48.5625 8.1875 C47.43183105 7.96066528 47.43183105 7.96066528 46.27832031 7.72924805 C29.96599101 4.69594952 13.55352491 4.03148379 -3 4.0625 C-3.99897308 4.06237915 -4.99794617 4.0622583 -6.02719116 4.06213379 C-23.22392422 4.0915999 -39.76626163 5.2399655 -56.6875 8.4375 C-57.50202637 8.58703125 -58.31655273 8.7365625 -59.15576172 8.890625 C-64.0772971 9.82785369 -68.87386661 11.0550973 -73.6875 12.4375 C-74.64011719 12.70546387 -75.59273437 12.97342773 -76.57421875 13.24951172 C-102.7943945 20.70355615 -127.32288077 31.42427825 -150.6875 45.4375 C-151.66976562 46.01628906 -152.65203125 46.59507813 -153.6640625 47.19140625 C-183.73719255 65.95671516 -205.32579162 99.12380823 -222.359375 129.41015625 C-224.69187369 133.46694833 -227.06867133 136.99822576 -230.25 140.4375 C-241.76484082 152.96318562 -250.53157153 167.59438195 -258.6875 182.4375 C-259.11659668 183.20143066 -259.54569336 183.96536133 -259.98779297 184.75244141 C-269.11337007 201.01676985 -277.8284615 218.86388822 -280.6875 237.4375 C-280.81850098 238.18837891 -280.94950195 238.93925781 -281.08447266 239.71289062 C-286.0980718 269.13050714 -285.66267324 301.05452652 -280.6875 330.4375 C-280.53764648 331.38802246 -280.38779297 332.33854492 -280.23339844 333.31787109 C-278.28223952 345.67313962 -275.59928768 357.56080785 -271.6875 369.4375 C-271.41454102 370.28860352 -271.14158203 371.13970703 -270.86035156 372.01660156 C-253.70648777 425.22201113 -221.22308328 475.20572331 -175.6875 508.4375 C-174.18703125 509.64792969 -174.18703125 509.64792969 -172.65625 510.8828125 C-163.28414022 518.4325676 -153.15359885 524.5242481 -142.6875 530.4375 C-141.79772461 530.94071777 -140.90794922 531.44393555 -139.99121094 531.96240234 C-122.97235353 541.46862363 -105.0307306 549.24727324 -86.4296875 555.12109375 C-82.6875 556.4375 -82.6875 556.4375 -81.6875 558.4375 C-76.85038845 560.56110995 -72.85580188 560.52509834 -67.6875 560.4375 C-67.3575 560.7675 -67.0275 561.0975 -66.6875 561.4375 C-64.6287232 561.71703219 -62.57021568 561.88484351 -60.5 562.05859375 C-59.901875 562.18363281 -59.30375 562.30867187 -58.6875 562.4375 C-58.3575 563.0975 -58.0275 563.7575 -57.6875 564.4375 C-54.0575 564.4375 -50.4275 564.4375 -46.6875 564.4375 C-46.3575 565.0975 -46.0275 565.7575 -45.6875 566.4375 C-43.07338428 567.00565337 -43.07338428 567.00565337 -39.87890625 567.2890625 C-38.66678467 567.41837158 -37.45466309 567.54768066 -36.20581055 567.6809082 C-34.24768433 567.86979614 -34.24768433 567.86979614 -32.25 568.0625 C-31.58424957 568.12786957 -30.91849915 568.19323914 -30.23257446 568.2605896 C-19.6573664 569.28964843 -9.30132311 569.92827951 1.3125 569.4375 C2.46588867 569.38964355 3.61927734 569.34178711 4.80761719 569.29248047 C22.21901146 568.52798217 39.22346156 567.04636526 56.3125 563.4375 C57.40860596 563.21755371 57.40860596 563.21755371 58.52685547 562.99316406 C69.28965367 560.82002738 79.63350413 557.52139772 90.02490234 553.99121094 C91.57105225 553.4754248 91.57105225 553.4754248 93.1484375 552.94921875 C94.07188965 552.63428467 94.9953418 552.31935059 95.94677734 551.99487305 C98.3125 551.4375 98.3125 551.4375 101.3125 552.4375 C80.5716996 560.61765231 59.3613282 566.12872818 37.3125 569.4375 C36.53986816 569.55609375 35.76723633 569.6746875 34.97119141 569.796875 C21.92592603 571.68741163 8.77810387 571.64213076 -4.375 571.6875 C-5.24355621 571.69285767 -6.11211243 571.69821533 -7.00698853 571.70373535 C-19.04444942 571.75998849 -30.75760451 571.0383637 -42.6875 569.4375 C-44.20355835 569.24244873 -44.20355835 569.24244873 -45.75024414 569.04345703 C-77.66053893 564.68788943 -108.36106472 553.55759672 -136.6875 538.4375 C-137.40067383 538.06157715 -138.11384766 537.6856543 -138.84863281 537.29833984 C-158.9514119 526.65441065 -177.27337095 513.6266643 -193.87109375 498.0703125 C-196.547036 495.56880754 -199.26365385 493.12255917 -202 490.6875 C-209.66706799 483.77737185 -216.24603798 476.51259123 -222.6875 468.4375 C-223.52152344 467.42042969 -224.35554688 466.40335937 -225.21484375 465.35546875 C-240.01118866 447.16617363 -251.32405821 427.41927956 -261.6875 406.4375 C-262.07550781 405.66647949 -262.46351563 404.89545898 -262.86328125 404.10107422 C-273.92863885 382.1038696 -280.07412069 358.11050445 -284.5 334 C-284.70705566 332.88818359 -284.91411133 331.77636719 -285.12744141 330.63085938 C-287.69277127 315.96071692 -287.85324331 301.27429767 -287.81787109 286.42749023 C-287.81248519 283.74261894 -287.81786751 281.05791331 -287.82421875 278.37304688 C-287.83493062 253.87979186 -287.83493062 253.87979186 -285.6875 247.4375 C-285.57180328 245.5582343 -285.50906384 243.67551197 -285.4765625 241.79296875 C-285.45037842 240.65214844 -285.42419434 239.51132812 -285.3972168 238.3359375 C-285.36926025 237.11132812 -285.34130371 235.88671875 -285.3125 234.625 C-284.93675387 222.04756214 -283.81455302 209.83404887 -281.6875 197.4375 C-281.53909668 196.55562012 -281.39069336 195.67374023 -281.23779297 194.76513672 C-278.34082625 177.93323786 -272.63382477 163.48381638 -264.6875 148.4375 C-264.13739258 147.39311768 -264.13739258 147.39311768 -263.57617188 146.32763672 C-258.97390915 137.66937985 -254.1012424 129.89940264 -247.6875 122.4375 C-246.3119865 120.70874178 -244.93701327 118.9795536 -243.5625 117.25 C-223.66821303 93.04870244 -199.76226908 73.52089335 -173.63671875 56.39453125 C-170.50808125 54.318442 -167.44341333 52.16396019 -164.375 50 C-144.97818872 36.49099053 -123.89594682 25.50467085 -101.6875 17.4375 C-100.85283203 17.13360352 -100.01816406 16.82970703 -99.15820312 16.51660156 C-66.65694502 4.84852538 -34.40879856 0.10058325 0 0 Z " fill="#050505" transform="translate(390.6875,32.5625)"/>
<path d="M0 0 C1.43250595 0.00506058 1.43250595 0.00506058 2.89395142 0.01022339 C67.70086579 0.34013085 127.16748746 26.88043219 173.3125 72 C178.40659645 77.20597265 183.02823631 82.69269367 187.5 88.4375 C188.20511719 89.32566406 188.91023438 90.21382813 189.63671875 91.12890625 C211.71190431 119.62452279 226.58465068 151.62087355 235.5 186.4375 C235.81710937 187.675 236.13421875 188.9125 236.4609375 190.1875 C240.02078382 205.41377338 240.71201434 220.96497975 241.15869141 236.54199219 C241.20582275 238.12222168 241.20582275 238.12222168 241.25390625 239.734375 C241.27783447 240.66604492 241.3017627 241.59771484 241.32641602 242.55761719 C241.46189307 245.52009148 241.46189307 245.52009148 242.00048828 248.75439453 C242.56103176 252.88751225 242.69724719 256.90543765 242.73828125 261.0703125 C242.74802979 261.89219559 242.75777832 262.71407867 242.76782227 263.56086731 C242.95557263 283.54818452 242.33541345 302.75705502 238.5 322.4375 C238.33935059 323.31857422 238.17870117 324.19964844 238.01318359 325.10742188 C235.52180889 338.19813423 229.42764701 347.87642194 221.5 358.4375 C221.03787109 359.06640137 220.57574219 359.69530273 220.09960938 360.34326172 C212.95417821 370.03353348 204.85648939 378.78771469 196.5 387.4375 C195.99936035 387.96005371 195.4987207 388.48260742 194.98291016 389.02099609 C187.81329597 396.48394601 180.15015708 403.01833326 172.0078125 409.38671875 C167.47123569 412.95945416 163.18700532 416.64532919 159 420.625 C135.26306844 442.77998516 105.4024363 457.61308087 74.80615234 467.67626953 C72.67305557 468.38037664 70.54923006 469.10727744 68.42578125 469.83984375 C10.12191962 489.52847969 -55.17918303 479.93002959 -109.5 453.4375 C-116.00278307 450.0518767 -122.29123286 446.3324788 -128.5 442.4375 C-129.09619141 442.06496094 -129.69238281 441.69242188 -130.30664062 441.30859375 C-137.43203714 436.81270911 -144.00102346 431.78475918 -150.5 426.4375 C-151.3146875 425.8084375 -152.129375 425.179375 -152.96875 424.53125 C-165.85317313 414.44103911 -177.59913225 402.45929345 -187.5 389.4375 C-188.42644299 388.26251566 -189.35357424 387.08807379 -190.28125 385.9140625 C-223.08129174 343.88466438 -239.81698028 292.25392117 -239.5625 239.25 C-239.55747456 237.42122518 -239.5529135 235.59244903 -239.54882812 233.76367188 C-239.53790619 229.32158105 -239.52069923 224.87955559 -239.5 220.4375 C-239.17 220.4375 -238.84 220.4375 -238.5 220.4375 C-238.4906543 221.4169458 -238.48130859 222.3963916 -238.47167969 223.40551758 C-237.80191541 283.49848786 -223.94255484 339.83581297 -185.5 387.4375 C-184.85546875 388.28570312 -184.2109375 389.13390625 -183.546875 390.0078125 C-172.26748077 404.52892239 -158.52990526 417.83948988 -143.5 428.4375 C-142.83742188 428.90671875 -142.17484375 429.3759375 -141.4921875 429.859375 C-136.25323919 433.53243839 -130.91543508 437.03069902 -125.5 440.4375 C-124.70239258 440.93926758 -123.90478516 441.44103516 -123.08300781 441.95800781 C-103.76238105 453.9323301 -82.57108449 462.94301061 -60.5 468.4375 C-59.50105713 468.70119385 -59.50105713 468.70119385 -58.48193359 468.97021484 C-27.03546445 477.22054233 6.54420412 477.75726579 38.5 472.4375 C39.23766602 472.3147168 39.97533203 472.19193359 40.73535156 472.06542969 C45.02467951 471.3250464 49.26197727 470.42750991 53.5 469.4375 C54.60988281 469.18613281 55.71976562 468.93476562 56.86328125 468.67578125 C100.09111822 458.04913835 144.66513887 436.26464157 168.5 397.4375 C173.52031233 389.05476564 178.04942637 380.41259171 182.5625 371.75 C185.89631068 365.35560024 189.40468995 359.15822527 193.24609375 353.05078125 C226.73518237 299.71859629 244.68196069 247.12197219 230.74584961 184.22290039 C221.52879788 145.49415961 202.21639984 109.73629796 175.89453125 80.02001953 C174.62307287 78.57716357 173.37283578 77.11567748 172.125 75.65234375 C167.59427732 70.41774094 162.78845237 65.9867352 157.3515625 61.703125 C155.4781892 60.21469142 153.63760123 58.68384946 151.8359375 57.109375 C126.48740796 34.97403935 94.65298187 19.61578142 62.5 10.4375 C61.61135254 10.1804126 60.72270508 9.9233252 59.80712891 9.65844727 C40.20383047 4.12640968 20.81766833 3.04047843 0.5625 3 C-0.42939331 2.99400787 -1.42128662 2.98801575 -2.4432373 2.98184204 C-19.44844922 2.9135078 -35.90464598 4.52765817 -52.4375 8.625 C-56.8243971 9.6954496 -60.94772532 10.69584827 -65.5 10.4375 C-62.26431959 7.20181959 -58.00442459 6.96754729 -53.625 6 C-52.75230469 5.79568359 -51.87960937 5.59136719 -50.98046875 5.38085938 C-34.00639221 1.55990666 -17.37987557 -0.12009485 0 0 Z " fill="#060606" transform="translate(388.5,79.5625)"/>
<path d="M0 0 C2.86418314 2.67762129 4.87549287 5.19397668 6.734375 8.640625 C7.46563599 9.9862854 7.46563599 9.9862854 8.21166992 11.35913086 C8.71931885 12.31311768 9.22696777 13.26710449 9.75 14.25 C10.28149658 15.2407251 10.81299316 16.2314502 11.3605957 17.25219727 C12.91599976 20.16348588 14.45896026 23.08108943 16 26 C16.39300293 26.73395996 16.78600586 27.46791992 17.19091797 28.22412109 C27.30218205 47.1505733 34.18292486 67.39891729 40 88 C40.32742188 89.14726562 40.65484375 90.29453125 40.9921875 91.4765625 C44.59736646 104.96810852 46.19456848 118.82887345 47.625 132.6875 C47.74810547 133.85458496 47.87121094 135.02166992 47.99804688 136.22412109 C51.6441177 173.35461857 53.4022694 213.29212225 46 250 C45.80212891 251.00820801 45.60425781 252.01641602 45.40039062 253.05517578 C44.28459041 258.62244108 43.03335883 264.13707472 41.61035156 269.63378906 C41.22049868 271.14517072 40.84351255 272.65996882 40.48339844 274.17871094 C35.27486015 296.05871371 19.11080255 314.98403222 5 332 C4.59265625 332.49757813 4.1853125 332.99515625 3.765625 333.5078125 C-7.12110435 346.76400647 -19.00065269 359.41623196 -32.515625 370.0234375 C-36.04216855 372.82914668 -39.34632413 375.86029466 -42.6796875 378.890625 C-46.07640677 381.97855161 -49.52811585 384.99712476 -53 388 C-53.92039062 388.81082031 -54.84078125 389.62164063 -55.7890625 390.45703125 C-82.14923663 413.44940306 -112.63238629 430.16032462 -145 443 C-145.81404297 443.33128906 -146.62808594 443.66257812 -147.46679688 444.00390625 C-175.44577199 455.3666506 -207.02562664 462.0531472 -237.2734375 462.203125 C-238.70355667 462.21371445 -238.70355667 462.21371445 -240.16256714 462.22451782 C-270.69201107 462.39899304 -299.28516339 460.59934595 -329 453 C-329.87495117 452.78005371 -330.74990234 452.56010742 -331.65136719 452.33349609 C-353.17046756 446.79818691 -374.48427153 437.57347086 -394 427 C-394.94576904 426.49702393 -394.94576904 426.49702393 -395.91064453 425.98388672 C-411.89692078 417.45337811 -426.89397869 407.36116407 -441 396 C-441.9384375 395.26652344 -442.876875 394.53304688 -443.84375 393.77734375 C-451.78727149 387.34936254 -459.01264597 380.19947366 -466.25 373 C-466.76374176 372.49152527 -467.27748352 371.98305054 -467.80679321 371.45916748 C-474.67471479 364.64568683 -481.00536339 357.61048765 -487 350 C-487.8692203 348.92792191 -488.73889543 347.85621212 -489.609375 346.78515625 C-511.47957177 318.96850086 -527.97395323 286.97603511 -538.875 253.375 C-539.1858252 252.42584717 -539.49665039 251.47669434 -539.81689453 250.4987793 C-540.10161621 249.5994165 -540.38633789 248.70005371 -540.6796875 247.7734375 C-541.06229736 246.57340088 -541.06229736 246.57340088 -541.45263672 245.34912109 C-542.04042718 242.82649851 -542.0967465 240.58124253 -542 238 C-539.05458767 240.94541233 -538.57735957 244.6421291 -537.5 248.5625 C-527.09355408 284.71312681 -509.26023062 317.59628654 -486 347 C-485.36835938 347.82628906 -484.73671875 348.65257812 -484.0859375 349.50390625 C-477.91513134 357.47343676 -470.97085975 364.73410802 -464 372 C-463.46262207 372.56074219 -462.92524414 373.12148438 -462.37158203 373.69921875 C-455.65477356 380.6669849 -448.64216447 387.04438217 -441 393 C-439.99324219 393.80050781 -438.98648438 394.60101562 -437.94921875 395.42578125 C-413.57035427 414.66355022 -386.11717842 430.24765638 -357 441 C-356.24170898 441.28214355 -355.48341797 441.56428711 -354.70214844 441.85498047 C-291.07994609 465.37717598 -221.19685788 464.92788472 -157 444 C-156.13858398 443.71930664 -155.27716797 443.43861328 -154.38964844 443.14941406 C-123.46934753 432.8594402 -94.60236745 417.078525 -69 397 C-68.44538086 396.56848633 -67.89076172 396.13697266 -67.31933594 395.69238281 C-50.06431144 382.19764089 -33.31968062 366.41804389 -20 349 C-19.2059375 347.9996875 -18.411875 346.999375 -17.59375 345.96875 C30.69331025 284.8857594 53.01378044 205.03972781 44.47827148 127.78417969 C39.24547187 85.35669804 25.44415458 43.41520477 2.94604492 6.94897461 C0 2.17254314 0 2.17254314 0 0 Z " fill="#070707" transform="translate(641,157)"/>
<path d="M0 0 C1.35063034 -0.0049926 1.35063034 -0.0049926 2.72854614 -0.01008606 C4.62957249 -0.01512566 6.5306076 -0.01749531 8.43164062 -0.01733398 C11.27750102 -0.01949869 14.12295911 -0.03762588 16.96875 -0.05664062 C32.08131597 -0.10442278 47.04085755 0.63260878 61.7578125 4.35546875 C62.60883545 4.56324951 63.4598584 4.77103027 64.33666992 4.98510742 C74.21492155 7.48153058 83.84399586 10.77641501 93.4453125 14.16796875 C89.91694096 15.3440926 88.87732161 14.92029075 85.39453125 13.83984375 C84.39349365 13.53594727 83.39245605 13.23205078 82.36108398 12.91894531 C81.29575439 12.58862305 80.2304248 12.25830078 79.1328125 11.91796875 C70.27489395 9.2650929 61.57466375 6.70727612 52.4453125 5.16796875 C51.67590332 5.03406738 50.90649414 4.90016602 50.11376953 4.76220703 C-4.25421683 -4.41787652 -62.96396093 7.85323232 -108.76074219 38.89013672 C-117.42052874 45.05852578 -124.05997174 52.84511077 -130.5546875 61.16796875 C-131.20953125 61.956875 -131.864375 62.74578125 -132.5390625 63.55859375 C-141.26781182 74.10292293 -148.19312207 85.33728698 -154.5546875 97.41796875 C-158.42096997 104.71787828 -162.16691605 110.57101556 -167.99609375 116.4375 C-198.26421749 148.73890228 -210.01342205 189.67303908 -208.8134613 232.82223511 C-206.86796467 289.83012731 -183.39307463 341.00591744 -144.5546875 382.16796875 C-143.75289063 383.02390625 -142.95109375 383.87984375 -142.125 384.76171875 C-111.2957735 416.70281899 -67.81918215 436.73326303 -24.5546875 444.16796875 C-22.78544922 444.48894531 -22.78544922 444.48894531 -20.98046875 444.81640625 C-6.10990103 447.34056166 8.91154699 447.30875423 23.9453125 447.23046875 C25.65494658 447.22543564 27.36458213 447.22087599 29.07421875 447.21679688 C33.19795385 447.20595327 37.32161622 447.18879226 41.4453125 447.16796875 C41.4453125 447.49796875 41.4453125 447.82796875 41.4453125 448.16796875 C36.18574634 449.23843822 31.09655456 449.34550923 25.75390625 449.37109375 C24.81337906 449.37679382 23.87285187 449.3824939 22.90382385 449.3883667 C20.90928257 449.39779584 18.91472585 449.40434238 16.92016602 449.40820312 C13.94452435 449.41777034 10.96961631 449.44875413 7.99414062 449.48046875 C-12.09969334 449.59207968 -31.26740027 446.78925362 -50.5546875 441.16796875 C-51.33038086 440.94189941 -52.10607422 440.71583008 -52.90527344 440.48291016 C-83.54510606 431.2524197 -112.98543434 414.76764643 -136.5546875 393.16796875 C-137.57161112 392.26805379 -138.5898672 391.36964255 -139.609375 390.47265625 C-161.29826631 371.22075764 -179.12895531 346.96974319 -191.0546875 320.54296875 C-191.53244629 319.48754883 -192.01020508 318.43212891 -192.50244141 317.34472656 C-199.13368855 302.55697773 -204.00218477 287.98296715 -207.5546875 272.16796875 C-207.71598145 271.45125 -207.87727539 270.73453125 -208.04345703 269.99609375 C-219.54492619 217.98513503 -209.47770817 162.67457087 -184.5546875 116.16796875 C-184.23532227 115.56791016 -183.91595703 114.96785156 -183.58691406 114.34960938 C-175.88069457 100.00117633 -166.28644561 87.36824111 -155.5546875 75.16796875 C-154.75804687 74.25917969 -153.96140625 73.35039062 -153.140625 72.4140625 C-150.97155868 69.97293116 -148.77512373 67.56239439 -146.5546875 65.16796875 C-145.94625 64.50539063 -145.3378125 63.8428125 -144.7109375 63.16015625 C-139.10096842 57.28870556 -132.74358453 52.41773104 -126.30224609 47.50537109 C-124.69603591 46.27614235 -123.10318974 45.0295026 -121.51171875 43.78125 C-113.89010457 37.88761313 -105.9189646 32.91342417 -97.5546875 28.16796875 C-96.90935059 27.79671875 -96.26401367 27.42546875 -95.59912109 27.04296875 C-71.48999964 13.27657078 -44.99454196 4.94434476 -17.5546875 1.16796875 C-16.35038086 0.99523437 -15.14607422 0.8225 -13.90527344 0.64453125 C-9.26581685 0.07074155 -4.67026188 0.00616645 0 0 Z " fill="#070707" transform="translate(375.5546875,93.83203125)"/>
<path d="M0 0 C5.61 0 11.22 0 17 0 C17 6.93 17 13.86 17 21 C23.6 21 30.2 21 37 21 C37 26.61 37 32.22 37 38 C30.4 38 23.8 38 17 38 C17 44.6 17 51.2 17 58 C11.39 58 5.78 58 0 58 C0 51.4 0 44.8 0 38 C-6.93 38 -13.86 38 -21 38 C-21 32.39 -21 26.78 -21 21 C-14.07 21 -7.14 21 0 21 C0 14.07 0 7.14 0 0 Z " fill="#020202" transform="translate(488,233)"/>
<path d="M0 0 C5.13354468 2.14892568 8.48095807 6.04059162 10.98046875 10.91015625 C15.41644419 22.71859791 14.20908655 37.61895239 10.265625 49.37109375 C8.44853784 53.14547541 6.40178025 56.18229485 2.75 58.3125 C-2.53074082 59.63268521 -6.3541575 59.75961962 -11.25 57.5 C-17.15096056 52.1354904 -19.4784839 44.48392477 -20.22265625 36.65869141 C-20.78189551 24.67120498 -20.80892797 13.57850505 -12.875 3.875 C-9.05895765 -0.2573982 -5.52265566 -0.57572086 0 0 Z " fill="#CBCBCB" transform="translate(342,233)"/>
<path d="M0 0 C6.02742109 5.20550003 8.34717984 11.22118752 8.95654297 19.01757812 C9.0539635 21.93110809 9.07203886 24.8349248 9.0625 27.75 C9.07861328 28.72710937 9.09472656 29.70421875 9.11132812 30.7109375 C9.11654936 38.563679 8.32071987 46.55392662 3.25 52.875 C0.01267896 56.11232104 -1.43559952 57.30824586 -6.0625 57.6875 C-11.2289436 57.53582459 -14.6689091 55.86574285 -18.4375 52.3125 C-23.20561147 44.58487107 -23.74950967 36.25929518 -23.6875 27.375 C-23.70748047 26.35921875 -23.72746094 25.3434375 -23.74804688 24.296875 C-23.74232776 15.37505725 -21.75262023 6.87762023 -15.25 0.375 C-10.58980391 -3.12014706 -4.89893112 -2.44946556 0 0 Z " fill="#D2D2D2" transform="translate(417.25,234.625)"/>
<path d="M0 0 C2.94541233 2.94541233 3.42264043 6.6421291 4.5 10.5625 C14.90644592 46.71312681 32.73976938 79.59628654 56 109 C56.63164062 109.82628906 57.26328125 110.65257812 57.9140625 111.50390625 C64.08486866 119.47343676 71.02914025 126.73410802 78 134 C78.53737793 134.56074219 79.07475586 135.12148438 79.62841797 135.69921875 C86.34522644 142.6669849 93.35783553 149.04438217 101 155 C102.51013672 156.20076172 102.51013672 156.20076172 104.05078125 157.42578125 C128.42964573 176.66355022 155.88282158 192.24765638 185 203 C185.75829102 203.28214355 186.51658203 203.56428711 187.29785156 203.85498047 C250.92005391 227.37717598 320.80314212 226.92788472 385 206 C385.86141602 205.71930664 386.72283203 205.43861328 387.61035156 205.14941406 C424.58154128 192.84576356 457.01897821 172.70836732 486.6640625 147.7578125 C489 146 489 146 491 146 C489.45114511 150.00661863 486.66431205 152.33225078 483.4375 155 C482.86596191 155.47638916 482.29442383 155.95277832 481.70556641 156.44360352 C456.19834089 177.35871024 427.54621297 192.88284295 397 205 C396.18595703 205.33128906 395.37191406 205.66257812 394.53320312 206.00390625 C366.55422801 217.3666506 334.97437336 224.0531472 304.7265625 224.203125 C303.29644333 224.21371445 303.29644333 224.21371445 301.83743286 224.22451782 C271.30798893 224.39899304 242.71483661 222.59934595 213 215 C211.68757324 214.67008057 211.68757324 214.67008057 210.34863281 214.33349609 C188.82953244 208.79818691 167.51572847 199.57347086 148 189 C147.3694873 188.66468262 146.73897461 188.32936523 146.08935547 187.98388672 C130.10307922 179.45337811 115.10602131 169.36116407 101 158 C100.0615625 157.26652344 99.123125 156.53304687 98.15625 155.77734375 C90.21272851 149.34936254 82.98735403 142.19947366 75.75 135 C74.97938736 134.2372879 74.97938736 134.2372879 74.19320679 133.45916748 C67.32528521 126.64568683 60.99463661 119.61048765 55 112 C54.1307797 110.92792191 53.26110457 109.85621212 52.390625 108.78515625 C30.52042823 80.96850086 14.02604677 48.97603511 3.125 15.375 C2.65876221 13.95127075 2.65876221 13.95127075 2.18310547 12.4987793 C1.89838379 11.5994165 1.61366211 10.70005371 1.3203125 9.7734375 C1.06523926 8.97341309 0.81016602 8.17338867 0.54736328 7.34912109 C-0.04042718 4.82649851 -0.0967465 2.58124253 0 0 Z " fill="#292929" transform="translate(99,395)"/>
<path d="M0 0 C0.33 0 0.66 0 1 0 C1.0093457 0.9794458 1.01869141 1.9588916 1.02832031 2.96801758 C1.69808459 63.06098786 15.55744516 119.39831297 54 167 C54.64453125 167.84820312 55.2890625 168.69640625 55.953125 169.5703125 C67.23251923 184.09142239 80.97009474 197.40198988 96 208 C96.66257812 208.46921875 97.32515625 208.9384375 98.0078125 209.421875 C103.24676081 213.09493839 108.58456492 216.59319902 114 220 C114.79760742 220.50176758 115.59521484 221.00353516 116.41699219 221.52050781 C135.73761895 233.4948301 156.92891551 242.50551061 179 248 C179.66596191 248.1757959 180.33192383 248.3515918 181.01806641 248.53271484 C210.24509457 256.20074755 241.04439442 256.45969782 271 254 C270.67 254.99 270.34 255.98 270 257 C231.74391959 271.58622244 174.55818968 252.93522946 139.23608398 237.33618164 C129.41972129 232.87916594 120.12737669 227.72592559 111 222 C110.40380859 221.62746094 109.80761719 221.25492188 109.19335938 220.87109375 C102.06796286 216.37520911 95.49897654 211.34725918 89 206 C88.1853125 205.3709375 87.370625 204.741875 86.53125 204.09375 C73.64682687 194.00353911 61.90086775 182.02179345 52 169 C51.07355701 167.82501566 50.14642576 166.65057379 49.21875 165.4765625 C16.41870826 123.44716438 -0.31698028 71.81642117 -0.0625 18.8125 C-0.05747456 16.98372518 -0.0529135 15.15494903 -0.04882812 13.32617188 C-0.03790619 8.88408105 -0.02069923 4.44205559 0 0 Z " fill="#191919" transform="translate(149,300)"/>
<path d="M0 0 C3.16967111 1.372165 4.97126755 2.85071741 7.15234375 5.51171875 C18.38227823 18.7611892 31.04502517 30.69138001 45 41 C46.00417969 41.81082031 47.00835937 42.62164063 48.04296875 43.45703125 C57.41408469 50.99905738 67.53859647 57.08940091 78 63 C78.88977539 63.50321777 79.77955078 64.00643555 80.69628906 64.52490234 C97.71514647 74.03112363 115.6567694 81.80977324 134.2578125 87.68359375 C138 89 138 89 139 91 C143.83711155 93.12360995 147.83169812 93.08759834 153 93 C153.33 93.33 153.66 93.66 154 94 C156.0587768 94.27953219 158.11728432 94.44734351 160.1875 94.62109375 C160.785625 94.74613281 161.38375 94.87117187 162 95 C162.33 95.66 162.66 96.32 163 97 C166.63 97 170.26 97 174 97 C174.33 97.66 174.66 98.32 175 99 C177.61411572 99.56815337 177.61411572 99.56815337 180.80859375 99.8515625 C182.02071533 99.98087158 183.23283691 100.11018066 184.48168945 100.2434082 C185.78710693 100.3693335 187.09252441 100.49525879 188.4375 100.625 C189.10325043 100.69036957 189.76900085 100.75573914 190.45492554 100.8230896 C201.0301336 101.85214843 211.38617689 102.49077951 222 102 C223.15338867 101.95214355 224.30677734 101.90428711 225.49511719 101.85498047 C242.90651146 101.09048217 259.91096156 99.60886526 277 96 C277.7307373 95.85336914 278.46147461 95.70673828 279.21435547 95.55566406 C289.97715367 93.38252738 300.32100413 90.08389772 310.71240234 86.55371094 C312.25855225 86.0379248 312.25855225 86.0379248 313.8359375 85.51171875 C314.75938965 85.19678467 315.6828418 84.88185059 316.63427734 84.55737305 C319 84 319 84 322 85 C301.2591996 93.18015231 280.0488282 98.69122818 258 102 C257.22736816 102.11859375 256.45473633 102.2371875 255.65869141 102.359375 C242.61342603 104.24991163 229.46560387 104.20463076 216.3125 104.25 C215.44394379 104.25535767 214.57538757 104.26071533 213.68051147 104.26623535 C201.64305058 104.32248849 189.92989549 103.6008637 178 102 C176.98929443 101.86996582 175.97858887 101.73993164 174.93725586 101.60595703 C143.02696107 97.25038943 112.32643528 86.12009672 84 71 C83.28682617 70.62407715 82.57365234 70.2481543 81.83886719 69.86083984 C61.73926402 59.21859222 43.42050797 46.19317524 26.82421875 30.640625 C24.10307496 28.09637437 21.34219695 25.60496597 18.5625 23.125 C17.0400164 21.7518275 15.51895506 20.37707464 14 19 C13.44054687 18.49597656 12.88109375 17.99195313 12.3046875 17.47265625 C9.08973908 14.45060473 9.08973908 14.45060473 8.6328125 12.15625 C7.75668113 9.17091347 6.05222461 7.56895219 3.9375 5.3125 C0 1.08435852 0 1.08435852 0 0 Z " fill="#333333" transform="translate(170,500)"/>
<path d="M0 0 C0.66 0.33 1.32 0.66 2 1 C1.85925049 2.12647949 1.71850098 3.25295898 1.57348633 4.41357422 C0.11734358 16.67912269 -0.36140392 28.77991872 -0.3125 41.125 C-0.31100952 42.06266205 -0.30951904 43.0003241 -0.3079834 43.96640015 C-0.26558696 58.85530126 0.51036728 73.29642919 3 88 C3.14985352 88.95052246 3.29970703 89.90104492 3.45410156 90.88037109 C5.40526048 103.23563962 8.08821232 115.12330785 12 127 C12.27295898 127.85110352 12.54591797 128.70220703 12.82714844 129.57910156 C23.73381189 163.4078356 40.25780012 194.24025869 62.50854492 221.96582031 C63.93724797 223.91441318 64.94966256 225.83207188 66 228 C67.16897337 229.4493154 68.37939308 230.86599231 69.625 232.25 C70.25664062 232.95640625 70.88828125 233.6628125 71.5390625 234.390625 C72.02117187 234.92171875 72.50328125 235.4528125 73 236 C72.34 236.66 71.68 237.32 71 238 C47.57353362 211.69885734 29.53884464 182.50790339 16 150 C15.57589844 149.06414062 15.15179688 148.12828125 14.71484375 147.1640625 C5.76960694 127.08761461 1.76379068 105.51140912 -2 84 C-2.17756836 83.0207959 -2.35513672 82.0415918 -2.53808594 81.03271484 C-4.39608249 68.83396584 -4.15969513 56.29818861 -4.13037109 43.98999023 C-4.12498519 41.30511894 -4.13036751 38.62041331 -4.13671875 35.93554688 C-4.14979724 9.20172432 -4.14979724 9.20172432 0 0 Z " fill="#161616" transform="translate(107,275)"/>
<path d="M0 0 C0.33 0 0.66 0 1 0 C1.03963867 0.81339844 1.07927734 1.62679688 1.12011719 2.46484375 C2.45128129 28.61743791 5.51712104 53.06504056 14 78 C14.24476074 78.7312207 14.48952148 79.46244141 14.74169922 80.21582031 C21.00573722 98.70291059 29.76137128 116.05647087 41 132 C41.47163574 132.67369629 41.94327148 133.34739258 42.42919922 134.04150391 C49.37686898 143.87364476 57.06298486 152.7837493 65.45458984 161.40771484 C66.7819029 162.77528763 68.09016686 164.16130336 69.39453125 165.55078125 C99.63204874 197.13468171 143.51279539 216.69886622 186 224 C187.76923828 224.32097656 187.76923828 224.32097656 189.57421875 224.6484375 C204.44478647 227.17259291 219.46623449 227.14078548 234.5 227.0625 C236.20963408 227.05746689 237.91926963 227.05290724 239.62890625 227.04882812 C243.75264135 227.03798452 247.87630372 227.02082351 252 227 C252 227.33 252 227.66 252 228 C246.74043384 229.07046947 241.65124206 229.17754048 236.30859375 229.203125 C235.36806656 229.20882507 234.42753937 229.21452515 233.45851135 229.22039795 C231.46397007 229.22982709 229.46941335 229.23637363 227.47485352 229.24023438 C224.49921185 229.24980159 221.52430381 229.28078538 218.54882812 229.3125 C198.45499416 229.42411093 179.28728723 226.62128487 160 221 C159.22430664 220.77393066 158.44861328 220.54786133 157.64941406 220.31494141 C127.00958144 211.08445095 97.56925316 194.59967768 74 173 C72.98307638 172.10008504 71.9648203 171.2016738 70.9453125 170.3046875 C49.25642119 151.05278889 31.42573219 126.80177444 19.5 100.375 C19.02224121 99.31958008 18.54448242 98.26416016 18.05224609 97.17675781 C11.42099895 82.38900898 6.55250273 67.8149984 3 52 C2.83870605 51.28328125 2.67741211 50.5665625 2.51123047 49.828125 C-1.21154231 32.99332081 -1.41964932 17.13719537 0 0 Z " fill="#1E1E1E" transform="translate(165,314)"/>
<path d="M0 0 C2.62129003 2.27079036 5.19561011 4.5798037 7.74609375 6.9296875 C9.75303483 8.77315157 11.79912242 10.54779093 13.875 12.3125 C17.50791592 15.49036895 20.9886242 18.81244867 24.4375 22.1875 C24.97036621 22.69901611 25.50323242 23.21053223 26.05224609 23.73754883 C28.79437098 26.45523013 30.20064338 28.26715541 31 32 C32.87089516 34.37902642 32.87089516 34.37902642 35.1875 36.75 C39.11013104 40.97340786 42.65777122 45.30777292 46 50 C45.67 50.66 45.34 51.32 45 52 C44.31035156 51.17757812 43.62070312 50.35515625 42.91015625 49.5078125 C37.7561239 43.37851839 32.55949966 37.30644751 27.1640625 31.38671875 C25.72549159 29.80013604 24.30336484 28.1984811 22.8984375 26.58203125 C-21.22388269 -23.87785856 -91.12821403 -54.66548499 -157.2421875 -59.82080078 C-166.81594248 -60.44289145 -176.41104226 -60.72381646 -186 -61 C-186 -61.33 -186 -61.66 -186 -62 C-120.17781865 -70.19120479 -50.50920469 -41.05952476 0 0 Z " fill="#222222" transform="translate(570,97)"/>
<path d="M0 0 C1.43250595 0.00506058 1.43250595 0.00506058 2.89395142 0.01022339 C67.39403211 0.33856888 127.81221215 26.69682338 173.4375 72.1875 C185.5 84.53550296 185.5 84.53550296 185.5 88.4375 C181.40313841 86.85659341 178.90542543 83.8941009 176.0625 80.6875 C175.59779297 80.17445313 175.13308594 79.66140625 174.65429688 79.1328125 C172.35372137 76.57875657 170.12770532 73.98722219 167.96875 71.3125 C165.6144641 68.57079996 163.26650451 66.42339497 160.4375 64.1875 C157.51995351 61.86584497 154.62709761 59.54866409 151.8203125 57.09375 C126.46555562 34.97118592 94.65096472 19.61520561 62.5 10.4375 C61.61135254 10.1804126 60.72270508 9.9233252 59.80712891 9.65844727 C40.20383047 4.12640968 20.81766833 3.04047843 0.5625 3 C-0.42939331 2.99400787 -1.42128662 2.98801575 -2.4432373 2.98184204 C-19.44844922 2.9135078 -35.90464598 4.52765817 -52.4375 8.625 C-56.8243971 9.6954496 -60.94772532 10.69584827 -65.5 10.4375 C-62.26431959 7.20181959 -58.00442459 6.96754729 -53.625 6 C-52.75230469 5.79568359 -51.87960937 5.59136719 -50.98046875 5.38085938 C-34.00639221 1.55990666 -17.37987557 -0.12009485 0 0 Z " fill="#2D2D2D" transform="translate(388.5,79.5625)"/>
<path d="M0 0 C-1.54885489 4.00661863 -4.33568795 6.33225078 -7.5625 9 C-8.41980713 9.71458374 -8.41980713 9.71458374 -9.29443359 10.44360352 C-34.80165911 31.35871024 -63.45378703 46.88284295 -94 59 C-94.81404297 59.33128906 -95.62808594 59.66257812 -96.46679688 60.00390625 C-124.14261666 71.243534 -155.76310454 78.28548907 -185.7265625 78.09765625 C-186.60025482 78.0962413 -187.47394714 78.09482635 -188.37411499 78.09336853 C-191.12444703 78.08783674 -193.87469318 78.07529774 -196.625 78.0625 C-198.50650923 78.05747616 -200.38801975 78.05291481 -202.26953125 78.04882812 C-206.84638652 78.03788979 -211.42317877 78.02067362 -216 78 C-216 77.67 -216 77.34 -216 77 C-215.09048584 76.9498877 -214.18097168 76.89977539 -213.24389648 76.84814453 C-203.52016794 76.30749468 -193.7986168 75.73658492 -184.07879639 75.12957764 C-182.23638039 75.0147343 -180.39383393 74.90198817 -178.55126953 74.78955078 C-153.55284475 73.19907305 -129.78346902 67.75330311 -106 60 C-105.13858398 59.71930664 -104.27716797 59.43861328 -103.38964844 59.14941406 C-66.41845872 46.84576356 -33.98102179 26.70836732 -4.3359375 1.7578125 C-2 0 -2 0 0 0 Z " fill="#181818" transform="translate(590,541)"/>
<path d="M0 0 C0 0.33 0 0.66 0 1 C-9.08513663 2.13015589 -18.09780089 3.06173107 -27.25 3.375 C-46.58500978 4.13916831 -66.37076438 6.64996532 -85 12 C-85.95261719 12.26796387 -86.90523438 12.53592773 -87.88671875 12.81201172 C-114.26054899 20.30973806 -138.35521755 31.25848455 -162 45 C-164.99203676 46.6812397 -167.99314262 48.34543298 -171 50 C-169.87835704 45.84630284 -168.23861295 44.10289239 -164.55981445 41.91967773 C-163.94195068 41.57493408 -163.32408691 41.23019043 -162.6875 40.875 C-162.03160889 40.49738525 -161.37571777 40.11977051 -160.69995117 39.73071289 C-158.47789075 38.46583983 -156.2411849 37.23064647 -154 36 C-153.1946582 35.55285645 -152.38931641 35.10571289 -151.55957031 34.64501953 C-139.06841949 27.75093029 -126.40959823 21.8710079 -113 17 C-111.74799805 16.54415527 -111.74799805 16.54415527 -110.47070312 16.07910156 C-74.02611363 2.9953543 -38.42621779 -0.87210341 0 0 Z " fill="#191919" transform="translate(402,33)"/>
<path d="M0 0 C20.90704389 9.94081515 40.19558878 22.18523504 58 37 C58.50966309 37.41942871 59.01932617 37.83885742 59.54443359 38.27099609 C66.75489141 44.22191097 73.65226578 50.43729892 80.3125 57 C80.96500732 57.63494385 81.61751465 58.2698877 82.28979492 58.92407227 C82.89154541 59.52662842 83.4932959 60.12918457 84.11328125 60.75 C84.64735596 61.28109375 85.18143066 61.8121875 85.73168945 62.359375 C87.1797331 64.23249401 87.48676558 65.7134601 88 68 C89.87089516 70.37902642 89.87089516 70.37902642 92.1875 72.75 C96.11013104 76.97340786 99.65777122 81.30777292 103 86 C102.67 86.66 102.34 87.32 102 88 C100.96552734 86.76636719 100.96552734 86.76636719 99.91015625 85.5078125 C94.7561239 79.37851839 89.55949966 73.30644751 84.1640625 67.38671875 C82.72549159 65.80013604 81.30336484 64.1984811 79.8984375 62.58203125 C61.58578288 41.63901351 38.41882785 25.09281811 14.22973633 11.6015625 C10.18590789 9.33712373 6.53916473 7.0270036 3 4 C1.67098936 2.99426222 0.33926199 1.99204592 -1 1 C-0.67 0.67 -0.34 0.34 0 0 Z " fill="#5B5B5B" transform="translate(513,61)"/>
<path d="M0 0 C3.16967111 1.372165 4.97126755 2.85071741 7.15234375 5.51171875 C18.38227823 18.7611892 31.04502517 30.69138001 45 41 C46.00417969 41.81082031 47.00835937 42.62164063 48.04296875 43.45703125 C57.41408469 50.99905738 67.53859647 57.08940091 78 63 C78.88977539 63.50321777 79.77955078 64.00643555 80.69628906 64.52490234 C98.93572243 74.71290061 118.13462281 82.5680042 138 89 C137.01 89.66 136.02 90.32 135 91 C132.609375 90.51538086 132.609375 90.51538086 129.75 89.46484375 C128.68040039 89.07458008 127.61080078 88.68431641 126.50878906 88.28222656 C124.77193848 87.61658691 124.77193848 87.61658691 123 86.9375 C121.79827148 86.48213867 120.59654297 86.02677734 119.35839844 85.55761719 C85.7993159 72.65421098 50.10168222 54.09130078 25.3671875 27.2265625 C24.06900294 25.85060554 24.06900294 25.85060554 22.16796875 25.64453125 C18.78326689 24.63826853 16.71805886 22.15040993 14.3125 19.6875 C13.81427734 19.20087891 13.31605469 18.71425781 12.80273438 18.21289062 C10.12522788 15.51358625 8.79787618 13.66432023 8 10 C6.15481507 7.61428765 6.15481507 7.61428765 3.9375 5.3125 C0 1.08435852 0 1.08435852 0 0 Z " fill="#6D6D6D" transform="translate(170,500)"/>
<path d="M0 0 C0.33 0 0.66 0 1 0 C1.0093457 0.9794458 1.01869141 1.9588916 1.02832031 2.96801758 C1.67926689 61.37261605 14.36012456 118.3199004 52.234375 164.53125 C54 167 54 167 54 170 C21.49658265 138.8945791 2.18370319 83.12819676 0 39 C-0.14631418 32.27174129 -0.09480817 25.54174362 -0.0625 18.8125 C-0.05747456 16.98372518 -0.0529135 15.15494903 -0.04882812 13.32617188 C-0.03790619 8.88408105 -0.02069923 4.44205559 0 0 Z " fill="#3D3D3D" transform="translate(149,300)"/>
<path d="M0 0 C3.97245401 0.70936679 5.67231707 1.79731707 8.5 4.625 C9.95147903 7.52795805 9.87239025 9.39761779 9.5 12.625 C7.6173901 15.8019042 6.22872909 18.10219886 2.5625 19.2109375 C0.30350479 19.3906303 -1.32876001 19.281625 -3.5 18.625 C-6.75932425 15.77309128 -8.23945496 13.87561619 -9.125 9.625 C-7.98954107 4.17479716 -5.55693876 0.99231049 0 0 Z " fill="#C1C1C1" transform="translate(333.5,385.375)"/>
<path d="M0 0 C0.90042023 -0.0033284 1.80084045 -0.0066568 2.72854614 -0.01008606 C4.62957249 -0.01512566 6.5306076 -0.01749531 8.43164062 -0.01733398 C11.27750102 -0.01949869 14.12295911 -0.03762588 16.96875 -0.05664062 C32.08131597 -0.10442278 47.04085755 0.63260878 61.7578125 4.35546875 C62.60883545 4.56324951 63.4598584 4.77103027 64.33666992 4.98510742 C74.21492155 7.48153058 83.84399586 10.77641501 93.4453125 14.16796875 C89.91694096 15.3440926 88.87732161 14.92029075 85.39453125 13.83984375 C84.39349365 13.53594727 83.39245605 13.23205078 82.36108398 12.91894531 C81.29575439 12.58862305 80.2304248 12.25830078 79.1328125 11.91796875 C70.27489395 9.2650929 61.57466375 6.70727612 52.4453125 5.16796875 C51.67590332 5.03406738 50.90649414 4.90016602 50.11376953 4.76220703 C19.63176204 -0.38470743 -11.05280621 1.30621713 -40.92578125 8.984375 C-41.69003418 9.17918457 -42.45428711 9.37399414 -43.24169922 9.57470703 C-44.84464804 9.9858497 -46.44510695 10.40677656 -48.04345703 10.83544922 C-48.84251465 11.0367041 -49.64157227 11.23795898 -50.46484375 11.4453125 C-51.17906494 11.632146 -51.89328613 11.81897949 -52.62915039 12.01147461 C-54.5546875 12.16796875 -54.5546875 12.16796875 -57.5546875 10.16796875 C-44.30792499 6.32375901 -31.22634788 3.04951409 -17.5546875 1.16796875 C-16.35038086 0.99523437 -15.14607422 0.8225 -13.90527344 0.64453125 C-9.26581685 0.07074155 -4.67026188 0.00616645 0 0 Z " fill="#2A2A2A" transform="translate(375.5546875,93.83203125)"/>
<path d="M0 0 C3.5 0.625 3.5 0.625 6.4375 2.625 C8.73092162 5.96088599 9.25815509 7.72484094 8.98046875 11.6875 C8.11102978 15.1935303 6.41963173 16.63716563 3.5 18.625 C-0.0625 19.1875 -0.0625 19.1875 -3.5 18.625 C-5.86497439 16.75791495 -7.16030715 15.30438569 -8.5 12.625 C-8.99055907 8.29172826 -8.97744439 6.30499656 -6.4375 2.6875 C-3.5 0.625 -3.5 0.625 0 0 Z " fill="#C5C5C5" transform="translate(334.5,350.375)"/>
<path d="M0 0 C8.96103896 -0.47792208 8.96103896 -0.47792208 13.125 1.4375 C15.50735591 4.69338641 15.67331979 6.83852875 15.3984375 10.8046875 C14.74193275 14.42189996 14.01310652 15.82776042 11 18 C7.23154681 18.41208985 3.81277871 18.22695111 0 18 C0 12.06 0 6.12 0 0 Z " fill="#353535" transform="translate(459,386)"/>
<path d="M0 0 C0 0.33 0 0.66 0 1 C-9.08513663 2.13015589 -18.09780089 3.06173107 -27.25 3.375 C-45.59426764 4.10001168 -64.22933169 6.4904808 -81.9453125 11.36328125 C-84.83636434 11.9658918 -86.28636933 12.04630038 -89 11 C-88 9 -88 9 -84.65234375 7.8515625 C-56.74456342 0.27633057 -28.71137447 -0.65161988 0 0 Z " fill="#1B1B1B" transform="translate(402,33)"/>
<path d="M0 0 C9.625 -0.25 9.625 -0.25 13 2 C12.79375 3.11375 12.5875 4.2275 12.375 5.375 C12.25125 6.57125 12.1275 7.7675 12 9 C12.66 9.66 13.32 10.32 14 11 C13.67028521 14.29714793 13.3773161 15.6226839 11 18 C7.31975395 18.27629475 3.69505443 18.0859315 0 18 C0 12.06 0 6.12 0 0 Z " fill="#1C1C1C" transform="translate(363,351)"/>
<path d="M0 0 C2.86418314 2.67762129 4.87549287 5.19397668 6.734375 8.640625 C7.22188232 9.53773193 7.70938965 10.43483887 8.21166992 11.35913086 C8.71931885 12.31311768 9.22696777 13.26710449 9.75 14.25 C10.28149658 15.2407251 10.81299316 16.2314502 11.3605957 17.25219727 C12.91599976 20.16348588 14.45896026 23.08108943 16 26 C16.39300293 26.73395996 16.78600586 27.46791992 17.19091797 28.22412109 C29.14724213 50.60419108 37.49854239 75.26267661 43 100 C43.21527344 100.92167969 43.43054688 101.84335937 43.65234375 102.79296875 C45.25547645 110.05421687 45.25547645 110.05421687 44 114 C44 113.01 44 112.02 44 111 C43.34 111 42.68 111 42 111 C41.89042969 110.43941895 41.78085937 109.87883789 41.66796875 109.30126953 C34.50861594 73.26440524 22.30587865 38.32850663 2.94604492 6.94897461 C0 2.17254314 0 2.17254314 0 0 Z " fill="#272727" transform="translate(641,157)"/>
<path d="M0 0 C1.43737706 -0.02806159 2.87493423 -0.04684998 4.3125 -0.0625 C5.51326172 -0.07990234 5.51326172 -0.07990234 6.73828125 -0.09765625 C9.50970634 -0.01467945 12.18641165 0.21133979 14.94140625 0.49609375 C21.8368629 1.14956766 28.70342046 1.14957885 35.625 1.125 C36.94064941 1.12306641 38.25629883 1.12113281 39.61181641 1.11914062 C49.10707384 1.07705897 58.53586095 0.77711406 68 0 C67.67 0.99 67.34 1.98 67 3 C48.59409859 10.0177752 18.91344692 6.06072071 0 2 C0 1.34 0 0.68 0 0 Z " fill="#111111" transform="translate(352,554)"/>
<path d="M0 0 C1.258125 0.391875 2.51625 0.78375 3.8125 1.1875 C5.87300201 1.79844605 7.93586996 2.40142604 10 3 C10.64404785 3.18755859 11.2880957 3.37511719 11.95166016 3.56835938 C21.60591108 6.34404073 31.28293872 8.56249206 41.1875 10.25 C42.12352051 10.41298584 43.05954102 10.57597168 44.02392578 10.74389648 C58.77682252 13.13656753 73.60032797 13.14008721 88.5 13.0625 C90.20963408 13.05746689 91.91926963 13.05290724 93.62890625 13.04882812 C97.75264135 13.03798452 101.87630372 13.02082351 106 13 C106 13.33 106 13.66 106 14 C100.74043384 15.07046947 95.65124206 15.17754048 90.30859375 15.203125 C89.36806656 15.20882507 88.42753937 15.21452515 87.45851135 15.22039795 C85.46397007 15.22982709 83.46941335 15.23637363 81.47485352 15.24023438 C78.49921185 15.24980159 75.52430381 15.28078538 72.54882812 15.3125 C55.99710015 15.40461091 39.65734944 13.94596632 23.625 9.625 C22.81901367 9.41657471 22.01302734 9.20814941 21.18261719 8.9934082 C13.67178305 7.0073846 6.31748304 4.60546745 -1 2 C-0.67 1.34 -0.34 0.68 0 0 Z " fill="#2D2D2D" transform="translate(311,528)"/>
<path d="M0 0 C1.588125 -0.061875 3.17625 -0.12375 4.8125 -0.1875 C6.15248047 -0.23970703 6.15248047 -0.23970703 7.51953125 -0.29296875 C10 0 10 0 11.8125 1.359375 C13.46860463 3.64741429 13.2029508 5.22633901 13 8 C13 11.50935186 13.37542727 14.56484998 14 18 C13.01 18 12.02 18 11 18 C10.34 16.02 9.68 14.04 9 12 C6.69 11.67 4.38 11.34 2 11 C2 13.31 2 15.62 2 18 C1.34 18 0.68 18 0 18 C0 12.06 0 6.12 0 0 Z " fill="#0B0B0B" transform="translate(293,351)"/>
<path d="M0 0 C45.28891304 10.7226087 45.28891304 10.7226087 55 22 C55.556875 22.556875 56.11375 23.11375 56.6875 23.6875 C57.120625 24.120625 57.55375 24.55375 58 25 C54.56752581 23.95722303 51.32533706 22.73141103 48.09375 21.1875 C36.286789 15.5499303 24.3239592 11.26438786 11.83007812 7.45117188 C10.58419922 7.05865234 9.33832031 6.66613281 8.0546875 6.26171875 C6.93562012 5.92100342 5.81655273 5.58028809 4.66357422 5.22924805 C2 4 2 4 0.62158203 1.85864258 C0.41645996 1.24529053 0.21133789 0.63193848 0 0 Z " fill="#313131" transform="translate(461,42)"/>
<path d="M0 0 C-2.07933841 2.07933841 -3.30567932 2.64453679 -6.0078125 3.6640625 C-6.82145264 3.97714355 -7.63509277 4.29022461 -8.47338867 4.61279297 C-9.78593628 5.11383545 -9.78593628 5.11383545 -11.125 5.625 C-26.61401316 11.69657134 -40.77520491 19.40878712 -55 28 C-55.33 27.01 -55.66 26.02 -56 25 C-42.96100906 16.67772231 -29.65127732 9.29038442 -15.3125 3.4375 C-14.47517334 3.09074219 -13.63784668 2.74398437 -12.77514648 2.38671875 C-8.35503243 0.63997057 -4.83928863 -0.42998526 0 0 Z " fill="#1C1C1C" transform="translate(321,105)"/>
<path d="M0 0 C4.44576248 0.44028083 7.05905564 3.49621691 10.125 6.4375 C10.69250977 6.97375 11.26001953 7.51 11.84472656 8.0625 C13.5708228 9.70050047 15.2855605 11.34981462 17 13 C17.51594727 13.48871582 18.03189453 13.97743164 18.56347656 14.48095703 C26.85126233 22.33268789 26.85126233 22.33268789 28 27 C29.87089516 29.37902642 29.87089516 29.37902642 32.1875 31.75 C36.11013104 35.97340786 39.65777122 40.30777292 43 45 C42.505 45.99 42.505 45.99 42 47 C41.31035156 46.17757812 40.62070312 45.35515625 39.91015625 44.5078125 C34.7561239 38.37851839 29.55949966 32.30644751 24.1640625 26.38671875 C22.72549159 24.80013604 21.30336484 23.1984811 19.8984375 21.58203125 C14.98176101 15.95914122 9.75666962 10.87412589 4.16503906 5.93408203 C2.74182022 4.66065337 1.36614569 3.33447307 0 2 C0 1.34 0 0.68 0 0 Z " fill="#5D5D5D" transform="translate(573,102)"/>
<path d="M0 0 C4.87812706 0.43280979 7.66757003 2.85778782 11.1875 6 C11.75557373 6.4947583 12.32364746 6.9895166 12.90893555 7.49926758 C14.61463285 8.98998717 16.30809233 10.49366618 18 12 C18.92039062 12.80824219 19.84078125 13.61648437 20.7890625 14.44921875 C37.5446632 29.31138469 37.5446632 29.31138469 43 37 C43 37.99 43 38.98 43 40 C38.90313841 38.41909341 36.40542543 35.4566009 33.5625 32.25 C33.09779297 31.73695313 32.63308594 31.22390625 32.15429688 30.6953125 C29.85372137 28.14125657 27.62770532 25.54972219 25.46875 22.875 C23.1144641 20.13329996 20.76650451 17.98589497 17.9375 15.75 C16.99132812 14.99203125 16.04515625 14.2340625 15.0703125 13.453125 C14.05710937 12.64359375 13.04390625 11.8340625 12 11 C9.76172284 9.17757049 7.53543623 7.34109235 5.3125 5.5 C4.29800781 4.6646875 3.28351562 3.829375 2.23828125 2.96875 C1.49964844 2.3190625 0.76101563 1.669375 0 1 C0 0.67 0 0.34 0 0 Z " fill="#181818" transform="translate(531,128)"/>
<path d="M0 0 C4.02550319 1.3418344 4.88285636 3.4227573 7 7 C7 7.66 7 8.32 7 9 C9.41066845 6.65448475 11.70194579 4.40844466 13.6875 1.6875 C14.3371875 0.8521875 14.3371875 0.8521875 15 0 C15.66 0 16.32 0 17 0 C17 5.94 17 11.88 17 18 C16.01 18 15.02 18 14 18 C13.67 14.37 13.34 10.74 13 7 C12.071875 8.485 12.071875 8.485 11.125 10 C10.42375 10.99 9.7225 11.98 9 13 C8.34 13 7.68 13 7 13 C5.02 9.535 5.02 9.535 3 6 C2.67 9.96 2.34 13.92 2 18 C1.34 18 0.68 18 0 18 C0 12.06 0 6.12 0 0 Z " fill="#202020" transform="translate(459,351)"/>
<path d="M0 0 C2.97 0 5.94 0 9 0 C12 3 12 3 12.375 5.5 C12 8 12 8 10.9375 9.8125 C8.00731249 11.60842137 5.3527047 11.18977574 2 11 C2 13.31 2 15.62 2 18 C1.34 18 0.68 18 0 18 C0 12.06 0 6.12 0 0 Z " fill="#040404" transform="translate(261,351)"/>
<path d="M0 0 C3.5 0.625 3.5 0.625 6.4375 2.625 C8.73092162 5.96088599 9.25815509 7.72484094 8.98046875 11.6875 C8.11102978 15.1935303 6.41963173 16.63716563 3.5 18.625 C-0.0625 19.1875 -0.0625 19.1875 -3.5 18.625 C-5.86497439 16.75791495 -7.16030715 15.30438569 -8.5 12.625 C-8.99055907 8.29172826 -8.97744439 6.30499656 -6.4375 2.6875 C-3.5 0.625 -3.5 0.625 0 0 Z M-4.3125 3.625 C-6.21020228 6.82113015 -6.05003751 10.008315 -5.5 13.625 C-4.47578739 15.73438785 -4.47578739 15.73438785 -2.5 16.625 C0.28844081 17.04326612 1.83474158 16.99203913 4.3125 15.625 C6.21020228 12.42886985 6.05003751 9.241685 5.5 5.625 C4.47578739 3.51561215 4.47578739 3.51561215 2.5 2.625 C-0.28844081 2.20673388 -1.83474158 2.25796087 -4.3125 3.625 Z " fill="#0E0E0E" transform="translate(334.5,350.375)"/>
<path d="M0 0 C3.81531852 1.58674462 6.29327431 4.02564144 9.25 6.875 C26.08721328 22.6698971 46.09886432 34.51761759 66 46 C65.01 46.495 65.01 46.495 64 47 C61.80071934 46.06820776 59.77945625 45.07615973 57.6875 43.9375 C56.71018921 43.40926636 56.71018921 43.40926636 55.71313477 42.87036133 C37.25785807 32.63075614 12.0341623 18.05124345 0 0 Z " fill="#151515" transform="translate(192,525)"/>
<path d="M0 0 C3.97245401 0.70936679 5.67231707 1.79731707 8.5 4.625 C9.95147903 7.52795805 9.87239025 9.39761779 9.5 12.625 C7.6173901 15.8019042 6.22872909 18.10219886 2.5625 19.2109375 C0.30350479 19.3906303 -1.32876001 19.281625 -3.5 18.625 C-6.75932425 15.77309128 -8.23945496 13.87561619 -9.125 9.625 C-7.98954107 4.17479716 -5.55693876 0.99231049 0 0 Z M-3.75 4.25 C-5.71985834 6.54808586 -5.71985834 6.54808586 -6 9.625 C-5.70090771 12.68484485 -5.70090771 12.68484485 -3.875 15.0625 C-1.53852041 16.92079025 -1.53852041 16.92079025 1.625 16.5625 C4.79174932 15.85805313 4.79174932 15.85805313 6.5 12.625 C6.97149618 8.93161324 6.98544427 7.28381723 4.75 4.25 C1.52820301 1.92314662 -0.52820301 1.92314662 -3.75 4.25 Z " fill="#101010" transform="translate(333.5,385.375)"/>
<path d="M0 0 C0.66 0.33 1.32 0.66 2 1 C1.86722656 2.01191406 1.73445313 3.02382813 1.59765625 4.06640625 C-0.30491236 19.6663899 -0.62949344 35.30467941 -1 51 C-1.33 51 -1.66 51 -2 51 C-2.33 44.4 -2.66 37.8 -3 31 C-3.33 31 -3.66 31 -4 31 C-4.43022164 9.82353494 -4.43022164 9.82353494 0 0 Z " fill="#222222" transform="translate(107,275)"/>
<path d="M0 0 C0.66 0.33 1.32 0.66 2 1 C-0.46575404 3.88432981 -2.93252454 4.96778733 -6.453125 6.3046875 C-8.08507812 6.92960083 -8.08507812 6.92960083 -9.75 7.56713867 C-10.905 7.99873291 -12.06 8.43032715 -13.25 8.875 C-14.42046875 9.31755127 -15.5909375 9.76010254 -16.796875 10.21606445 C-36.47500827 17.61032982 -36.47500827 17.61032982 -42 19 C-44 18 -44 18 -45 16 C-43.19982422 15.48953125 -43.19982422 15.48953125 -41.36328125 14.96875 C-21.06916055 9.30068431 -21.06916055 9.30068431 -1.85742188 0.82910156 C-1.24447266 0.55549805 -0.63152344 0.28189453 0 0 Z " fill="#191919" transform="translate(512,590)"/>
<path d="M0 0 C1.670625 0.061875 1.670625 0.061875 3.375 0.125 C4.035 1.445 4.695 2.765 5.375 4.125 C2.735 3.795 0.095 3.465 -2.625 3.125 C-2.625 4.115 -2.625 5.105 -2.625 6.125 C-2.05910156 6.35574219 -1.49320312 6.58648437 -0.91015625 6.82421875 C5.07956754 9.48748785 5.07956754 9.48748785 6.5625 12.6875 C6.375 15.125 6.375 15.125 5.4375 16.9375 C2.14281888 18.83443762 -0.86738464 18.30980076 -4.625 18.125 C-5.285 16.805 -5.945 15.485 -6.625 14.125 C-3.325 14.455 -0.025 14.785 3.375 15.125 C3.045 14.135 2.715 13.145 2.375 12.125 C0.06395182 11.07452356 -2.27083651 10.07492562 -4.625 9.125 C-5.285 8.465 -5.945 7.805 -6.625 7.125 C-6.12608303 2.13583028 -5.31787022 0.18337484 0 0 Z " fill="#1B1B1B" transform="translate(300.625,385.875)"/>
<path d="M0 0 C2.64 0 5.28 0 8 0 C9.12256131 2.24512262 9.13413762 3.51456649 9.125 6 C9.12757813 6.70125 9.13015625 7.4025 9.1328125 8.125 C9 10 9 10 8 12 C5.36 12 2.72 12 0 12 C0 8.04 0 4.08 0 0 Z " fill="#D7D7D7" transform="translate(462,389)"/>
<path d="M0 0 C0.13847324 4.92838838 -0.35246829 9.24850171 -1.375 14.0625 C-3.95569316 27.17119599 -4.27123714 40.68732121 -5 54 C-5.33 54 -5.66 54 -6 54 C-6.56982554 24.11776432 -6.56982554 24.11776432 -4.625 10.125 C-4.49891357 9.2057373 -4.37282715 8.28647461 -4.24291992 7.33935547 C-3.912342 5.21153076 -3.46849256 3.10176937 -3 1 C-1 0 -1 0 0 0 Z " fill="#0A0A0A" transform="translate(170,274)"/>
<path d="M0 0 C0.33 0 0.66 0 1 0 C1.28842841 4.53469289 1.57310992 9.06960075 1.85449219 13.60473633 C1.95049623 15.1438616 2.04748038 16.6829261 2.14550781 18.22192383 C2.65000624 26.15233024 3.14473353 34.04870188 3 42 C2.01 41.67 1.02 41.34 0 41 C-1.07191668 33.37748135 -1.15352286 25.81595254 -1.13037109 18.13134766 C-1.12494158 15.97681874 -1.13038048 13.8224919 -1.13671875 11.66796875 C-1.13605913 10.29947871 -1.13478039 8.93098879 -1.1328125 7.5625 C-1.13168457 6.32628906 -1.13055664 5.09007812 -1.12939453 3.81640625 C-1 1 -1 1 0 0 Z " fill="#070707" transform="translate(104,305)"/>
<path d="M0 0 C3.7398383 3.35648358 6.02786817 7.10577091 8.5625 11.375 C13.11155666 18.84515576 18.19438826 25.67151649 23.72460938 32.43652344 C25.63062278 34.7730682 27.49995892 37.13857608 29.375 39.5 C32.2098823 43.03485324 35.08132349 46.53407164 38 50 C37.505 50.99 37.505 50.99 37 52 C26.25280666 40.58968197 17.17702842 28.43853924 8.4375 15.4375 C7.72190918 14.37764893 7.00631836 13.31779785 6.26904297 12.22583008 C5.60146973 11.22189209 4.93389648 10.2179541 4.24609375 9.18359375 C3.64466553 8.28181396 3.0432373 7.38003418 2.42358398 6.45092773 C1.13504757 4.23250601 0.44426914 2.50608679 0 0 Z " fill="#262626" transform="translate(130,470)"/>
<path d="M0 0 C0.66 1.32 1.32 2.64 2 4 C-0.64 3.67 -3.28 3.34 -6 3 C-6.04289755 4.93109581 -6.04289755 4.93109581 -5 7 C-1.51202512 8.79271391 -1.51202512 8.79271391 2 10 C2.125 12.875 2.125 12.875 2 16 C0 18 0 18 -1.9453125 18.1953125 C-3.96354167 18.13020833 -5.98177083 18.06510417 -8 18 C-8.66 16.68 -9.32 15.36 -10 14 C-6.7 14.33 -3.4 14.66 0 15 C-0.64659324 11.92636444 -0.64659324 11.92636444 -2.8125 11.0078125 C-3.534375 10.71648437 -4.25625 10.42515625 -5 10.125 C-8.85161232 8.320205 -8.85161232 8.320205 -10.1875 5.4375 C-10 3 -10 3 -9 1.1875 C-6.02507445 -0.57886204 -3.38199514 -0.19143369 0 0 Z " fill="#101010" transform="translate(506,351)"/>
<path d="M0 0 C11.15653449 5.31122253 21.63591464 11.27437014 32 18 C31.01 18.66 30.02 19.32 29 20 C25.60006631 18.09054048 22.20582679 16.17117251 18.8125 14.25 C17.85279297 13.71117188 16.89308594 13.17234375 15.90429688 12.6171875 C11.31999201 10.01571346 6.98808902 7.48166502 3 4 C1.67098936 2.99426222 0.33926199 1.99204592 -1 1 C-0.67 0.67 -0.34 0.34 0 0 Z " fill="#4E4E4E" transform="translate(513,61)"/>
<path d="M0 0 C1.19009674 0.00212242 1.19009674 0.00212242 2.40423584 0.00428772 C4.93098772 0.0098721 7.45765004 0.02242171 9.984375 0.03515625 C11.70051955 0.04017327 13.41666549 0.04473582 15.1328125 0.04882812 C19.33336769 0.05983641 23.53385617 0.07709029 27.734375 0.09765625 C27.734375 0.42765625 27.734375 0.75765625 27.734375 1.09765625 C14.0238704 3.01473055 0.56735235 3.33813326 -13.265625 3.09765625 C-12.265625 1.09765625 -12.265625 1.09765625 -10.43804932 0.47975159 C-6.97544748 -0.12926572 -3.50377501 -0.02358337 0 0 Z " fill="#0D0D0D" transform="translate(374.265625,32.90234375)"/>
<path d="M0 0 C3.63 0 7.26 0 11 0 C11 0.66 11 1.32 11 2 C8.03 2 5.06 2 2 2 C2 3.98 2 5.96 2 8 C4.64 8 7.28 8 10 8 C10 8.66 10 9.32 10 10 C7.36 10 4.72 10 2 10 C2 11.98 2 13.96 2 16 C4.97 16 7.94 16 11 16 C11 16.66 11 17.32 11 18 C7.37 18 3.74 18 0 18 C0 12.06 0 6.12 0 0 Z " fill="#050505" transform="translate(428,386)"/>
<path d="M0 0 C3.63 0 7.26 0 11 0 C11 0.66 11 1.32 11 2 C8.03 2 5.06 2 2 2 C2 3.98 2 5.96 2 8 C4.64 8 7.28 8 10 8 C10 8.66 10 9.32 10 10 C7.36 10 4.72 10 2 10 C2 11.98 2 13.96 2 16 C4.97 16 7.94 16 11 16 C11 16.66 11 17.32 11 18 C7.37 18 3.74 18 0 18 C0 12.06 0 6.12 0 0 Z " fill="#050505" transform="translate(428,351)"/>
<path d="M0 0 C3.78495275 3.35114728 5.06630313 7.39913504 7 12 C8.98 8.04 10.96 4.08 13 0 C13.66 0 14.32 0 15 0 C14.35534798 4.33304076 12.81074878 7.86672065 10.9375 11.8125 C10.38964844 12.97394531 9.84179688 14.13539063 9.27734375 15.33203125 C8.85582031 16.21246094 8.43429687 17.09289062 8 18 C7.34 18 6.68 18 6 18 C4.99095625 15.7536764 3.9926398 13.50356063 3 11.25 C2.71382813 10.61578125 2.42765625 9.9815625 2.1328125 9.328125 C0.63993298 5.91582896 0 3.79218083 0 0 Z " fill="#181818" transform="translate(393,386)"/>
<path d="M0 0 C1.92016602 0.12426758 1.92016602 0.12426758 4.25390625 0.64453125 C5.5368457 0.91813477 5.5368457 0.91813477 6.84570312 1.19726562 C8.19051758 1.50180664 8.19051758 1.50180664 9.5625 1.8125 C16.04572799 3.23986747 22.38615822 4.3755459 29 5 C28.01 5.33 27.02 5.66 26 6 C26 6.66 26 7.32 26 8 C20.32698111 7.50236676 14.77618818 6.65199891 9.1875 5.5625 C7.92292969 5.31628906 6.65835937 5.07007813 5.35546875 4.81640625 C2.57580181 4.14009613 0.45170658 3.42655975 -2 2 C-1.34 1.34 -0.68 0.68 0 0 Z " fill="#232323" transform="translate(326,548)"/>
<path d="M0 0 C3.19363953 1.37859928 4.99361769 2.88108828 7.1875 5.5625 C9.8887319 8.77714098 12.72248285 11.71562986 15.75 14.625 C19.08782443 17.90596201 21.32280657 20.63929708 23 25 C19.31318144 25 18.40593354 23.79578818 15.875 21.28515625 C15.38 20.77855469 14.885 20.27195312 14.375 19.75 C13.87226563 19.25886719 13.36953125 18.76773438 12.8515625 18.26171875 C10.15927921 15.5477235 8.79722745 13.68810831 8 10 C6.15481507 7.61428765 6.15481507 7.61428765 3.9375 5.3125 C0 1.08435852 0 1.08435852 0 0 Z " fill="#343434" transform="translate(170,500)"/>
<path d="M0 0 C4.14667887 1.6606845 7.06773218 4.65940645 10.25 7.6875 C11.41839101 8.78609272 12.58765784 9.88375476 13.7578125 10.98046875 C14.31887695 11.50688965 14.87994141 12.03331055 15.45800781 12.57568359 C17.29918864 14.27635632 19.20230944 15.89243922 21.125 17.5 C26.56057876 22.17739717 31.23102984 27.66120804 36 33 C35.505 33.99 35.505 33.99 35 35 C33.08014172 33.10730953 31.16408963 31.21100983 29.25 29.3125 C28.71117187 28.78205078 28.17234375 28.25160156 27.6171875 27.70507812 C24.50885806 24.61570191 21.73024622 21.4346381 19 18 C17.84533231 16.90190846 16.65750369 15.8375139 15.4375 14.8125 C11.91546882 11.79646952 8.44064722 8.73341615 5 5.625 C4.05125 4.77164063 3.1025 3.91828125 2.125 3.0390625 C1.42375 2.36617188 0.7225 1.69328125 0 1 C0 0.67 0 0.34 0 0 Z " fill="#303030" transform="translate(579,87)"/>
<path d="M0 0 C0.99 0.33 1.98 0.66 3 1 C4.55994099 7.98187183 5.48462048 14.86606248 6 22 C5.34 22 4.68 22 4 22 C3.67 22.66 3.34 23.32 3 24 C2.49236135 21.31374546 1.99372803 18.62631617 1.5 15.9375 C1.35691406 15.18533203 1.21382813 14.43316406 1.06640625 13.65820312 C0.223569 9.02259825 -0.15015262 4.7110385 0 0 Z " fill="#1B1B1B" transform="translate(104,346)"/>
<path d="M0 0 C5.34210526 3.86842105 5.34210526 3.86842105 7 6 C7.08894531 6.80824219 7.17789063 7.61648437 7.26953125 8.44921875 C8.32000503 13.5555325 10.6710529 17.8615137 13 22.5 C18.56701031 33.58762887 18.56701031 33.58762887 19 39 C16.14215676 35.60310249 14.55002369 31.87343276 12.875 27.8125 C9.90859653 20.79296649 6.51389785 14.08678008 2.84521484 7.40942383 C0 2.19360914 0 2.19360914 0 0 Z " fill="#383838" transform="translate(633,175)"/>
<path d="M0 0 C0.66 0.33 1.32 0.66 2 1 C-1.84836811 5.20705096 -5.88635399 7.97937679 -10.8125 10.8125 C-11.50537109 11.21919922 -12.19824219 11.62589844 -12.91210938 12.04492188 C-14.60409052 13.03677289 -16.30149891 14.01935598 -18 15 C-18 12 -18 12 -16.4453125 10.08203125 C-13.44571149 7.52805787 -10.29791217 5.61774016 -6.875 3.6875 C-5.92560547 3.1296582 -5.92560547 3.1296582 -4.95703125 2.56054688 C-3.34135328 1.63950752 -1.67336865 0.81152089 0 0 Z " fill="#121212" transform="translate(250,68)"/>
<path d="M0 0 C3.3 0 6.6 0 10 0 C9.67 0.66 9.34 1.32 9 2 C6.69 2 4.38 2 2 2 C2 6.62 2 11.24 2 16 C4.31 16 6.62 16 9 16 C9 16.66 9 17.32 9 18 C6.03 18 3.06 18 0 18 C0 12.06 0 6.12 0 0 Z " fill="#0B0B0B" transform="translate(459,386)"/>
<path d="M0 0 C0.99 0.495 0.99 0.495 2 1 C2.76510745 3.48361051 3.41394597 5.91112041 4 8.4375 C4.17297607 9.16163086 4.34595215 9.88576172 4.52416992 10.63183594 C5.02597459 12.75240345 5.51445136 14.87566022 6 17 C6.24363281 18.03769531 6.48726562 19.07539063 6.73828125 20.14453125 C8.25043557 27.00580291 8.25043557 27.00580291 7 31 C7 30.01 7 29.02 7 28 C6.34 28 5.68 28 5 28 C4.15808127 24.27271829 3.3279832 20.54289997 2.5 16.8125 C2.26152344 15.75740234 2.02304687 14.70230469 1.77734375 13.61523438 C1.55175781 12.59365234 1.32617188 11.57207031 1.09375 10.51953125 C0.77954102 9.11344604 0.77954102 9.11344604 0.45898438 7.67895508 C0.01032912 5.06028801 -0.08407959 2.65060917 0 0 Z " fill="#1F1F1F" transform="translate(678,240)"/>
<path d="M0 0 C0.66 0 1.32 0 2 0 C2 5.28 2 10.56 2 16 C4.97 16 7.94 16 11 16 C11 16.66 11 17.32 11 18 C7.37 18 3.74 18 0 18 C0 12.06 0 6.12 0 0 Z " fill="#030303" transform="translate(363,386)"/>
<path d="M0 0 C2.33294775 -0.04241723 4.66702567 -0.04092937 7 0 C8 1 8 1 8.125 3.5 C8 6 8 6 7 7 C4.66702567 7.04092937 2.33294775 7.04241723 0 7 C0 4.69 0 2.38 0 0 Z " fill="#B7B7B7" transform="translate(295,353)"/>
<path d="M0 0 C0.66 0 1.32 0 2 0 C2 5.28 2 10.56 2 16 C4.97 16 7.94 16 11 16 C11 16.66 11 17.32 11 18 C7.37 18 3.74 18 0 18 C0 12.06 0 6.12 0 0 Z " fill="#050505" transform="translate(397,351)"/>
<path d="M0 0 C0.66 0.33 1.32 0.66 2 1 C2 1.66 2 2.32 2 3 C1.505 3.4125 1.01 3.825 0.5 4.25 C-1.28028033 6.0014014 -1.28028033 6.0014014 -1.375 9 C-0.95754174 12.33966608 -0.42587206 12.87736195 2 15 C2 15.99 2 16.98 2 18 C-1.36370321 16.60812281 -3.21906331 15.20568604 -5 12 C-5.53908066 8.90028621 -5.63053923 6.96332382 -3.875 4.28125 C-2.64550464 2.80026695 -1.3274688 1.39384224 0 0 Z " fill="#191919" transform="translate(330,386)"/>
<path d="M0 0 C-1 3 -1 3 -3.1875 4.09765625 C-9.08762576 6.12172717 -14.87744114 7.79556219 -21 9 C-21.33 8.01 -21.66 7.02 -22 6 C-18.7096777 4.99553896 -15.41753178 3.99719244 -12.125 3 C-11.18785156 2.71382812 -10.25070312 2.42765625 -9.28515625 2.1328125 C-8.38925781 1.86210938 -7.49335938 1.59140625 -6.5703125 1.3125 C-5.32918701 0.93544922 -5.32918701 0.93544922 -4.06298828 0.55078125 C-2 0 -2 0 0 0 Z " fill="#202020" transform="translate(489,600)"/>
<path d="M0 0 C1.65 0.99 3.3 1.98 5 3 C4.25 7.75 4.25 7.75 2 10 C-0.3828125 10.1953125 -0.3828125 10.1953125 -3.125 10.125 C-4.49011719 10.09792969 -4.49011719 10.09792969 -5.8828125 10.0703125 C-6.58148438 10.04710937 -7.28015625 10.02390625 -8 10 C-8 7.36 -8 4.72 -8 2 C-7.67 2 -7.34 2 -7 2 C-7 3.98 -7 5.96 -7 8 C-3.535 7.505 -3.535 7.505 0 7 C0.93423645 3.98968256 1.04449911 3.13349732 0 0 Z " fill="#0E0E0E" transform="translate(372,359)"/>
<path d="M0 0 C4.39158329 1.4638611 4.87947433 3.97831338 7 8 C6.01 8 5.02 8 4 8 C3.67 7.34 3.34 6.68 3 6 C2.67 9.96 2.34 13.92 2 18 C1.34 18 0.68 18 0 18 C0 12.06 0 6.12 0 0 Z " fill="#060606" transform="translate(459,351)"/>
<path d="M0 0 C-1.11776237 3.35328711 -1.48392095 3.58311383 -4.37890625 5.26171875 C-5.05244141 5.65810547 -5.72597656 6.05449219 -6.41992188 6.46289062 C-7.12697266 6.86701172 -7.83402344 7.27113281 -8.5625 7.6875 C-9.27341797 8.10322266 -9.98433594 8.51894531 -10.71679688 8.94726562 C-12.47322511 9.97283111 -14.23602691 10.98746671 -16 12 C-16.33 11.01 -16.66 10.02 -17 9 C-14.87562549 7.68647829 -12.75053408 6.37414287 -10.625 5.0625 C-10.02171875 4.68931641 -9.4184375 4.31613281 -8.796875 3.93164062 C-2.42124155 0 -2.42124155 0 0 0 Z " fill="#121212" transform="translate(282,121)"/>
<path d="M0 0 C8.60308032 0.44953032 16.65932321 1.86101998 25 4 C25 4.33 25 4.66 25 5 C16.78323488 5.49300591 6.93966753 4.62644502 0 0 Z " fill="#171717" transform="translate(318,610)"/>
<path d="M0 0 C2.31 0 4.62 0 7 0 C7.625 1.875 7.625 1.875 8 4 C6 6 6 6 2.875 6.125 C1.451875 6.063125 1.451875 6.063125 0 6 C0 4.02 0 2.04 0 0 Z " fill="#C4C4C4" transform="translate(366,361)"/>
<path d="M0 0 C0.66 0.66 1.32 1.32 2 2 C-14.70842825 4.48063781 -14.70842825 4.48063781 -23 3 C-23 2.67 -23 2.34 -23 2 C-20.47980028 1.66114962 -17.95901484 1.32879665 -15.4375 1 C-14.73302734 0.90460938 -14.02855469 0.80921875 -13.30273438 0.7109375 C-8.84719401 0.13602907 -4.50108579 -0.27244908 0 0 Z " fill="#393939" transform="translate(373,94)"/>
<path d="M0 0 C6.15234375 0.5859375 6.15234375 0.5859375 8 1 C8.33 1.66 8.66 2.32 9 3 C12.63 3 16.26 3 20 3 C15.08511482 6.27659012 11.27741192 6.18978441 5.625 5.0625 C4.08100388 4.71863066 2.53844955 4.36789011 1 4 C0.67 2.68 0.34 1.36 0 0 Z " fill="#494949" transform="translate(324,594)"/>
<path d="M0 0 C-0.33 0.99 -0.66 1.98 -1 3 C-4.49029418 4.47666292 -8.27436386 4.07164685 -12 4 C-12 3.34 -12 2.68 -12 2 C-13.65 2 -15.3 2 -17 2 C-17 1.67 -17 1.34 -17 1 C-11.30494264 0.3583034 -5.73266804 -0.12462322 0 0 Z " fill="#1D1D1D" transform="translate(420,554)"/>
<path d="M0 0 C2.31 0 4.62 0 7 0 C7.042721 1.66611905 7.04063832 3.33382885 7 5 C6 6 6 6 2.9375 6.0625 C1.4834375 6.0315625 1.4834375 6.0315625 0 6 C0 4.02 0 2.04 0 0 Z " fill="#BEBEBE" transform="translate(263,354)"/>
<path d="M0 0 C0 0.33 0 0.66 0 1 C-3.3 1 -6.6 1 -10 1 C-10 1.66 -10 2.32 -10 3 C-16.6 3 -23.2 3 -30 3 C-30 2.67 -30 2.34 -30 2 C-19.96788765 0.75155935 -10.13270429 -0.35762486 0 0 Z " fill="#4C4C4C" transform="translate(414,33)"/>
<path d="M0 0 C0.33 0.66 0.66 1.32 1 2 C-3.29 2.99 -7.58 3.98 -12 5 C-12 4.34 -12 3.68 -12 3 C-12.66 2.67 -13.32 2.34 -14 2 C-12.42085985 1.46658816 -10.83645613 0.94874237 -9.25 0.4375 C-8.36828125 0.14746094 -7.4865625 -0.14257812 -6.578125 -0.44140625 C-3.90038614 -1.021583 -2.51600424 -1.03700175 0 0 Z " fill="#282828" transform="translate(314,44)"/>
<path d="M0 0 C-1.52059907 3.88014936 -3.86078531 5.73906562 -7.125 8.25 C-8.03507813 8.95640625 -8.94515625 9.6628125 -9.8828125 10.390625 C-10.58148437 10.92171875 -11.28015625 11.4528125 -12 12 C-12.66 11.34 -13.32 10.68 -14 10 C-12.04653795 8.32731078 -10.08770186 6.66178419 -8.125 5 C-7.56941406 4.52304687 -7.01382813 4.04609375 -6.44140625 3.5546875 C-2.2265625 0 -2.2265625 0 0 0 Z " fill="#151515" transform="translate(590,541)"/>
<path d="M0 0 C5.35152885 0.32433508 8.28280043 3.49704824 12 7 C10.02 7.99 10.02 7.99 8 9 C6.66079162 7.88200014 5.32877444 6.75538103 4 5.625 C2.88625 4.68527344 2.88625 4.68527344 1.75 3.7265625 C1.1725 3.15679687 0.595 2.58703125 0 2 C0 1.34 0 0.68 0 0 Z " fill="#636363" transform="translate(563,94)"/>
<path d="M0 0 C3.65573061 1.37007562 6.95467647 3.01017865 10.3125 5 C11.19550781 5.515625 12.07851563 6.03125 12.98828125 6.5625 C13.65214844 7.036875 14.31601562 7.51125 15 8 C15 8.66 15 9.32 15 10 C9.33822218 8.5482621 4.50540116 5.68441695 0 2 C0 1.34 0 0.68 0 0 Z " fill="#131313" transform="translate(500,107)"/>
<path d="M0 0 C0.268125 0.5775 0.53625 1.155 0.8125 1.75 C2.0597403 4.11319214 3.17503651 6.03985403 5 8 C7.59855733 8.8042208 7.59855733 8.8042208 10 9 C10 9.66 10 10.32 10 11 C6.48612204 11.31944345 4.62449613 11.43883512 1.6875 9.375 C-0.32755294 6.53899956 -0.77015001 4.44774988 -1 1 C-0.67 0.67 -0.34 0.34 0 0 Z " fill="#090909" transform="translate(327,358)"/>
<path d="M0 0 C0.66 0 1.32 0 2 0 C3.20568053 4.67201205 3.09382426 9.21496292 3 14 C2.01 13.67 1.02 13.34 0 13 C0 8.71 0 4.42 0 0 Z " fill="#111111" transform="translate(104,333)"/>
<path d="M0 0 C-2.40768703 2.79163712 -4.76146616 3.89717557 -8.1875 5.1875 C-9.08855469 5.53167969 -9.98960937 5.87585937 -10.91796875 6.23046875 C-11.60503906 6.48441406 -12.29210937 6.73835938 -13 7 C-12.7734375 5.14453125 -12.7734375 5.14453125 -12 3 C-10.0390625 1.69921875 -10.0390625 1.69921875 -7.625 0.6875 C-6.83351563 0.34074219 -6.04203125 -0.00601563 -5.2265625 -0.36328125 C-3 -1 -3 -1 0 0 Z " fill="#111111" transform="translate(284,54)"/>
<path d="M0 0 C0 0.66 0 1.32 0 2 C-1.74635165 2.53293835 -3.49727652 3.05090663 -5.25 3.5625 C-6.22453125 3.85253906 -7.1990625 4.14257812 -8.203125 4.44140625 C-10.96243932 4.99249836 -12.3912824 4.93789609 -15 4 C-14 2 -14 2 -12.109375 1.3671875 C-8.02124399 0.51436547 -4.20385856 -0.27121668 0 0 Z " fill="#0F0F0F" transform="translate(328,40)"/>
<path d="M0 0 C3.12557301 2.73117894 5.07807514 6.16670588 7.1875 9.6875 C7.55552734 10.29400391 7.92355469 10.90050781 8.30273438 11.52539062 C9.20564926 13.01461388 10.10334696 14.50699815 11 16 C10.34 16.66 9.68 17.32 9 18 C7.49185257 15.56721456 5.99335653 13.12933973 4.5 10.6875 C4.07074219 9.99720703 3.64148438 9.30691406 3.19921875 8.59570312 C2.79316406 7.92861328 2.38710937 7.26152344 1.96875 6.57421875 C1.40317383 5.65515747 1.40317383 5.65515747 0.82617188 4.7175293 C0 3 0 3 0 0 Z " fill="#242424" transform="translate(178,432)"/>
<path d="M0 0 C4.1970092 -0.35281338 6.06522073 0.35814568 9.3125 3 C10.00988281 3.556875 10.70726562 4.11375 11.42578125 4.6875 C11.94527344 5.120625 12.46476563 5.55375 13 6 C12.01 6.66 11.02 7.32 10 8 C8.33055479 6.85821872 6.6645052 5.71147095 5 4.5625 C4.071875 3.92441406 3.14375 3.28632812 2.1875 2.62890625 C1.465625 2.09136719 0.74375 1.55382812 0 1 C0 0.67 0 0.34 0 0 Z " fill="#545454" transform="translate(552,87)"/>
<path d="M0 0 C0.33 0.99 0.66 1.98 1 3 C-2.96 3.66 -6.92 4.32 -11 5 C-11.33 4.01 -11.66 3.02 -12 2 C-7.8803623 0.70756464 -4.33168317 -0.26252625 0 0 Z " fill="#1C1C1C" transform="translate(339,37)"/>
<path d="M0 0 C0.33 0 0.66 0 1 0 C1.99 4.95 2.98 9.9 4 15 C3.01 15.33 2.02 15.66 1 16 C-0.79074734 10.10106757 -1.08360869 6.06820868 0 0 Z " fill="#2D2D2D" transform="translate(170,363)"/>
<path d="M0 0 C3 1 3 1 4 3 C4.039992 4.99960012 4.04346799 7.00047242 4 9 C3.34 9 2.68 9 2 9 C1.67 10.32 1.34 11.64 1 13 C0.67 8.71 0.34 4.42 0 0 Z " fill="#2A2A2A" transform="translate(104,346)"/>
<path d="M0 0 C3 1 3 1 3.9609375 2.796875 C4.30382812 3.52390625 4.64671875 4.2509375 5 5 C6.16897337 6.4493154 7.37939308 7.86599231 8.625 9.25 C9.25664062 9.95640625 9.88828125 10.6628125 10.5390625 11.390625 C11.02117187 11.92171875 11.50328125 12.4528125 12 13 C11.34 13.66 10.68 14.32 10 15 C8.32416834 13.06980103 6.65942545 11.13171873 5 9.1875 C4.52304688 8.64029297 4.04609375 8.09308594 3.5546875 7.52929688 C0 3.33984375 0 3.33984375 0 0 Z " fill="#131313" transform="translate(168,498)"/>
<path d="M0 0 C0.90105469 0.02707031 1.80210937 0.05414063 2.73046875 0.08203125 C3.76107422 0.13423828 3.76107422 0.13423828 4.8125 0.1875 C4.8125 0.8475 4.8125 1.5075 4.8125 2.1875 C1.81769083 3.0598412 -0.82325911 3.29579766 -3.9375 3.25 C-4.73671875 3.24097656 -5.5359375 3.23195312 -6.359375 3.22265625 C-6.96265625 3.21105469 -7.5659375 3.19945312 -8.1875 3.1875 C-5.67753317 0.01043235 -3.96125134 -0.15433447 0 0 Z " fill="#0D0D0D" transform="translate(346.1875,35.8125)"/>
<path d="M0 0 C3.31832766 0.98652984 4.76548627 1.68731503 6.875 4.5 C7.24625 5.325 7.6175 6.15 8 7 C7.67 7.66 7.34 8.32 7 9 C6.01 9 5.02 9 4 9 C0 2.25 0 2.25 0 0 Z " fill="#6B6B6B" transform="translate(627,165)"/>
<path d="M0 0 C3.88397689 1.55002747 6.02979619 4.00476621 8.75 7.125 C9.94882812 8.49011719 9.94882812 8.49011719 11.171875 9.8828125 C12.07679688 10.93082031 12.07679688 10.93082031 13 12 C12.34 12.66 11.68 13.32 11 14 C9.53998252 12.23055495 8.08204407 10.45939429 6.625 8.6875 C5.81289063 7.70136719 5.00078125 6.71523437 4.1640625 5.69921875 C2 3 2 3 0 0 Z " fill="#BDBDBD" transform="translate(599,127)"/>
<path d="M0 0 C-2.2037884 2.53435666 -3.66578661 3.53691481 -7 4 C-9.33300933 4.03888349 -11.66709801 4.0448635 -14 4 C-10.28835785 0.28835785 -5.09745779 -0.30893684 0 0 Z " fill="#161616" transform="translate(469,607)"/>
<path d="M0 0 C1.134375 0.020625 2.26875 0.04125 3.4375 0.0625 C4.0975 1.3825 4.7575 2.7025 5.4375 4.0625 C4.179375 3.835625 2.92125 3.60875 1.625 3.375 C-1.70388709 2.86056803 -1.70388709 2.86056803 -4.5625 4.5 C-4.8925 5.015625 -5.2225 5.53125 -5.5625 6.0625 C-4.48849278 0.07874549 -4.48849278 0.07874549 0 0 Z " fill="#0B0B0B" transform="translate(300.5625,385.9375)"/>
<path d="M0 0 C2.31 0 4.62 0 7 0 C7 1.32 7 2.64 7 4 C4.69 4 2.38 4 0 4 C0 2.68 0 1.36 0 0 Z " fill="#CBCBCB" transform="translate(366,354)"/>
<path d="M0 0 C1.134375 0.020625 2.26875 0.04125 3.4375 0.0625 C4.0975 1.3825 4.7575 2.7025 5.4375 4.0625 C4.179375 3.835625 2.92125 3.60875 1.625 3.375 C-1.70388709 2.86056803 -1.70388709 2.86056803 -4.5625 4.5 C-4.8925 5.015625 -5.2225 5.53125 -5.5625 6.0625 C-4.48849278 0.07874549 -4.48849278 0.07874549 0 0 Z " fill="#0C0C0C" transform="translate(502.5625,350.9375)"/>
<path d="M0 0 C2.25245881 2.68841859 3.88213958 4.64641875 5 8 C4.34 8.66 3.68 9.32 3 10 C1.35 7.69 -0.3 5.38 -2 3 C-1 1 -1 1 0 0 Z " fill="#717171" transform="translate(623,155)"/>
<path d="M0 0 C4.79528076 1.8188996 6.15773709 5.13815566 8.1875 9.625 C9 12 9 12 9 15 C6.22834874 11.76640687 4.48839623 8.96905662 3 5 C2.02763513 3.3170608 1.03435556 1.64556566 0 0 Z " fill="#7D7D7D" transform="translate(611,141)"/>
<path d="M0 0 C3.63 0.33 7.26 0.66 11 1 C10.01 1.33 9.02 1.66 8 2 C8 2.66 8 3.32 8 4 C5.03 3.67 2.06 3.34 -1 3 C-0.67 2.01 -0.34 1.02 0 0 Z " fill="#2C2C2C" transform="translate(344,552)"/>
<path d="M0 0 C0.66 0.33 1.32 0.66 2 1 C1.2884375 1.804375 1.2884375 1.804375 0.5625 2.625 C-1.28186076 5.42842836 -1.62456847 7.69620258 -2 11 C-3.5625 9.8125 -3.5625 9.8125 -5 8 C-4.9375 5.5 -4.9375 5.5 -4 3 C-1.9375 1.1875 -1.9375 1.1875 0 0 Z " fill="#212121" transform="translate(331,351)"/>
<path d="M0 0 C0.25 6.625 0.25 6.625 -2 10 C-2.99 10.495 -2.99 10.495 -4 11 C-3.8864371 9.35333797 -3.75882619 7.70763918 -3.625 6.0625 C-3.55539063 5.14597656 -3.48578125 4.22945313 -3.4140625 3.28515625 C-3.27742187 2.53105469 -3.14078125 1.77695312 -3 1 C-1 0 -1 0 0 0 Z " fill="#2E2E2E" transform="translate(170,274)"/>
<path d="M0 0 C2.5654594 2.5654594 2.54046087 4.47686668 3 8 C2.01 8.33 1.02 8.66 0 9 C-2.125 4.375 -2.125 4.375 -1 1 C-0.67 0.67 -0.34 0.34 0 0 Z " fill="#919191" transform="translate(654,213)"/>
<path d="M0 0 C0.66 0.33 1.32 0.66 2 1 C1.67 4.96 1.34 8.92 1 13 C0.67 13 0.34 13 0 13 C-0.144375 12.236875 -0.28875 11.47375 -0.4375 10.6875 C-0.9632594 7.91827092 -0.9632594 7.91827092 -2 5 C-1.0625 2.3125 -1.0625 2.3125 0 0 Z " fill="#272727" transform="translate(107,275)"/>
<path d="M0 0 C4.50802601 1.25805377 7.4912812 2.90407165 11 6 C3.25531915 5.25531915 3.25531915 5.25531915 0 2 C0 1.34 0 0.68 0 0 Z " fill="#141414" transform="translate(273,527)"/>
<path d="M0 0 C0.33 1.32 0.66 2.64 1 4 C1.66 4 2.32 4 3 4 C1.52307692 8.67692308 1.52307692 8.67692308 -1.125 10.3125 C-2.053125 10.6528125 -2.053125 10.6528125 -3 11 C-2.11223998 7.30099992 -1.05418136 3.65449539 0 0 Z " fill="#232323" transform="translate(340,358)"/>
<path d="M0 0 C0.6875 1.75 0.6875 1.75 1 4 C-0.3125 6.25 -0.3125 6.25 -2 8 C-2.66 8 -3.32 8 -4 8 C-4.66 6.35 -5.32 4.7 -6 3 C-4.68 3 -3.36 3 -2 3 C-1.34 2.01 -0.68 1.02 0 0 Z " fill="#171717" transform="translate(470,356)"/>
<path d="M0 0 C4.3177458 0.50797009 8.03302114 1.19682779 12 3 C12 3.66 12 4.32 12 5 C7.43545749 4.45660208 4.0271824 3.20536179 0 1 C0 0.67 0 0.34 0 0 Z " fill="#161616" transform="translate(476,97)"/>
<path d="M0 0 C1.875 0.25 1.875 0.25 4 1 C5.25 3.0625 5.25 3.0625 6 5 C5.34 5 4.68 5 4 5 C4 6.98 4 8.96 4 11 C3.67 11 3.34 11 3 11 C2.67 8.03 2.34 5.06 2 2 C1.34 2 0.68 2 0 2 C0 1.34 0 0.68 0 0 Z " fill="#2F2F2F" transform="translate(468,387)"/>
<path d="M0 0 C2.54379491 1.84205838 4.83312509 3.72478134 7 6 C6.67 6.99 6.34 7.98 6 9 C5.34 9 4.68 9 4 9 C0 2.25 0 2.25 0 0 Z " fill="#6D6D6D" transform="translate(633,175)"/>
<path d="M0 0 C0.66 0.33 1.32 0.66 2 1 C-0.77280706 4.08089673 -3.06326356 5.68775452 -7 7 C-7 6.01 -7 5.02 -7 4 C-1.7265625 0.77734375 -1.7265625 0.77734375 0 0 Z " fill="#1C1C1C" transform="translate(532,580)"/>
<path d="M0 0 C3.31012244 3.31012244 3.50351065 4.53159589 4 9 C3.01 9 2.02 9 1 9 C0.67 6.03 0.34 3.06 0 0 Z " fill="#1E1E1E" transform="translate(172,377)"/>
<path d="M0 0 C0.99 0 1.98 0 3 0 C3.33 2.31 3.66 4.62 4 7 C3.01 7 2.02 7 1 7 C0.67 4.69 0.34 2.38 0 0 Z " fill="#181818" transform="translate(302,352)"/>
<path d="M0 0 C0 1.65 0 3.3 0 5 C-0.99 4.67 -1.98 4.34 -3 4 C-3 2.68 -3 1.36 -3 0 C-5.31 0 -7.62 0 -10 0 C-10 -0.33 -10 -0.66 -10 -1 C-5.92224809 -1.9267618 -3.57818963 -2.33958553 0 0 Z " fill="#393939" transform="translate(273,354)"/>
<path d="M0 0 C2.97 0 5.94 0 9 0 C8.67 0.66 8.34 1.32 8 2 C6.02 2 4.04 2 2 2 C2 3.65 2 5.3 2 7 C1.67 7 1.34 7 1 7 C0.67 4.69 0.34 2.38 0 0 Z " fill="#0F0F0F" transform="translate(364,351)"/>
<path d="M0 0 C0 0.66 0 1.32 0 2 C0.99 2.33 1.98 2.66 3 3 C1.54077307 2.88590407 0.08259402 2.75834456 -1.375 2.625 C-2.59316406 2.52058594 -2.59316406 2.52058594 -3.8359375 2.4140625 C-6 2 -6 2 -8 0 C-5.13822943 -1.43088528 -3.06624227 -0.59991697 0 0 Z " fill="#151515" transform="translate(461,42)"/>
<path d="M0 0 C-0.33 0.66 -0.66 1.32 -1 2 C-3.28515625 2.4140625 -3.28515625 2.4140625 -6.0625 2.625 C-6.98160156 2.69976563 -7.90070313 2.77453125 -8.84765625 2.8515625 C-9.55792969 2.90054688 -10.26820313 2.94953125 -11 3 C-10.01 2.67 -9.02 2.34 -8 2 C-8 1.34 -8 0.68 -8 0 C-4.94736336 -0.98120464 -3.05263664 -0.98120464 0 0 Z " fill="#2B2B2B" transform="translate(439,614)"/>
<path d="M0 0 C-0.33 1.32 -0.66 2.64 -1 4 C-1.66 4 -2.32 4 -3 4 C-3 3.01 -3 2.02 -3 1 C-5.31 1 -7.62 1 -10 1 C-10 0.67 -10 0.34 -10 0 C-6.33694766 -0.74926071 -3.57644848 -1.2380014 0 0 Z " fill="#343434" transform="translate(376,353)"/>
<path d="M0 0 C2.3828125 0.0234375 2.3828125 0.0234375 5.125 0.375 C6.03507812 0.48585938 6.94515625 0.59671875 7.8828125 0.7109375 C8.93082031 0.85402344 8.93082031 0.85402344 10 1 C6.64672361 3.23551759 6.09256343 3.17283528 2.3125 2.625 C1.50425781 2.51414062 0.69601562 2.40328125 -0.13671875 2.2890625 C-0.75160156 2.19367187 -1.36648438 2.09828125 -2 2 C-1.34 1.34 -0.68 0.68 0 0 Z " fill="#484848" transform="translate(347,538)"/>
<path d="M0 0 C1.15518918 0.90484792 2.29885406 1.8244206 3.4375 2.75 C4.07558594 3.26046875 4.71367187 3.7709375 5.37109375 4.296875 C7.18810554 6.19667629 7.60423197 7.43586908 8 10 C4.82537057 7.59757773 2.14248259 5.38286724 0 2 C0 1.34 0 0.68 0 0 Z " fill="#2B2B2B" transform="translate(160,512)"/>
<path d="M0 0 C3.94139078 1.66751148 6.7892812 4.22710649 10 7 C9.01 7.33 8.02 7.66 7 8 C5.83035398 6.8572081 4.66435444 5.71068285 3.5 4.5625 C2.8503125 3.92441406 2.200625 3.28632813 1.53125 2.62890625 C0 1 0 1 0 0 Z " fill="#151515" transform="translate(236,483)"/>
<path d="M0 0 C3 1 3 1 4 3 C4.99 3.66 5.98 4.32 7 5 C6.34 5 5.68 5 5 5 C5 5.66 5 6.32 5 7 C3.0625 6.3125 3.0625 6.3125 1 5 C0.25 2.375 0.25 2.375 0 0 Z " fill="#313131" transform="translate(294,389)"/>
<path d="M0 0 C2.52259061 1.97420135 2.9929808 2.96745642 3.6875 6.1875 C3.790625 7.115625 3.89375 8.04375 4 9 C3.34 9 2.68 9 2 9 C0.50178941 5.62902617 0 3.79557881 0 0 Z " fill="#101010" transform="translate(393,386)"/>
<path d="M0 0 C0 0.33 0 0.66 0 1 C-2.97 1.66 -5.94 2.32 -9 3 C-9.33 2.01 -9.66 1.02 -10 0 C-6.42355152 -1.2380014 -3.66305234 -0.74926071 0 0 Z " fill="#323232" transform="translate(477,606)"/>
<path d="M0 0 C4.95 0.99 4.95 0.99 10 2 C6 4 6 4 2.75 3.125 C1.8425 2.75375 0.935 2.3825 0 2 C0 1.34 0 0.68 0 0 Z " fill="#8C8C8C" transform="translate(309,590)"/>
<path d="M0 0 C2.64 0.66 5.28 1.32 8 2 C8 2.66 8 3.32 8 4 C6.02 4 4.04 4 2 4 C1.34 2.68 0.68 1.36 0 0 Z " fill="#0C0C0C" transform="translate(294,400)"/>
<path d="M0 0 C3 2 3 2 3.51171875 3.9453125 C3.67447917 5.96354167 3.83723958 7.98177083 4 10 C1.16625119 6.79663178 0.4794463 4.21912747 0 0 Z " fill="#151515" transform="translate(178,396)"/>
<path d="M0 0 C2.64 0.33 5.28 0.66 8 1 C6.1875 2.5625 6.1875 2.5625 4 4 C3.01 3.67 2.02 3.34 1 3 C0.67 2.01 0.34 1.02 0 0 Z " fill="#848484" transform="translate(324,594)"/>
<path d="M0 0 C3 1 3 1 4.6875 4.0625 C5.120625 5.031875 5.55375 6.00125 6 7 C3.5625 6.3125 3.5625 6.3125 1 5 C0.1875 2.375 0.1875 2.375 0 0 Z " fill="#262626" transform="translate(496,354)"/>
<path d="M0 0 C0 0.66 0 1.32 0 2 C-2.8125 2.625 -2.8125 2.625 -6 3 C-6.99 2.34 -7.98 1.68 -9 1 C-2.25 -1.125 -2.25 -1.125 0 0 Z " fill="#353535" transform="translate(327,103)"/>
<path d="M0 0 C0 0.66 0 1.32 0 2 C-2.64 2.66 -5.28 3.32 -8 4 C-7.67 3.01 -7.34 2.02 -7 1 C-4.53721199 -0.231394 -2.7204945 -0.07159196 0 0 Z " fill="#080808" transform="translate(328,40)"/>
<path d="M0 0 C2.64 1.98 5.28 3.96 8 6 C7.34 6.66 6.68 7.32 6 8 C4.99403703 7.0479279 3.99538437 6.08812654 3 5.125 C2.443125 4.59132813 1.88625 4.05765625 1.3125 3.5078125 C0 2 0 2 0 0 Z " fill="#252525" transform="translate(185,538)"/>
<path d="M0 0 C3.37503669 1.1858237 5.64722731 2.27573689 8 5 C7.01 5.33 6.02 5.66 5 6 C4.34 5.67 3.68 5.34 3 5 C3 4.01 3 3.02 3 2 C2.01 1.67 1.02 1.34 0 1 C0 0.67 0 0.34 0 0 Z " fill="#444444" transform="translate(537,75)"/>
<path d="M0 0 C0.66 0.33 1.32 0.66 2 1 C-1.625 5.875 -1.625 5.875 -5 7 C-3.75023244 3.34683329 -3.32901247 2.21934164 0 0 Z " fill="#0C0C0C" transform="translate(236,76)"/>
<path d="M0 0 C2.31 0.33 4.62 0.66 7 1 C6.67 1.99 6.34 2.98 6 4 C4.35 3.67 2.7 3.34 1 3 C0.67 2.01 0.34 1.02 0 0 Z " fill="#363636" transform="translate(478,48)"/>
</svg>
