<?xml version="1.0" encoding="UTF-8"?>
<svg version="1.1" xmlns="http://www.w3.org/2000/svg" width="427" height="274">
<path d="M0 0 C140.91 0 281.82 0 427 0 C427 90.42 427 180.84 427 274 C286.09 274 145.18 274 0 274 C0 183.58 0 93.16 0 0 Z " fill="#EAE8D8" transform="translate(0,0)"/>
<path d="M0 0 C140.91 0 281.82 0 427 0 C427 90.42 427 180.84 427 274 C286.09 274 145.18 274 0 274 C0 183.58 0 93.16 0 0 Z M101.55348289 33.00237596 C98.06557889 33.0074583 94.58017936 33.05412851 91.09272766 33.10812378 C90.04254703 33.10103997 88.99236641 33.09395617 87.91036212 33.0866577 C75.10374042 33.38585439 66.73193677 40.94608181 58.08203125 49.68359375 C56.80402114 50.94429593 56.80402114 50.94429593 55.50019264 52.23046684 C38.45665165 69.63433965 35.55667039 87.00836817 35.68411255 110.71713257 C35.7796588 116.7886929 36.070663 122.84595745 36.39935219 128.90868986 C36.72354938 135.12032349 36.78759042 141.32265713 36.82948589 147.54151249 C36.86784536 152.92182481 37.0006765 158.29811907 37.15311623 163.67629814 C37.22465561 166.21823108 37.28318815 168.76056851 37.32773399 171.30311775 C37.67302236 188.68213439 37.67302236 188.68213439 47.04614258 202.65405273 C50.99872971 206.49962814 50.99872971 206.49962814 56 208 C56.25094148 208.55911003 56.50188296 209.11822006 56.76042873 209.69427282 C61.76460432 219.00254249 72.06071703 230.23811208 82.10634065 234.23634744 C90.0517867 236.08629645 98.08417116 235.81105953 106.19067383 235.63793945 C108.85793935 235.65826202 111.52399569 235.68678778 114.19094849 235.72511292 C120.63031258 235.79854342 127.06422131 235.76101788 133.5033376 235.68232236 C141.02347195 235.59398459 148.54229587 235.61250631 156.06278475 235.63275351 C169.49078136 235.66470358 182.91618135 235.59196842 196.34350586 235.46313477 C209.33280327 235.33851772 222.31857357 235.30325881 235.30834961 235.3605957 C249.50700055 235.42316477 263.70401681 235.43456416 277.90266436 235.35949296 C279.41977115 235.35154641 280.9368781 235.34363026 282.45398521 235.33574486 C283.20014118 235.33180151 283.94629715 235.32785816 284.7150639 235.32379532 C289.94086806 235.29935009 295.16591834 235.30982799 300.39170265 235.33355141 C306.76853379 235.36115127 313.14201631 235.32966223 319.51810811 235.22579918 C322.76458396 235.17421838 326.00499151 235.15547722 329.25184822 235.18991089 C345.53683702 235.44633294 345.53683702 235.44633294 359.17250794 227.51715297 C361.73308515 224.82844124 364.0961426 222.05167008 366.36535966 219.11376894 C368.0742055 216.90404416 369.85259062 214.77854038 371.67901325 212.66513538 C372.22212314 212.0330176 372.76523303 211.40089981 373.32480079 210.74962693 C375.06482746 208.9322923 376.88544419 207.47517827 378.91430664 205.9921875 C385.64618047 200.85086565 390.10012409 196.11340199 391.30419922 187.48046875 C391.84067364 180.33133129 391.72204843 173.19494445 391.49353027 166.03613281 C391.40176931 162.70155149 391.3935577 159.36692549 391.37695312 156.03125 C391.33956122 150.70950917 391.26281388 145.3901557 391.14892578 140.06958008 C390.97687527 131.86247054 390.95002852 123.65789891 390.95703125 115.44921875 C390.95674423 114.22174927 390.95645721 112.99427979 390.9561615 111.72961426 C390.96458538 104.25022515 391.06090042 96.77706726 391.22123718 89.29969788 C391.49462991 77.24598695 391.49462991 77.24598695 385.88183594 67.05151367 C383.41196401 64.79781097 380.74720232 62.90003206 378 61 C376.29842695 59.3689866 374.63382291 57.69887558 373 56 C371.8658303 54.87243022 370.72891866 53.74761429 369.58984375 52.625 C368.3723565 51.41670629 367.15490926 50.20837228 365.9375 49 C365.32583984 48.39671875 364.71417969 47.7934375 364.08398438 47.171875 C360.20223851 43.31111155 356.67928716 39.34996165 353.48929787 34.88595295 C349.65988097 31.98469304 346.03673715 32.45689848 341.35482788 32.51225281 C340.36520101 32.50812954 339.37557414 32.50400628 338.35595858 32.49975806 C335.02918177 32.49080602 331.70318761 32.510515 328.37646484 32.5300293 C325.99444483 32.52952062 323.61242464 32.5272657 321.23040771 32.52339172 C315.42016183 32.51852267 309.61017134 32.53217963 303.79996948 32.55411734 C297.01281904 32.57885077 290.22571173 32.58172447 283.43852289 32.58352111 C271.30027229 32.58740138 259.16212803 32.60987712 247.02392578 32.64331055 C235.29735881 32.67558314 223.57084772 32.69695466 211.84423828 32.70483398 C211.12518875 32.70531948 210.40613921 32.70580497 209.66530029 32.70630517 C206.77327682 32.70823481 203.88125333 32.71014691 200.98922982 32.71202127 C189.08087724 32.72007122 177.17253548 32.73731051 165.26419497 32.75565743 C162.56915464 32.7597748 159.87411421 32.76350167 157.17907286 32.7668798 C149.46682064 32.77678349 141.75460831 32.79149877 134.04238129 32.8137188 C131.72154472 32.81974753 129.4007035 32.82424835 127.07986069 32.82696152 C120.78165074 32.83500214 114.48535343 32.87671721 108.18773663 32.96458399 C105.97641931 32.9891519 103.76493616 33.00085143 101.55348289 33.00237596 Z " fill="#995062" transform="translate(0,0)"/>
<path d="M0 0 C6.41567488 -0.06856093 12.83056357 -0.06563345 19.24653053 -0.05952072 C21.6836239 -0.0608799 24.12071705 -0.06266271 26.55780983 -0.06483078 C32.42549591 -0.06887577 38.29316752 -0.06834198 44.160854 -0.06541814 C48.93279986 -0.0631405 53.70474214 -0.06286168 58.47668839 -0.06394196 C59.16117239 -0.06409519 59.8456564 -0.06424842 60.55088234 -0.0644063 C61.94215128 -0.06472608 63.33342022 -0.06505029 64.72468916 -0.06537889 C77.69521618 -0.06821397 90.66573607 -0.0649766 103.63626192 -0.05957852 C114.73828859 -0.05510118 125.84030482 -0.05589789 136.94233131 -0.06049728 C149.89009072 -0.06585895 162.83784394 -0.06795104 175.7856043 -0.06488502 C177.16780078 -0.06456652 178.54999727 -0.06425215 179.93219376 -0.06394196 C180.61198395 -0.06378768 181.29177414 -0.0636334 181.99216404 -0.06347445 C186.75774753 -0.0626149 191.52332704 -0.06405979 196.28890991 -0.06642151 C202.70526238 -0.06953209 209.12159979 -0.06729174 215.53795052 -0.06152725 C217.8856503 -0.06020985 220.23335176 -0.06057637 222.58105087 -0.06278992 C255.02931115 -0.09055553 255.02931115 -0.09055553 260.04462624 4.82378006 C260.49386452 5.317491 260.9431028 5.81120193 261.40595436 6.31987381 C262.12041725 7.03723709 262.12041725 7.03723709 262.84931374 7.76909256 C264.24625611 9.17941195 265.60790521 10.62441375 266.96845436 12.06987381 C269.21410168 14.32882867 271.46716009 16.5785171 273.74189186 18.80815506 C276.71892045 21.73435633 279.56439137 24.711985 282.28095436 27.88237381 C289.27714723 36.52058547 289.27714723 36.52058547 297.96845436 43.06987381 C298.15547546 60.28987003 298.29647668 77.50954859 298.38295174 94.73032856 C298.42417408 102.72658712 298.48035628 110.72221407 298.57196999 118.71806717 C298.65179858 125.6886729 298.70334112 132.65882117 298.72116232 139.62987131 C298.73157763 143.32005898 298.75598734 147.00893817 298.81429482 150.69870567 C298.87891915 154.82179366 298.88036805 158.94261875 298.87665749 163.0662117 C298.90541969 164.28469299 298.9341819 165.50317429 298.96381569 166.75857925 C298.88461958 174.88684104 298.88461958 174.88684104 296.22088051 178.32649422 C294.21708064 180.08431714 292.16711578 181.56918349 289.96845436 183.06987381 C288.26664128 184.87062952 286.59534233 186.70115114 284.96845436 188.56987381 C282.17887638 191.69758246 279.44444904 194.64533121 276.21845436 197.31987381 C271.31134784 201.42088481 267.10164293 206.19688657 262.8034153 210.9165535 C262.22237038 211.55109451 261.64132545 212.18563553 261.04267311 212.83940506 C260.26283058 213.69949173 260.26283058 213.69949173 259.46723366 214.57695389 C256.46564931 217.56680375 254.37456019 218.3254408 250.27291679 218.42490864 C249.30171056 218.45294199 248.33050433 218.48097534 247.3298676 218.50985819 C246.26017948 218.53063518 245.19049136 218.55141216 244.08838844 218.57281876 C242.95361336 218.60204467 241.81883829 218.63127059 240.64967608 218.66138214 C236.82544084 218.75641392 233.00105306 218.83647674 229.17646217 218.91582108 C227.82581915 218.94662076 226.47518613 218.97786195 225.12456322 219.00953102 C198.63837149 219.63029888 172.14754821 219.98123678 145.65572929 220.25481129 C142.28600527 220.29023855 138.91628948 220.32636073 135.54657936 220.3630867 C134.70917138 220.3721858 133.87176339 220.38128491 133.00897941 220.39065974 C119.52977202 220.54128459 106.05757443 220.8357157 92.58227101 221.18710387 C78.6955653 221.54614515 64.81245565 221.75189238 50.92125392 221.82066578 C43.14003726 221.86328505 35.37236841 221.97123193 27.59587288 222.25447655 C-25.13651766 224.11843594 -25.13651766 224.11843594 -44.54016328 206.69051474 C-53.30088272 198.24889004 -60.91757275 188.91631119 -68.03154564 179.06987381 C-68.57750098 178.3805165 -69.12345632 177.69115919 -69.68595576 176.98091227 C-71.4807472 174.43190716 -71.43455393 172.68840415 -71.47978783 169.58867264 C-71.50270897 168.47505859 -71.52563011 167.36144455 -71.54924583 166.21408463 C-71.55887352 164.99731537 -71.56850121 163.78054611 -71.57842064 162.52690506 C-71.59964989 161.24290314 -71.62087914 159.95890121 -71.64275169 158.63599014 C-71.69891049 155.11843296 -71.73462084 151.60097384 -71.76343346 148.08309555 C-71.78154113 145.88292221 -71.80262934 143.68279454 -71.82439232 141.48265457 C-71.90555692 133.03728574 -71.95527463 124.59204963 -71.99066353 116.14637756 C-72.01629561 110.68894803 -72.07310267 105.23244265 -72.14482689 99.77544022 C-72.23239815 93.05114481 -72.2781229 86.32805311 -72.27308083 79.60316563 C-72.27114463 76.06533239 -72.28643918 72.52975531 -72.34685326 68.99238968 C-72.7411694 44.27844977 -72.7411694 44.27844977 -66.37529564 37.26128006 C-64.84103351 35.97884512 -63.30429255 34.69764442 -61.71819115 33.47990799 C-59.13176663 31.31765934 -57.01629059 28.79157351 -54.81249046 26.24888992 C-52.35090069 23.42480605 -49.78777571 20.70274309 -47.22051048 17.97490311 C-45.92782201 16.57983474 -44.65637134 15.16478314 -43.40703392 13.73076248 C-42.78941185 13.02475906 -42.17178978 12.31875565 -41.53545189 11.59135818 C-40.99896019 10.96539749 -40.46246849 10.3394368 -39.90971947 9.6945076 C-33.07269673 3.07121176 -28.20848111 0.10178475 -18.57138634 0.17439651 C-17.57273668 0.15688973 -16.57408702 0.13938294 -15.54517525 0.12134564 C-10.36372555 0.04336181 -5.18180884 0.06607585 0 0 Z M-0.47806275 9.07224977 C-3.96596675 9.07733211 -7.45136628 9.12400232 -10.93881798 9.17799759 C-11.98899861 9.17091378 -13.03917923 9.16382998 -14.12118351 9.15653151 C-26.92780522 9.4557282 -35.29960887 17.01595562 -43.94951439 25.75346756 C-45.2275245 27.01416974 -45.2275245 27.01416974 -46.531353 28.30034065 C-63.57489399 45.70421346 -66.47487525 63.07824198 -66.34743309 86.78700638 C-66.25188683 92.85856671 -65.96088264 98.91583126 -65.63219345 104.97856367 C-65.30799626 111.1901973 -65.24395522 117.39253094 -65.20205975 123.6113863 C-65.16370028 128.99169862 -65.03086914 134.36799288 -64.87842941 139.74617195 C-64.80689003 142.28810489 -64.74835748 144.83044232 -64.70381165 147.37299156 C-64.35852328 164.7520082 -64.35852328 164.7520082 -54.98540306 178.72392654 C-51.03281593 182.56950195 -51.03281593 182.56950195 -46.03154564 184.06987381 C-45.78060416 184.62898384 -45.52966268 185.18809387 -45.27111691 185.76414663 C-40.26694132 195.0724163 -29.97082861 206.30798589 -19.92520499 210.30622125 C-11.97975894 212.15617026 -3.94737448 211.88093334 4.15912819 211.70781326 C6.82639371 211.72813583 9.49245005 211.75666159 12.15940285 211.79498672 C18.59876694 211.86841723 25.03267568 211.83089169 31.47179196 211.75219617 C38.99192631 211.6638584 46.51075023 211.68238012 54.03123911 211.70262732 C67.45923572 211.73457739 80.88463571 211.66184223 94.31196022 211.53300858 C107.30125763 211.40839153 120.28702793 211.37313262 133.27680397 211.43046951 C147.47545491 211.49303858 161.67247117 211.50443797 175.87111872 211.42936677 C177.38822552 211.42142022 178.90533247 211.41350407 180.42243958 211.40561867 C181.16859554 211.40167532 181.91475151 211.39773197 182.68351826 211.39366913 C187.90932242 211.3692239 193.1343727 211.3797018 198.36015701 211.40342522 C204.73698815 211.43102508 211.11047067 211.39953603 217.48656247 211.29567299 C220.73303833 211.24409219 223.97344587 211.22535103 227.22030258 211.2597847 C243.50529138 211.51620675 243.50529138 211.51620675 257.1409623 203.58702677 C259.70153951 200.89831505 262.06459696 198.12154389 264.33381402 195.18364275 C266.04265986 192.97391797 267.82104498 190.84841419 269.64746761 188.73500919 C270.1905775 188.10289141 270.73368739 187.47077362 271.29325515 186.81950074 C273.03328183 185.00216611 274.85389855 183.54505208 276.882761 182.06206131 C283.61463483 176.92073946 288.06857846 172.1832758 289.27265358 163.55034256 C289.809128 156.4012051 289.69050279 149.26481826 289.46198463 142.10600662 C289.37022367 138.7714253 289.36201207 135.4367993 289.34540749 132.10112381 C289.30801558 126.77938298 289.23126824 121.46002951 289.11738014 116.13945389 C288.94532963 107.93234435 288.91848288 99.72777272 288.92548561 91.51909256 C288.92519859 90.29162308 288.92491158 89.06415359 288.92461586 87.79948807 C288.93303974 80.32009896 289.02935478 72.84694107 289.18969154 65.36957169 C289.46308428 53.31586076 289.46308428 53.31586076 283.8502903 43.12138748 C281.38041837 40.86768478 278.71565668 38.96990587 275.96845436 37.06987381 C274.26688131 35.43886041 272.60227727 33.76874939 270.96845436 32.06987381 C269.83428466 30.94230403 268.69737303 29.8174881 267.55829811 28.69487381 C266.34081087 27.4865801 265.12336362 26.27824609 263.90595436 25.06987381 C263.2942942 24.46659256 262.68263405 23.86331131 262.05243874 23.24174881 C258.17069287 19.38098536 254.64774152 15.41983546 251.45775223 10.95582676 C247.62833533 8.05456685 244.00519151 8.52677229 239.32328224 8.58212662 C238.33365537 8.57800335 237.3440285 8.57388009 236.32441294 8.56963187 C232.99763613 8.56067983 229.67164197 8.58038881 226.3449192 8.59990311 C223.96289919 8.59939443 221.580879 8.59713951 219.19886208 8.59326553 C213.38861619 8.58839648 207.5786257 8.60205344 201.76842384 8.62399115 C194.9812734 8.64872458 188.19416609 8.65159828 181.40697725 8.65339492 C169.26872665 8.65727519 157.1305824 8.67975093 144.99238014 8.71318436 C133.26581317 8.74545695 121.53930208 8.76682847 109.81269264 8.77470779 C109.09364311 8.77519328 108.37459357 8.77567878 107.63375466 8.77617898 C104.74173118 8.77810862 101.84970769 8.78002072 98.95768418 8.78189508 C87.0493316 8.78994503 75.14098984 8.80718431 63.23264933 8.82553124 C60.537609 8.82964861 57.84256857 8.83337548 55.14752722 8.83675361 C47.435275 8.8466573 39.72306267 8.86137258 32.01083565 8.88359261 C29.68999908 8.88962134 27.36915786 8.89412216 25.04831505 8.89683533 C18.7501051 8.90487595 12.45380779 8.94659102 6.15619099 9.0344578 C3.94487367 9.05902571 1.73339052 9.07072524 -0.47806275 9.07224977 Z " fill="#D9D7C8" transform="translate(102.03154563903809,23.930126190185547)"/>
<path d="M0 0 C5.48410393 0.00456366 10.96624376 -0.03566408 16.44989683 -0.10495338 C33.80970856 -0.31992179 51.16345437 -0.38172715 68.52441292 -0.3272641 C82.09730841 -0.29068882 95.65458781 -0.49127971 109.22354148 -0.80352488 C123.26736151 -1.12408223 137.30373614 -1.26681042 151.35127951 -1.23247251 C159.19558256 -1.21656557 167.02472508 -1.26644697 174.86577512 -1.50525245 C204.40004995 -2.35789023 230.56953206 -1.71619717 253.32775308 19.35019055 C269.02084223 34.3972019 284.48913349 51.99381587 285.10996915 74.69070092 C285.03751695 77.27877029 284.95264351 79.86651723 284.8563223 82.45380822 C284.87011312 84.57264651 284.91461808 86.68937797 284.96239574 88.80770025 C285.11076945 95.41984609 285.04066985 102.00092908 284.80334379 108.60981408 C284.59349271 114.52823013 284.6186813 120.3883381 284.86486723 126.30512658 C284.91834932 127.79467455 284.97162638 129.28422991 285.02469541 130.77379265 C285.12347661 133.49436335 285.2616292 136.2016492 285.42861082 138.91989556 C286.25544948 164.03052962 281.39007597 186.59091261 264.07141306 205.16416302 C262.05274245 207.25090677 259.99559569 209.2959153 257.93005277 211.33613244 C257.40273015 211.86759353 256.87540753 212.39905462 256.33210543 212.9466206 C235.17952988 234.19303589 214.73770326 240.34297095 185.14328147 240.45239416 C179.93386674 240.43674901 174.72978227 240.28509782 169.52342203 240.11573601 C161.68534857 239.86772698 153.85315021 239.88734103 146.01199251 239.90868592 C132.00479441 239.93770176 118.01147895 239.73169088 104.00891019 239.38764611 C90.51477188 239.0562478 77.03443675 238.90883007 63.53625394 238.95698205 C46.32283188 239.01799134 29.11765452 238.91760482 11.90570365 238.68571538 C6.47867354 238.61713493 1.05323902 238.60464441 -4.37415598 238.61116639 C-58.2262485 238.60916776 -58.2262485 238.60916776 -73.4229164 224.06991521 C-77.81554919 219.46862349 -81.6564416 214.54581045 -85.12633894 209.22023717 C-87.60799109 205.81023428 -90.05246409 203.7408239 -93.35852145 201.15302697 C-94.58230229 199.85291372 -95.77527252 198.52240399 -96.92102145 197.15302697 C-98.85791086 194.84919688 -100.45679506 193.08305829 -102.92715548 191.32421532 C-106.73068518 186.36333767 -106.08798781 181.44111873 -106.06897067 175.3515133 C-106.08415743 174.05011407 -106.0993442 172.74871483 -106.11499117 171.40787926 C-106.15482927 167.84342529 -106.16249336 164.27959706 -106.16187523 160.71494547 C-106.16365865 157.73318289 -106.17959286 154.75155703 -106.19499694 151.7698389 C-106.23050302 144.72878294 -106.23828755 137.68805257 -106.23010348 130.64692345 C-106.222273 123.40105416 -106.26615539 116.1567747 -106.33490454 108.91126272 C-106.39190972 102.67742635 -106.4138299 96.44410258 -106.40866958 90.21000919 C-106.40610105 86.49246807 -106.41704891 82.77623732 -106.46291827 79.05895081 C-106.51261326 74.90540282 -106.48922533 70.75525326 -106.45959567 66.6015133 C-106.48409792 65.38297158 -106.50860018 64.16442986 -106.53384493 62.90896264 C-106.39471611 54.79859604 -104.37838413 50.81487197 -98.59373759 45.12407628 C-96.8257389 43.56502678 -95.05650853 42.02191143 -93.23352145 40.52802697 C-87.4558016 35.75512797 -83.3126767 30.09283361 -79.25006197 23.83039513 C-60.37451051 -3.0739242 -29.65906041 -0.02513488 0 0 Z M-33.57780956 8.19879177 C-36.73768879 8.25515303 -39.89548664 8.33957705 -43.05442904 8.43423119 C-44.47703892 8.45927839 -44.47703892 8.45927839 -45.9283884 8.4848316 C-52.68990244 8.73512908 -56.92280815 10.20913576 -61.83355807 15.10989037 C-62.55851473 15.94525826 -63.2834714 16.78062615 -64.03039645 17.64130822 C-64.85638339 18.49605233 -65.68237032 19.35079644 -66.53338717 20.23144189 C-69.11547566 22.92838994 -71.60964515 25.69155614 -74.10852145 28.46552697 C-75.85197378 30.31099153 -77.60064848 32.15153695 -79.3546152 33.98701134 C-83.76662736 38.63702059 -88.1705013 43.2987929 -92.35852145 48.15302697 C-93.19715731 49.07445237 -93.19715731 49.07445237 -94.05273531 50.01449242 C-95.8154441 52.9013462 -95.76398227 55.01545517 -95.80676363 58.38789025 C-95.82968478 59.66392617 -95.85260592 60.93996209 -95.87622164 62.25466576 C-95.88632602 63.66088766 -95.89603871 65.06711241 -95.90539645 66.47333947 C-95.92572344 67.94692199 -95.9471928 69.42048913 -95.9697275 70.89403954 C-96.02569399 74.86446023 -96.0615011 78.83479467 -96.09040926 82.8054966 C-96.10849981 85.2750727 -96.12957329 87.74460771 -96.15136813 90.21415368 C-96.23061458 99.42877005 -96.28114499 108.6432661 -96.31763934 117.85814038 C-96.34514308 123.98424941 -96.41612867 130.10904033 -96.50175188 136.23457375 C-96.58234865 142.23914666 -96.60330118 148.24226229 -96.59887789 154.24744835 C-96.60525489 156.70610381 -96.62993501 159.16478683 -96.67382906 161.62305871 C-96.73027395 165.03762234 -96.71702267 168.44531206 -96.68664645 171.86005822 C-96.73420077 173.32266328 -96.73420077 173.32266328 -96.78271578 174.81481591 C-96.6318076 181.07427677 -94.92529721 184.0579246 -90.53233431 188.49596825 C-86.70539972 192.44133267 -83.34786459 196.45242769 -80.20899646 200.96534273 C-71.78722354 212.89943886 -61.62771145 224.58563176 -46.84383868 227.91032067 C-29.97135122 230.72563414 -12.54230463 230.07396963 4.49985308 229.64856446 C12.31438969 229.45877612 20.12679766 229.4430315 27.94328288 229.43262669 C41.88778438 229.40884292 55.82664507 229.24130535 69.76867582 228.98603478 C83.26349377 228.73914891 96.75505343 228.58400361 110.25207426 228.53486291 C111.08658254 228.53180711 111.92109082 228.52875131 112.78088724 228.52560291 C114.46233794 228.51952284 116.14378872 228.51346322 117.82523957 228.50742418 C118.65489152 228.50444183 119.48454348 228.50145949 120.33933641 228.49838677 C121.58090952 228.49399221 121.58090952 228.49399221 122.84756491 228.48950887 C135.77440286 228.44084537 148.70071784 228.32163603 161.62694545 228.19014299 C165.51812536 228.15081877 169.40927903 228.1148201 173.30055548 228.08645096 C181.46260124 228.02660619 189.62288356 227.9429034 197.7835946 227.77944848 C201.15364221 227.7123077 204.5211653 227.66316415 207.89201261 227.64308205 C223.56201772 228.23377158 223.56201772 228.23377158 237.10795499 221.79279748 C239.0816369 219.50272328 239.0816369 219.50272328 240.64147855 217.15302697 C241.71520591 215.894766 242.79689654 214.64318878 243.89147855 213.40302697 C244.4328848 212.75849572 244.97429105 212.11396447 245.53210355 211.44990197 C248.96465807 207.71223149 252.76033846 204.36877047 256.50744535 200.95112267 C260.32073306 197.44924919 263.86382877 193.87924512 267.1141348 189.83662072 C268.64147855 188.15302697 268.64147855 188.15302697 271.19352628 186.83230248 C275.23007369 182.41431494 274.36168402 177.37368017 274.33605863 171.60102502 C274.34963911 170.31446007 274.36321958 169.02789513 274.37721159 167.70234337 C274.41281884 164.1751947 274.41632705 160.64870324 274.41190077 157.12140289 C274.4107108 154.17420564 274.42416153 151.22714492 274.43728371 148.2799823 C274.46761573 141.3239111 274.47093451 134.36817492 274.45812894 127.41206017 C274.44545676 120.24408721 274.48059232 113.07746225 274.53901275 105.90974626 C274.58738181 99.74986487 274.60467997 93.59041452 274.59753819 87.43034813 C274.59366312 83.7538128 274.6016989 80.0782918 274.64014532 76.40193406 C274.68157502 72.29813208 274.65825325 68.19711951 274.62902738 64.09321252 C274.66038786 62.27491685 274.66038786 62.27491685 274.69238187 60.41988793 C274.66444631 54.22811616 274.66444631 54.22811616 271.89024831 48.89139405 C269.88776803 47.12754888 267.85459783 45.63788894 265.64147855 44.15302697 C260.17906076 38.95706858 255.04908589 33.54607798 250.1531973 27.81708947 C248.57527444 25.99214689 248.57527444 25.99214689 246.14147855 24.15302697 C243.82352817 22.29866666 242.11979174 20.46671226 240.20397855 18.21552697 C234.35289182 11.17256032 234.35289182 11.17256032 225.92536832 8.53220788 C215.56546208 7.83277903 205.16442181 8.01384778 194.78674223 8.02363244 C192.36911907 8.0222758 189.95149613 8.02049438 187.53387357 8.01832238 C181.6683418 8.01424797 175.80282179 8.01482819 169.93729035 8.01773502 C165.15993182 8.02000333 160.38257686 8.0202954 155.60521795 8.0192112 C154.92241951 8.01905797 154.23962106 8.01890474 153.53613176 8.01874686 C152.14842899 8.01842709 150.76072621 8.01810288 149.37302344 8.01777427 C136.38122844 8.0149277 123.3894405 8.01819235 110.39764666 8.02357464 C99.29898876 8.02803086 88.20034134 8.02727492 77.10168363 8.02265587 C64.17001259 8.01727637 51.23834776 8.01521389 38.30667575 8.01826814 C36.92102136 8.01858663 35.53536697 8.018901 34.14971258 8.0192112 C33.12748174 8.01944262 33.12748174 8.01944262 32.08459977 8.0196787 C27.32982214 8.02053461 22.57504852 8.01910093 17.82027151 8.01673165 C11.38597185 8.01381247 4.95169167 8.01590187 -1.48260592 8.02162591 C-3.82567594 8.02293265 -6.16874764 8.02259557 -8.51181696 8.02036324 C-16.86862515 8.01314447 -25.22191534 8.08000593 -33.57780956 8.19879177 Z " fill="#070606" transform="translate(126.35852144658566,15.846973031759262)"/>
<path d="M0 0 C7.59219771 0.27545165 15.18075413 0.30789101 22.7772107 0.3334572 C36.3212165 0.38582423 49.85443826 0.62931227 63.39333761 0.99479885 C76.49377906 1.34812938 89.58926316 1.58745717 102.69411886 1.69206448 C103.91272721 1.70183122 103.91272721 1.70183122 105.15595391 1.71179527 C108.42278852 1.73768835 111.68962554 1.76323724 114.9564672 1.78822589 C129.03740316 1.89858982 143.11729551 2.09750841 157.19699232 2.31113387 C159.46505852 2.34495027 161.73314493 2.37688277 164.00124372 2.40843172 C171.92089345 2.5207849 179.83869901 2.66076836 187.75631091 2.8751437 C191.02430385 2.96359256 194.29116709 3.0364727 197.56005324 3.08381863 C201.10451874 3.13812085 204.64420067 3.24138409 208.18708456 3.35804958 C209.21583832 3.36339588 210.24459208 3.36874218 211.3045202 3.37425048 C215.4189007 3.55485376 218.18040289 3.71081096 221.4240532 6.3849854 C223.18461893 8.38405928 224.73483535 10.42312753 226.2622341 12.60270901 C230.08845127 16.6650267 234.07578303 20.48535878 238.3247341 24.10270901 C241.62745992 26.94458936 244.44810567 29.94543908 247.17008627 33.34546108 C249.20988211 35.71311907 249.20988211 35.71311907 251.96363486 37.45212002 C257.53492443 41.63678011 260.35946266 45.24682118 261.38213766 52.2705862 C261.98723284 58.9150841 262.08745988 65.56580779 262.10206188 72.23468442 C262.10994364 74.26093951 262.13354097 76.28640514 262.16253126 78.31246204 C262.26405295 85.4187613 262.30925749 92.52280837 262.30056418 99.62980862 C262.29398289 106.19404902 262.40946394 112.74826271 262.58374447 119.30996991 C262.72909576 124.99077812 262.78652639 130.66837046 262.77955467 136.35101641 C262.77678593 139.72731529 262.81631755 143.08775436 262.92451323 146.46337528 C263.29927561 159.36976621 263.0016727 169.8414648 253.93578441 179.68094267 C249.81901704 183.91060925 245.39992264 187.76953642 240.80916155 191.47742958 C238.12785133 193.71484449 235.69968079 196.10384138 233.2622341 198.60270901 C218.13720152 213.72774158 218.13720152 213.72774158 213.86116923 213.7397234 C212.90494459 213.74479794 211.94871995 213.74987248 210.96351881 213.7551008 C209.90051358 213.75559856 208.83750836 213.75609631 207.74229086 213.75660915 C206.62269293 213.76099141 205.503095 213.76537366 204.34956986 213.76988871 C200.56630594 213.78333321 196.78306532 213.78946822 192.99978293 213.7955801 C190.30004248 213.80294638 187.60030697 213.81173979 184.90057028 213.82036037 C176.77482951 213.8449137 168.64908254 213.85951694 160.52331606 213.87242044 C158.22910251 213.8761306 155.93488957 213.88010398 153.64067663 213.88417311 C139.40190153 213.90941064 125.16312552 213.93146954 110.92433298 213.94390125 C107.62412486 213.94683109 104.32391676 213.94979273 101.02370871 213.95280666 C99.79328916 213.95392574 99.79328916 213.95392574 98.53801265 213.95506742 C85.25011903 213.96772084 71.96235923 214.0009416 58.67452817 214.0426085 C45.039737 214.08501362 31.40501435 214.10859474 17.7701574 214.11382182 C10.11165632 214.11723785 2.45336423 214.12901516 -5.20507204 214.16192455 C-11.72776798 214.18990698 -18.25021211 214.20093255 -24.77296342 214.18972909 C-28.10154648 214.18453719 -31.42917435 214.19017907 -34.75775301 214.21219463 C-38.36658048 214.23476785 -41.97407164 214.22664444 -45.58290445 214.21071072 C-47.16068187 214.23153385 -47.16068187 214.23153385 -48.77033358 214.25277765 C-56.67587602 214.16655038 -56.67587602 214.16655038 -60.31775724 211.2131464 C-62.7377659 208.60270901 -62.7377659 208.60270901 -64.6127659 206.22770901 C-69.17461613 200.59248226 -74.80164475 196.5502783 -80.8405491 192.61027737 C-92.05178867 184.70348823 -99.5332178 175.84975201 -101.96032869 162.06301517 C-104.03727831 146.94133269 -104.04060353 131.73300747 -103.91319441 116.50402791 C-103.88484953 110.89829169 -104.10401398 105.32325103 -104.38313466 99.72554566 C-104.64783109 94.20374113 -104.73746915 88.69475535 -104.70624106 83.1667868 C-104.68991017 79.90644384 -104.7473194 76.6841579 -104.94255983 73.4287302 C-105.97435689 54.10356482 -97.51713978 40.94475676 -85.10605323 26.82815916 C-60.45966113 0.22571752 -34.00663898 -1.26807426 0 0 Z M-33.18428301 8.60508497 C-36.67218701 8.6101673 -40.15758654 8.65683752 -43.64503824 8.71083279 C-44.69521887 8.70374898 -45.74539949 8.69666518 -46.82740378 8.68936671 C-59.63402548 8.9885634 -68.00582913 16.54879082 -76.65573465 25.28630276 C-77.93374476 26.54700494 -77.93374476 26.54700494 -79.23757326 27.83317585 C-96.28111425 45.23704866 -99.18109551 62.61107718 -99.05365335 86.31984157 C-98.9581071 92.39140191 -98.6671029 98.44866646 -98.33841371 104.51139886 C-98.01421652 110.7230325 -97.95017548 116.92536613 -97.90828001 123.1442215 C-97.86992054 128.52453382 -97.7370894 133.90082807 -97.58464967 139.27900715 C-97.51311029 141.82094009 -97.45457775 144.36327752 -97.41003191 146.90582676 C-97.06474354 164.28484339 -97.06474354 164.28484339 -87.69162332 178.25676174 C-83.73903619 182.10233714 -83.73903619 182.10233714 -78.7377659 183.60270901 C-78.48682442 184.16181904 -78.23588294 184.72092907 -77.97733717 185.29698182 C-72.97316159 194.60525149 -62.67704887 205.84082108 -52.63142525 209.83905644 C-44.68597921 211.68900545 -36.65359474 211.41376853 -28.54709207 211.24064846 C-25.87982655 211.26097103 -23.21377022 211.28949678 -20.54681741 211.32782192 C-14.10745332 211.40125243 -7.67354459 211.36372689 -1.2344283 211.28503137 C6.28570605 211.1966936 13.80452997 211.21521532 21.32501885 211.23546252 C34.75301546 211.26741259 48.17841545 211.19467743 61.60573996 211.06584377 C74.59503736 210.94122672 87.58080767 210.90596782 100.57058371 210.96330471 C114.76923465 211.02587377 128.96625091 211.03727317 143.16489846 210.96220196 C144.68200525 210.95425542 146.1991122 210.94633926 147.71621931 210.93845386 C148.46237528 210.93451052 149.20853125 210.93056717 149.977298 210.92650433 C155.20310216 210.9020591 160.42815244 210.912537 165.65393675 210.93626041 C172.03076789 210.96386027 178.40425041 210.93237123 184.78034221 210.82850819 C188.02681806 210.77692739 191.26722561 210.75818622 194.51408232 210.7926199 C210.79907111 211.04904195 210.79907111 211.04904195 224.43474204 203.11986197 C226.99531924 200.43115024 229.3583767 197.65437908 231.62759376 194.71647794 C233.3364396 192.50675317 235.11482472 190.38124939 236.94124735 188.26784439 C237.48435724 187.6357266 238.02746713 187.00360881 238.58703489 186.35233594 C240.32706156 184.53500131 242.14767828 183.07788728 244.17654074 181.59489651 C250.90841457 176.45357466 255.36235819 171.716111 256.56643332 163.08317776 C257.10290773 155.93404029 256.98428252 148.79765345 256.75576437 141.63884182 C256.66400341 138.3042605 256.6557918 134.9696345 256.63918722 131.63395901 C256.60179532 126.31221817 256.52504798 120.9928647 256.41115988 115.67228908 C256.23910937 107.46517955 256.21226262 99.26060792 256.21926535 91.05192776 C256.21897833 89.82445827 256.21869131 88.59698879 256.2183956 87.33232326 C256.22681948 79.85293415 256.32313452 72.37977627 256.48347128 64.90240688 C256.75686401 52.84869596 256.75686401 52.84869596 251.14407004 42.65422268 C248.67419811 40.40051997 246.00943642 38.50274107 243.2622341 36.60270901 C241.56066105 34.97169561 239.89605701 33.30158459 238.2622341 31.60270901 C237.1280644 30.47513922 235.99115276 29.3503233 234.85207785 28.22770901 C233.6345906 27.0194153 232.41714336 25.81108129 231.1997341 24.60270901 C230.58807394 23.99942776 229.97641379 23.39614651 229.34621847 22.77458401 C225.46447261 18.91382056 221.94152126 14.95267065 218.75153197 10.48866196 C214.92211507 7.58740205 211.29897125 8.05960749 206.61706198 8.11496181 C205.62743511 8.11083855 204.63780824 8.10671528 203.61819268 8.10246707 C200.29141587 8.09351503 196.96542171 8.113224 193.63869894 8.1327383 C191.25667893 8.13222963 188.87465873 8.12997471 186.49264181 8.12610073 C180.68239593 8.12123168 174.87240544 8.13488864 169.06220358 8.15682635 C162.27505314 8.18155978 155.48794583 8.18443348 148.70075699 8.18623011 C136.56250639 8.19011039 124.42436213 8.21258613 112.28615988 8.24601955 C100.55959291 8.27829215 88.83308182 8.29966367 77.10647238 8.30754299 C76.38742284 8.30802848 75.66837331 8.30851397 74.92753439 8.30901418 C72.03551092 8.31094381 69.14348743 8.31285592 66.25146392 8.31473028 C54.34311134 8.32278023 42.43476958 8.34001951 30.52642906 8.35836644 C27.83138874 8.36248381 25.13634831 8.36621068 22.44130696 8.3695888 C14.72905474 8.3794925 7.01684241 8.39420777 -0.69538461 8.4164278 C-3.01622118 8.42245653 -5.3370624 8.42695736 -7.65790521 8.42967052 C-13.95611516 8.43771114 -20.25241248 8.47942621 -26.55002927 8.567293 C-28.76134659 8.59186091 -30.97282974 8.60356043 -33.18428301 8.60508497 Z " fill="#0D0D0C" transform="translate(134.7377659007907,24.397290993481874)"/>
<path d="M0 0 C7.26 0 14.52 0 22 0 C22 2.97 22 5.94 22 9 C17.38 9 12.76 9 8 9 C8 10.98 8 12.96 8 15 C9.794375 14.87625 9.794375 14.87625 11.625 14.75 C16.24934637 14.7170865 18.44232818 16.15386254 22 19 C22.08636719 18.43152344 22.17273438 17.86304687 22.26171875 17.27734375 C23.49388901 10.50605947 25.62060085 5.45408748 31.296875 1.33203125 C36.03229691 -1.00146423 40.84664559 -0.62231824 46 0 C51.01039585 2.32625522 53.27188152 5.38318411 56 10 C56.515625 9.278125 57.03125 8.55625 57.5625 7.8125 C61.25225551 3.55508979 64.15886806 0.44237759 69.91015625 -0.453125 C74.69075253 -0.61899451 78.1294409 -0.40418815 82.5 1.625 C88.41314171 7.24248463 90.08733229 12.04188545 90.34301758 19.99145508 C90.51850203 32.38387243 90.51850203 32.38387243 86.4375 37.5546875 C82.50538859 41.50816908 79.44124625 44.1284274 73.8125 44.3125 C68.73915097 44.24724792 66.0974745 42.97267758 62 40 C59.488656 37.290392 58.16714251 35.50142752 57 32 C56.45472656 32.79664063 56.45472656 32.79664063 55.8984375 33.609375 C49.00476758 43.29586504 49.00476758 43.29586504 42.8671875 44.375 C37.09845036 44.68788066 33.64722372 43.37151525 29 40 C26.5625 37.25 26.5625 37.25 25 35 C24.319375 35.928125 23.63875 36.85625 22.9375 37.8125 C19.59213848 41.77633172 15.98134372 43.5718283 10.796875 44.31640625 C5.0342537 44.62021792 1.66569016 43.35929692 -3 40 C-6 36.70967742 -6 36.70967742 -6 34 C-0.25 31 -0.25 31 2 31 C2.556875 31.680625 3.11375 32.36125 3.6875 33.0625 C5.96953479 35.42074132 5.96953479 35.42074132 9.6875 34.8125 C12.82696281 34.34580443 12.82696281 34.34580443 14 33 C14.41692853 29.58399407 14.41692853 29.58399407 14 26 C11.6284762 23.45452579 10.25438338 23.02304197 6.765625 22.70703125 C5.02539062 22.75923828 5.02539062 22.75923828 3.25 22.8125 C2.07953125 22.83957031 0.9090625 22.86664063 -0.296875 22.89453125 C-1.18890625 22.92933594 -2.0809375 22.96414062 -3 23 C-2.6893306 20.29144546 -2.37652255 17.58316612 -2.0625 14.875 C-1.93198242 13.73417969 -1.93198242 13.73417969 -1.79882812 12.5703125 C-1.66831055 11.44882813 -1.66831055 11.44882813 -1.53515625 10.3046875 C-1.456604 9.62390137 -1.37805176 8.94311523 -1.29711914 8.24169922 C-0.93170915 5.48476042 -0.45720171 2.74321027 0 0 Z " fill="#060606" transform="translate(152,106)"/>
<path d="M0 0 C2.97 0 5.94 0 9 0 C9 2.97 9 5.94 9 9 C11.97 9 14.94 9 18 9 C18 11.97 18 14.94 18 18 C15.03 18 12.06 18 9 18 C9 20.97 9 23.94 9 27 C6.03 27 3.06 27 0 27 C0 24.03 0 21.06 0 18 C-2.97 18 -5.94 18 -9 18 C-9 15.03 -9 12.06 -9 9 C-6.03 9 -3.06 9 0 9 C0 6.03 0 3.06 0 0 Z " fill="#1A1A18" transform="translate(260,114)"/>
<path d="M0 0 C4.33946047 4.48909704 4.27361978 9.33640712 4.2265625 15.265625 C3.84900724 19.82232641 2.18415429 22.81584571 -1 26 C-3.875 26.4375 -3.875 26.4375 -7 26 C-10.09841457 23.10256367 -10.94394459 21.43078804 -11.49609375 17.1875 C-11.4974107 15.79153065 -11.47740534 14.39539949 -11.4375 13 C-11.44458984 12.30132812 -11.45167969 11.60265625 -11.45898438 10.8828125 C-11.40444513 6.43576667 -10.7326821 3.52776564 -8 0 C-5.03475663 -1.48262169 -3.14877613 -0.83538959 0 0 Z " fill="#E3E2D2" transform="translate(229,115)"/>
<path d="M0 0 C4.33946047 4.48909704 4.27361978 9.33640712 4.2265625 15.265625 C3.84900724 19.82232641 2.18415429 22.81584571 -1 26 C-3.875 26.4375 -3.875 26.4375 -7 26 C-10.09841457 23.10256367 -10.94394459 21.43078804 -11.49609375 17.1875 C-11.4974107 15.79153065 -11.47740534 14.39539949 -11.4375 13 C-11.44458984 12.30132812 -11.45167969 11.60265625 -11.45898438 10.8828125 C-11.40444513 6.43576667 -10.7326821 3.52776564 -8 0 C-5.03475663 -1.48262169 -3.14877613 -0.83538959 0 0 Z " fill="#E3E2D2" transform="translate(196,115)"/>
<path d="M0 0 C2.5 0.125 2.5 0.125 3.5 1.125 C3.625 4.125 3.625 4.125 3.5 7.125 C2.5 8.125 2.5 8.125 0.0625 8.3125 C-2.5 8.125 -2.5 8.125 -4.5 6.125 C-3.77607362 0.18880368 -3.77607362 0.18880368 0 0 Z " fill="#3C3C38" transform="translate(190.5,167.875)"/>
<path d="M0 0 C1.99954746 -0.04254356 4.00041636 -0.04080783 6 0 C7 1 7 1 7.125 4 C7 7 7 7 6 8 C4.00041636 8.04080783 1.99954746 8.04254356 0 8 C0 5.36 0 2.72 0 0 Z " fill="#42423D" transform="translate(247,184)"/>
<path d="M0 0 C2.625 0.375 2.625 0.375 5 1 C5.625 3.375 5.625 3.375 6 6 C5.34 6.66 4.68 7.32 4 8 C1.375 7.625 1.375 7.625 -1 7 C-1.625 4.625 -1.625 4.625 -2 2 C-1.34 1.34 -0.68 0.68 0 0 Z " fill="#86857C" transform="translate(188,184)"/>
<path d="M0 0 C1.98 0 3.96 0 6 0 C6.38063221 2.3260857 6.71269945 4.66055264 7 7 C6 8 6 8 2.9375 8.0625 C1.968125 8.041875 0.99875 8.02125 0 8 C0 5.36 0 2.72 0 0 Z " fill="#6D6C64" transform="translate(203,168)"/>
<path d="M0 0 C3 1 3 1 4 3 C5.32 2.01 6.64 1.02 8 0 C8 2.64 8 5.28 8 8 C7.34 7.01 6.68 6.02 6 5 C5.01 5 4.02 5 3 5 C2.67 5.99 2.34 6.98 2 8 C1.34 8 0.68 8 0 8 C0 5.36 0 2.72 0 0 Z " fill="#4A4A45" transform="translate(247,168)"/>
<path d="M0 0 C1.98 0 3.96 0 6 0 C5.67 1.65 5.34 3.3 5 5 C3.68 5 2.36 5 1 5 C0.67 5.99 0.34 6.98 0 8 C0 5.36 0 2.72 0 0 Z " fill="#5B5A54" transform="translate(171,168)"/>
<path d="M0 0 C1.65 0 3.3 0 5 0 C5.33 1.32 5.66 2.64 6 4 C4.35 4.33 2.7 4.66 1 5 C0.67 5.99 0.34 6.98 0 8 C0 5.36 0 2.72 0 0 Z " fill="#66665F" transform="translate(156,168)"/>
<path d="M0 0 C1.98 0.495 1.98 0.495 4 1 C3.67 2.65 3.34 4.3 3 6 C1.68 5.67 0.36 5.34 -1 5 C-0.67 3.35 -0.34 1.7 0 0 Z " fill="#DFDDCE" transform="translate(189,169)"/>
<path d="M0 0 C1.32 0.33 2.64 0.66 4 1 C3.67 2.65 3.34 4.3 3 6 C2.01 6 1.02 6 0 6 C0 4.02 0 2.04 0 0 Z " fill="#E5E4D4" transform="translate(249,185)"/>
</svg>
