
<!-- Generator: visioncortex VTracer 0.6.4 -->
<svg version="1.1" xmlns="http://www.w3.org/2000/svg" viewBox="0 0 458 205" preserveAspectRatio="xMidYMid meet">
<path d="M0 0 C151.14 0 302.28 0 458 0 C458 67.65 458 135.3 458 205 C306.86 205 155.72 205 0 205 C0 137.35 0 69.7 0 0 Z " fill="#FDFDFD" transform="translate(0,0)"/>
<path d="M0 0 C0.545 0.523 1.091 1.047 1.652 1.586 C1.652 2.246 1.652 2.906 1.652 3.586 C2.312 3.586 2.972 3.586 3.652 3.586 C3.652 4.246 3.652 4.906 3.652 5.586 C4.271 5.875 4.89 6.163 5.527 6.461 C9.911 8.781 10.725 12.215 12.215 16.648 C13.384 20.946 13.384 20.946 15.652 24.586 C16.833 36.59 15.358 49.351 8.668 59.637 C6.472 62.202 4.222 64.398 1.652 66.586 C0.878 67.251 0.103 67.916 -0.695 68.602 C-10.901 76.501 -22.648 78.85 -35.348 77.586 C-38.56 76.942 -41.37 75.939 -44.348 74.586 C-45.18 74.222 -46.013 73.859 -46.871 73.484 C-52.215 70.997 -57.511 68.174 -61.348 63.586 C-62.031 61.402 -62.031 61.402 -62.348 59.586 C-63.008 59.586 -63.668 59.586 -64.348 59.586 C-70.622 45.757 -74.805 32.594 -69.348 17.586 C-68.085 15.104 -66.863 12.892 -65.348 10.586 C-64.704 9.6 -64.704 9.6 -64.047 8.594 C-62.879 6.878 -61.619 5.226 -60.348 3.586 C-59.688 3.586 -59.028 3.586 -58.348 3.586 C-58.113 2.989 -57.878 2.392 -57.637 1.777 C-54.031 -4.352 -44.859 -7.352 -38.348 -9.414 C-23.855 -12.806 -11.463 -8.974 0 0 Z " fill="#E2A6B7" transform="translate(122.34765625,70.4140625)"/>
<path d="M0 0 C2.484 0.016 4.967 0 7.451 -0.019 C9.038 -0.017 10.624 -0.013 12.211 -0.007 C12.949 -0.013 13.688 -0.019 14.449 -0.026 C17.627 0.018 19.829 0.204 22.621 1.783 C24.603 3.855 24.727 4.989 24.722 7.829 C24.744 8.59 24.766 9.352 24.789 10.137 C23.849 13.504 22.038 14.496 19.16 16.391 C16.114 16.845 16.114 16.845 12.765 16.782 C11.563 16.769 10.361 16.756 9.123 16.743 C7.877 16.709 6.631 16.676 5.347 16.641 C4.082 16.623 2.817 16.605 1.513 16.586 C-1.605 16.539 -4.722 16.474 -7.84 16.391 C-7.84 17.051 -7.84 17.711 -7.84 18.391 C-7.283 18.394 -6.726 18.396 -6.153 18.399 C0.335 18.728 4.6 20.722 9.16 25.391 C10.383 27.59 10.383 27.59 11.16 29.391 C11.82 29.391 12.48 29.391 13.16 29.391 C16.024 35.954 17.557 41.878 15.383 48.903 C12.727 54.307 7.953 58.154 2.496 60.571 C-8.998 63.895 -24.775 64.383 -35.84 59.391 C-38.337 56.807 -39.271 54.915 -39.278 51.329 C-38.84 47.391 -38.84 47.391 -37.403 45.391 C-32.686 43.551 -27.824 44.054 -22.903 44.891 C-14.977 46.185 -7.597 45.24 0.16 43.391 C-1.473 39.644 -1.473 39.644 -3.84 36.391 C-6.34 36.224 -6.34 36.224 -8.84 36.391 C-9.17 36.721 -9.5 37.051 -9.84 37.391 C-17.299 37.752 -17.299 37.752 -20.84 35.391 C-24.242 26.71 -27.834 15.089 -26.442 5.708 C-24.408 2.766 -22.317 1.874 -18.921 0.91 C-12.658 -0.145 -6.336 -0.049 0 0 Z " fill="#040405" transform="translate(233.840087890625,44.60888671875)"/>
<path d="M0 0 C1.661 0.629 3.315 1.278 4.938 2 C4.938 2.66 4.938 3.32 4.938 4 C5.763 4.186 6.588 4.371 7.438 4.562 C11.504 6.233 14.018 8.472 17.203 11.441 C18.867 13.075 18.867 13.075 20.938 14 C20.938 14.66 20.938 15.32 20.938 16 C21.597 16 22.257 16 22.938 16 C24.501 18.095 25.921 20.169 27.312 22.375 C27.717 23.011 28.121 23.647 28.537 24.303 C36.325 36.837 38.243 49.42 36.938 64 C36.039 67.631 34.622 70.679 32.938 74 C32.369 75.623 31.807 77.248 31.25 78.875 C27.728 87.672 21.966 95.019 13.938 100 C12.927 100.804 11.916 101.609 10.875 102.438 C-1.755 111.523 -18.473 112.577 -33.449 110.539 C-43.035 108.409 -52.001 103.871 -59.062 97 C-59.062 96.34 -59.062 95.68 -59.062 95 C-59.659 94.732 -60.256 94.464 -60.871 94.188 C-66.378 91.203 -69.18 86.435 -70.938 80.562 C-71.331 79.046 -71.712 77.527 -72.062 76 C-72.722 76 -73.382 76 -74.062 76 C-77.023 68.913 -77.494 62.562 -77.375 54.938 C-77.378 53.9 -77.381 52.863 -77.385 51.795 C-77.343 45.858 -76.776 40.688 -75.062 35 C-74.403 35 -73.743 35 -73.062 35 C-72.939 33.866 -72.815 32.731 -72.688 31.562 C-72.378 29.799 -72.378 29.799 -72.062 28 C-71.403 27.67 -70.743 27.34 -70.062 27 C-69.339 25.29 -68.618 23.578 -67.926 21.855 C-66.703 19.228 -64.966 17.166 -63.062 15 C-61.413 15.33 -59.763 15.66 -58.062 16 C-57.25 18.188 -57.25 18.188 -57.062 21 C-58.176 22.092 -58.176 22.092 -59.312 23.207 C-67.205 31.222 -69.744 42.879 -69.75 53.812 C-69.462 65.878 -66.389 74.751 -59.551 84.723 C-58.062 87 -58.062 87 -57.062 90 C-55.399 90.674 -53.732 91.34 -52.062 92 C-50.729 93.333 -49.396 94.667 -48.062 96 C-45.229 97.625 -45.229 97.625 -42.062 99 C-40.887 99.536 -39.711 100.072 -38.5 100.625 C-28.355 104.683 -13.519 104.851 -3.258 101.043 C3.838 97.672 10.381 93.582 15.938 88 C16.96 86.973 16.96 86.973 18.004 85.926 C30.152 72.391 28.463 55.022 27.938 38 C27.278 38 26.618 38 25.938 38 C25.799 37.44 25.661 36.88 25.519 36.304 C23.692 29.879 20.843 25.955 16.188 21.25 C15.294 20.301 15.294 20.301 14.383 19.332 C9.123 13.856 3.921 9.051 -3.625 7.25 C-4.576 7.022 -5.528 6.794 -6.508 6.559 C-7.772 6.282 -7.772 6.282 -9.062 6 C-10.032 5.773 -11.001 5.546 -12 5.312 C-20.76 4.419 -28.524 5.033 -37.055 7.246 C-40.045 7.996 -43.017 8.532 -46.062 9 C-46.062 7.02 -46.062 5.04 -46.062 3 C-44.906 2.584 -44.906 2.584 -43.727 2.16 C-42.724 1.798 -41.721 1.436 -40.688 1.062 C-39.69 0.703 -38.692 0.343 -37.664 -0.027 C-26.536 -4.188 -11.39 -3.582 0 0 Z " fill="#4D5872" transform="translate(115.0625,50)"/>
<path d="M0 0 C0.545 0.523 1.091 1.047 1.652 1.586 C1.652 2.246 1.652 2.906 1.652 3.586 C2.312 3.586 2.972 3.586 3.652 3.586 C3.652 4.246 3.652 4.906 3.652 5.586 C4.271 5.875 4.89 6.163 5.527 6.461 C9.911 8.781 10.725 12.215 12.215 16.648 C13.384 20.946 13.384 20.946 15.652 24.586 C16.833 36.59 15.358 49.351 8.668 59.637 C6.472 62.202 4.222 64.398 1.652 66.586 C0.878 67.251 0.103 67.916 -0.695 68.602 C-10.901 76.501 -22.648 78.85 -35.348 77.586 C-38.56 76.942 -41.37 75.939 -44.348 74.586 C-45.18 74.222 -46.013 73.859 -46.871 73.484 C-52.215 70.997 -57.511 68.174 -61.348 63.586 C-62.031 61.402 -62.031 61.402 -62.348 59.586 C-63.008 59.586 -63.668 59.586 -64.348 59.586 C-70.622 45.757 -74.805 32.594 -69.348 17.586 C-68.085 15.104 -66.863 12.892 -65.348 10.586 C-64.704 9.6 -64.704 9.6 -64.047 8.594 C-62.879 6.878 -61.619 5.226 -60.348 3.586 C-59.688 3.586 -59.028 3.586 -58.348 3.586 C-58.113 2.989 -57.878 2.392 -57.637 1.777 C-54.031 -4.352 -44.859 -7.352 -38.348 -9.414 C-23.855 -12.806 -11.463 -8.974 0 0 Z M-46.348 1.586 C-46.966 1.944 -47.585 2.303 -48.223 2.672 C-50.085 3.778 -50.085 3.778 -52.348 5.586 C-52.348 6.246 -52.348 6.906 -52.348 7.586 C-53.008 7.586 -53.668 7.586 -54.348 7.586 C-55.008 9.236 -55.668 10.886 -56.348 12.586 C-57.008 12.586 -57.668 12.586 -58.348 12.586 C-63.961 18.2 -64.637 26.116 -64.66 33.648 C-64.61 39.223 -64.115 44.284 -62.348 49.586 C-61.688 49.586 -61.028 49.586 -60.348 49.586 C-60.059 50.349 -59.77 51.112 -59.473 51.898 C-58.385 54.736 -58.385 54.736 -56.348 57.586 C-55.688 57.586 -55.028 57.586 -54.348 57.586 C-54.162 58.143 -53.976 58.7 -53.785 59.273 C-51.712 62.608 -48.784 64.718 -45.348 66.586 C-44.358 66.586 -43.368 66.586 -42.348 66.586 C-42.348 67.246 -42.348 67.906 -42.348 68.586 C-34.141 72.479 -24.169 71.505 -15.723 68.773 C-7.896 65.912 -3.574 61.879 1.652 55.586 C2.436 54.74 3.22 53.895 4.027 53.023 C6.098 49.917 6.364 47.268 6.652 43.586 C7.312 43.586 7.972 43.586 8.652 43.586 C9.096 29.269 8.575 18.846 -1.348 7.586 C-7.73 1.731 -13.659 -1.857 -22.348 -2.414 C-23.55 -2.494 -24.753 -2.574 -25.992 -2.656 C-33.739 -2.919 -39.688 -2.493 -46.348 1.586 Z " fill="#4B5670" transform="translate(122.34765625,70.4140625)"/>
<path d="M0 0 C1.791 0.01 1.791 0.01 3.617 0.02 C6.868 0.175 9.932 0.577 13.125 1.188 C13.125 1.847 13.125 2.508 13.125 3.188 C13.682 3.394 14.239 3.6 14.812 3.812 C18.339 5.91 21.296 8.985 22.762 12.879 C23.305 16.33 23.269 19.767 23.25 23.25 C23.256 24.33 23.256 24.33 23.262 25.432 C23.256 28.615 23.139 31.147 22.125 34.188 C21.465 34.188 20.805 34.188 20.125 34.188 C19.919 34.889 19.712 35.59 19.5 36.312 C17.369 40.769 14.304 44.075 9.883 46.332 C3.645 48.267 -4.512 48.693 -10.562 45.984 C-14.053 43.443 -16.111 41.147 -17.875 37.188 C-18.535 37.188 -19.195 37.188 -19.875 37.188 C-23.284 29.963 -22.913 20.889 -20.875 13.25 C-18.672 7.601 -14.005 4.212 -9.051 1.008 C-5.982 -0.149 -3.269 -0.039 0 0 Z " fill="#0E0F10" transform="translate(336.875,48.8125)"/>
<path d="M0 0 C4.653 2.492 8.573 6.39 10.383 11.387 C10.963 13.698 11.341 15.952 11.633 18.316 C11.728 19.028 11.824 19.74 11.922 20.473 C12.465 28.363 9.05 35.506 4.898 42.051 C0.319 46.63 -5.677 46.627 -11.867 46.691 C-18.01 46.606 -21.605 46.213 -26.367 42.316 C-29.367 39.026 -29.367 39.026 -29.367 36.316 C-30.357 35.986 -31.347 35.656 -32.367 35.316 C-33.634 26.926 -33.683 18.542 -31.367 10.316 C-29.383 8.012 -29.383 8.012 -27.367 6.316 C-26.852 5.76 -26.336 5.203 -25.805 4.629 C-24.367 3.316 -24.367 3.316 -21.367 2.316 C-21.037 1.656 -20.707 0.996 -20.367 0.316 C-14.349 -1.69 -6.146 -1.775 0 0 Z " fill="#0C0C0E" transform="translate(298.3671875,49.68359375)"/>
<path d="M0 0 C1.661 0.629 3.315 1.278 4.938 2 C4.938 2.66 4.938 3.32 4.938 4 C5.763 4.186 6.588 4.371 7.438 4.562 C11.504 6.233 14.018 8.472 17.203 11.441 C18.867 13.075 18.867 13.075 20.938 14 C20.938 14.66 20.938 15.32 20.938 16 C21.597 16 22.257 16 22.938 16 C24.574 18.263 26.083 20.513 27.562 22.875 C27.983 23.526 28.403 24.177 28.836 24.848 C31.938 29.732 31.938 29.732 31.938 32 C31.278 32 30.618 32 29.938 32 C30.928 34.97 30.928 34.97 31.938 38 C30.947 38.99 30.947 38.99 29.938 40 C29.66 42.328 29.66 42.328 29.742 45.008 C29.749 45.994 29.755 46.98 29.762 47.996 C29.778 49.029 29.795 50.061 29.812 51.125 C29.822 52.165 29.831 53.206 29.84 54.277 C29.863 56.852 29.896 59.426 29.938 62 C29.608 62 29.278 62 28.938 62 C28.608 54.08 28.278 46.16 27.938 38 C27.278 38 26.618 38 25.938 38 C25.799 37.44 25.661 36.88 25.519 36.304 C23.692 29.879 20.843 25.955 16.188 21.25 C15.592 20.617 14.996 19.984 14.383 19.332 C9.123 13.856 3.921 9.051 -3.625 7.25 C-4.576 7.022 -5.528 6.794 -6.508 6.559 C-7.772 6.282 -7.772 6.282 -9.062 6 C-10.032 5.773 -11.001 5.546 -12 5.312 C-20.76 4.419 -28.524 5.033 -37.055 7.246 C-40.045 7.996 -43.017 8.532 -46.062 9 C-46.062 7.02 -46.062 5.04 -46.062 3 C-45.292 2.723 -44.521 2.446 -43.727 2.16 C-42.724 1.798 -41.721 1.436 -40.688 1.062 C-39.69 0.703 -38.692 0.343 -37.664 -0.027 C-26.536 -4.188 -11.39 -3.582 0 0 Z M31.938 34 C37.303 39.853 37.262 47.87 37.188 55.375 C37.195 56.181 37.203 56.986 37.211 57.816 C37.191 63.746 37.191 63.746 34.938 66 C34.918 65.299 34.898 64.598 34.877 63.876 C34.782 60.688 34.672 57.5 34.562 54.312 C34.532 53.21 34.501 52.107 34.469 50.971 C34.43 49.904 34.391 48.837 34.352 47.738 C34.32 46.759 34.289 45.78 34.256 44.771 C33.922 41.868 33.059 39.681 31.938 37 C31.938 36.01 31.938 35.02 31.938 34 Z " fill="#5C657D" transform="translate(115.0625,50)"/>
<path d="M0 0 C1.65 0.33 3.3 0.66 5 1 C5.812 3.188 5.812 3.188 6 6 C5.258 6.728 4.515 7.457 3.75 8.207 C-4.142 16.222 -6.682 27.879 -6.688 38.812 C-6.399 50.878 -3.327 59.751 3.512 69.723 C5 72 5 72 6 75 C7.176 75.464 7.176 75.464 8.375 75.938 C11.351 77.142 12.31 78.332 14 81 C11.688 82.125 11.688 82.125 9 83 C7.515 82.01 7.515 82.01 6 81 C5.01 81.495 5.01 81.495 4 82 C4 81.34 4 80.68 4 80 C3.403 79.732 2.806 79.464 2.191 79.188 C-3.316 76.203 -6.117 71.435 -7.875 65.562 C-8.268 64.046 -8.65 62.527 -9 61 C-9.66 61 -10.32 61 -11 61 C-13.961 53.913 -14.431 47.562 -14.312 39.938 C-14.316 38.9 -14.319 37.863 -14.322 36.795 C-14.281 30.858 -13.714 25.688 -12 20 C-11.34 20 -10.68 20 -10 20 C-9.814 18.298 -9.814 18.298 -9.625 16.562 C-9.419 15.387 -9.212 14.211 -9 13 C-8.34 12.67 -7.68 12.34 -7 12 C-6.276 10.29 -5.556 8.578 -4.863 6.855 C-3.641 4.228 -1.903 2.166 0 0 Z M6 82 C6.598 82.33 7.196 82.66 7.812 83 C10.054 84.208 10.054 84.208 13 84 C16.29 84.514 17.82 85.493 20 88 C18.35 87.67 16.7 87.34 15 87 C15 87.66 15 88.32 15 89 C10.581 87.65 8.657 85.739 6 82 Z M16 82 C18.475 82.99 18.475 82.99 21 84 C20.34 84.66 19.68 85.32 19 86 C19 85.34 19 84.68 19 84 C18.01 84 17.02 84 16 84 C16 83.34 16 82.68 16 82 Z " fill="#505A74" transform="translate(52,65)"/>
<path d="M0 0 C1.825 -0.186 1.825 -0.186 3.688 -0.375 C4.714 -0.479 4.714 -0.479 5.762 -0.586 C8.707 0.185 10.173 1.794 11.994 4.177 C13.732 7.327 13.723 10.508 13.625 14 C13.654 15.029 13.654 15.029 13.684 16.078 C13.629 21.787 11.883 24.152 8 28 C5.191 29.405 3.112 29.249 0 29 C-2.88 27.56 -3.811 26.378 -5.25 23.5 C-6.619 17.113 -7.353 10.662 -4 4.812 C-3.34 3.884 -2.68 2.956 -2 2 C-1.34 2 -0.68 2 0 2 C0 1.34 0 0.68 0 0 Z " fill="#EDEEF1" transform="translate(284,58)"/>
<path d="M0 0 C7.297 -0.486 7.297 -0.486 10.438 1.688 C13.845 6.731 13.524 13.095 13 19 C11.902 23.135 10.655 25.563 7 28 C0.677 28.452 0.677 28.452 -3 26 C-3 25.34 -3 24.68 -3 24 C-3.66 24 -4.32 24 -5 24 C-6.069 20.793 -6.133 18.43 -6.125 15.062 C-6.128 14.022 -6.13 12.982 -6.133 11.91 C-5.973 8.418 -5.804 5.978 -3.562 3.25 C-2 2 -2 2 0 2 C0 1.34 0 0.68 0 0 Z " fill="#F1F2F4" transform="translate(334,58)"/>
<path d="M0 0 C2.97 0 5.94 0 9 0 C9 2.64 9 5.28 9 8 C11.64 8 14.28 8 17 8 C17 10.97 17 13.94 17 17 C14.03 17 11.06 17 8 17 C8 19.64 8 22.28 8 25 C5.03 25 2.06 25 -1 25 C-1 22.36 -1 19.72 -1 17 C-3.64 17 -6.28 17 -9 17 C-9.25 11.375 -9.25 11.375 -7 8 C-3.375 7.812 -3.375 7.812 0 8 C0 5.36 0 2.72 0 0 Z " fill="#0F1012" transform="translate(373,61)"/>
<path d="M0 0 C2.875 0.375 2.875 0.375 4.875 2.375 C4.875 3.365 4.875 4.355 4.875 5.375 C2.235 4.715 -0.405 4.055 -3.125 3.375 C-1.875 7.028 -1.454 8.156 1.875 10.375 C2.188 13.875 2.188 13.875 1.875 17.375 C-0.45 19.7 -0.972 19.67 -4.125 19.688 C-4.826 19.704 -5.527 19.721 -6.25 19.738 C-6.869 19.618 -7.488 19.499 -8.125 19.375 C-8.785 18.385 -9.445 17.395 -10.125 16.375 C-10.785 17.365 -11.445 18.355 -12.125 19.375 C-12.785 19.375 -13.445 19.375 -14.125 19.375 C-14.125 16.405 -14.125 13.435 -14.125 10.375 C-16.105 13.345 -16.105 13.345 -18.125 16.375 C-19.445 16.045 -20.765 15.715 -22.125 15.375 C-22.455 13.395 -22.785 11.415 -23.125 9.375 C-23.785 12.345 -24.445 15.315 -25.125 18.375 C-26.445 18.705 -27.765 19.035 -29.125 19.375 C-28.554 12.955 -26.452 7.359 -24.125 1.375 C-22.203 2.18 -22.203 2.18 -20.125 3.375 C-18.875 6.5 -18.875 6.5 -18.125 9.375 C-17.738 8.798 -17.352 8.22 -16.953 7.625 C-16.432 6.882 -15.912 6.14 -15.375 5.375 C-14.865 4.632 -14.354 3.89 -13.828 3.125 C-12.985 2.259 -12.985 2.259 -12.125 1.375 C-10.805 1.375 -9.485 1.375 -8.125 1.375 C-7.795 2.365 -7.465 3.355 -7.125 4.375 C-6.589 3.715 -6.053 3.055 -5.5 2.375 C-3.125 0.375 -3.125 0.375 0 0 Z " fill="#E4E6EB" transform="translate(302.125,127.625)"/>
<path d="M0 0 C1.32 0 2.64 0 4 0 C4.469 3.938 4.264 5.612 2 8.938 C-9.285 21.123 -9.285 21.123 -17.375 21.562 C-20.203 21.512 -21.535 21.381 -23.742 19.574 C-24.753 18.351 -25.722 17.093 -26.648 15.805 C-28.055 13.746 -28.055 13.746 -30.875 11.875 C-33 10 -33 10 -33.312 7.25 C-33.209 6.507 -33.106 5.765 -33 5 C-29.936 4.745 -28.368 4.781 -25.688 6.375 C-25.131 6.911 -24.574 7.448 -24 8 C-24 8.66 -24 9.32 -24 10 C-23.34 10 -22.68 10 -22 10 C-22 10.66 -22 11.32 -22 12 C-19.224 13.695 -19.224 13.695 -16.059 13.727 C-13.76 12.915 -12.561 11.984 -10.801 10.312 C-10.232 9.779 -9.663 9.245 -9.076 8.695 C-8.203 7.856 -8.203 7.856 -7.312 7 C-6.719 6.441 -6.125 5.881 -5.514 5.305 C-2.731 2.679 -2.731 2.679 0 0 Z " fill="#48526D" transform="translate(110,94)"/>
<path d="M0 0 C0.66 0 1.32 0 2 0 C2 1.65 2 3.3 2 5 C1.34 4.34 0.68 3.68 0 3 C0 2.01 0 1.02 0 0 Z M2 5 C7.79 13.686 6.268 28.661 4.537 38.679 C3.467 42.974 2.056 47.068 0 51 C-0.99 51.495 -0.99 51.495 -2 52 C-2.33 50.02 -2.66 48.04 -3 46 C-3.66 46.66 -4.32 47.32 -5 48 C-4.911 46.499 -4.803 44.999 -4.688 43.5 C-4.629 42.665 -4.571 41.829 -4.512 40.969 C-4 38 -4 38 -2.457 34.363 C-0.418 29.183 -0.781 24.172 -1 18.688 C-1.076 16.734 -1.14 14.779 -1.188 12.824 C-1.24 11.542 -1.24 11.542 -1.293 10.233 C-0.937 7.517 -0.096 6.688 2 5 Z M-7 48 C-6.01 48.495 -6.01 48.495 -5 49 C-5.66 49.66 -6.32 50.32 -7 51 C-7 50.01 -7 49.02 -7 48 Z " fill="#424E6A" transform="translate(145,82)"/>
<path d="M0 0 C1.874 2.811 2.678 4.887 3.688 8.062 C5.554 13.398 8.198 17.525 11.609 22.004 C13 24 13 24 13 26 C13.763 26.248 14.526 26.495 15.312 26.75 C18.236 28.11 19.3 29.316 21 32 C18.688 33.125 18.688 33.125 16 34 C15.01 33.34 14.02 32.68 13 32 C12.01 32.495 12.01 32.495 11 33 C11 32.34 11 31.68 11 31 C10.403 30.732 9.806 30.464 9.191 30.188 C3.806 27.269 0.913 22.548 -0.875 16.812 C-1.749 13.623 -2 11.377 -2 8 C-1.34 7.67 -0.68 7.34 0 7 C0 4.69 0 2.38 0 0 Z M1 9 C2 11 2 11 2 11 Z M13 33 C13.598 33.33 14.196 33.66 14.812 34 C17.054 35.208 17.054 35.208 20 35 C23.29 35.514 24.82 36.493 27 39 C25.35 38.67 23.7 38.34 22 38 C22 38.66 22 39.32 22 40 C17.581 38.65 15.657 36.739 13 33 Z M23 33 C25.475 33.99 25.475 33.99 28 35 C27.34 35.66 26.68 36.32 26 37 C26 36.34 26 35.68 26 35 C25.01 35 24.02 35 23 35 C23 34.34 23 33.68 23 33 Z " fill="#4D5873" transform="translate(45,114)"/>
<path d="M0 0 C1.108 -0.001 2.216 -0.003 3.357 -0.004 C4.52 -0 5.682 0.004 6.879 0.008 C8.037 0.004 9.195 0 10.389 -0.004 C12.053 -0.002 12.053 -0.002 13.75 0 C14.769 0.001 15.788 0.002 16.838 0.003 C19.441 0.133 19.441 0.133 22.441 1.133 C21.781 2.783 21.121 4.433 20.441 6.133 C13.841 5.803 7.241 5.473 0.441 5.133 C0.441 5.793 0.441 6.453 0.441 7.133 C-1.6 7.614 -3.642 8.093 -5.684 8.57 C-6.821 8.837 -7.957 9.104 -9.129 9.379 C-12.263 10.068 -15.389 10.637 -18.559 11.133 C-18.559 9.153 -18.559 7.173 -18.559 5.133 C-17.788 4.856 -17.017 4.579 -16.223 4.293 C-15.22 3.931 -14.217 3.569 -13.184 3.195 C-12.186 2.836 -11.188 2.476 -10.16 2.105 C-6.343 0.678 -4.152 0.005 0 0 Z " fill="#414E6B" transform="translate(87.55859375,47.8671875)"/>
<path d="M0 0 C0.887 0.144 1.774 0.289 2.688 0.438 C3.018 1.428 3.347 2.417 3.688 3.438 C4.347 3.438 5.007 3.438 5.688 3.438 C6.19 9.716 5.878 13.384 1.688 18.438 C1.028 19.097 0.368 19.757 -0.312 20.438 C-3.312 20.312 -3.312 20.312 -6.312 19.438 C-8.755 16.662 -8.793 13.158 -8.691 9.543 C-7.765 4.393 -5.255 0.694 0 0 Z " fill="#6C7183" transform="translate(228.3125,127.5625)"/>
<path d="M0 0 C2.46 2.46 2.35 3.35 2.438 6.75 C2.355 10.307 2.05 12.721 -0.062 15.625 C-3 18 -3 18 -6.688 18.562 C-7.781 18.377 -8.874 18.191 -10 18 C-12.824 13.764 -12.667 9.975 -12 5 C-8.554 -0.628 -6.313 -1.447 0 0 Z " fill="#787C8C" transform="translate(339,129)"/>
<path d="M0 0 C6.055 -0.195 6.055 -0.195 8 0 C10.48 2.48 10.324 3.385 10.375 6.812 C10.298 10.358 10.089 11.841 8.312 15 C4.382 18.399 1.153 19.294 -4 19 C-3.295 12.424 -2.098 6.295 0 0 Z " fill="#696E82" transform="translate(385,128)"/>
<path d="M0 0 C6.055 -0.195 6.055 -0.195 8 0 C8.66 0.66 9.32 1.32 10 2 C9.673 4.616 9.18 6.641 8 9 C8.062 10.134 8.124 11.269 8.188 12.438 C8 16 8 16 6.5 17.938 C2.878 19.477 -0.08 19.196 -4 19 C-3.591 12.238 -2.43 6.328 0 0 Z " fill="#9B9DAB" transform="translate(239,128)"/>
<path d="M0 0 C1.922 0.805 1.922 0.805 4 2 C5.25 5.125 5.25 5.125 6 8 C6.398 7.423 6.797 6.845 7.207 6.25 C7.737 5.507 8.267 4.765 8.812 4 C9.335 3.257 9.857 2.515 10.395 1.75 C10.924 1.173 11.454 0.595 12 0 C12.99 0 13.98 0 15 0 C14.57 6.251 13.986 12.042 12 18 C11.34 18 10.68 18 10 18 C10 15.03 10 12.06 10 9 C8.02 11.97 8.02 11.97 6 15 C4.68 14.67 3.36 14.34 2 14 C1.67 12.02 1.34 10.04 1 8 C0.34 10.97 -0.32 13.94 -1 17 C-2.32 17.33 -3.64 17.66 -5 18 C-4.429 11.58 -2.327 5.984 0 0 Z " fill="#7C8192" transform="translate(278,129)"/>
<path d="M0 0 C3 -0.312 3 -0.312 6 0 C8 2 8 2 8.312 4.938 C8 8 8 8 6.5 9.875 C6.005 10.246 5.51 10.618 5 11 C4.34 10.67 3.68 10.34 3 10 C3.66 9.34 4.32 8.68 5 8 C5.398 6.012 5.738 4.011 6 2 C2.119 3.312 -0.148 4.83 -2.938 7.812 C-9.344 14.424 -9.344 14.424 -13 17 C-16.146 16.91 -17.31 15.794 -20 14 C-20 13.34 -20 12.68 -20 12 C-20.66 12 -21.32 12 -22 12 C-22 11.34 -22 10.68 -22 10 C-22.897 9.567 -22.897 9.567 -23.812 9.125 C-26 8 -26 8 -29 6 C-25.146 5.433 -24.05 5.964 -20.812 8.312 C-18 11 -18 11 -16 14 C-11.754 13.506 -9.768 11.104 -6.875 8.125 C-6.006 7.241 -5.137 6.356 -4.242 5.445 C-1.901 3.017 -1.901 3.017 0 0 Z M2 11 C2.66 11.66 3.32 12.32 4 13 C3.01 13.33 2.02 13.66 1 14 C1.33 13.01 1.66 12.02 2 11 Z M-1 14 C-0.34 14.33 0.32 14.66 1 15 C-0.485 15.99 -0.485 15.99 -2 17 C-1.67 16.01 -1.34 15.02 -1 14 Z M-28 15 C-25 16 -25 16 -22.875 19.062 C-21.242 21.122 -20.439 21.898 -17.852 22.5 C-13.052 22.628 -9.921 21.913 -6 19 C-4.674 18.319 -3.343 17.647 -2 17 C-8.197 24.705 -8.197 24.705 -12.051 25.336 C-17.559 25.431 -20.664 24.716 -25 21 C-28 17.6 -28 17.6 -28 15 Z " fill="#B4A0B2" transform="translate(108,92)"/>
<path d="M0 0 C0.66 0.33 1.32 0.66 2 1 C0.79 4.443 -0.334 6.539 -3 9 C-4.347 10.655 -5.683 12.32 -7 14 C-7.255 10.936 -7.219 9.368 -5.625 6.688 C-4.821 5.852 -4.821 5.852 -4 5 C-3.34 5 -2.68 5 -2 5 C-1.34 3.35 -0.68 1.7 0 0 Z M-8 14 C-7.34 14.99 -6.68 15.98 -6 17 C-6.66 17 -7.32 17 -8 17 C-7.912 19.856 -7.805 22.708 -7.688 25.562 C-7.665 26.362 -7.642 27.162 -7.619 27.986 C-7.439 31.99 -7.088 35.24 -5.395 38.902 C-4 42 -4 42 -5 45 C-5.33 44.01 -5.66 43.02 -6 42 C-6.66 42 -7.32 42 -8 42 C-9.808 36.575 -10.219 31.449 -10.25 25.75 C-10.259 25.053 -10.268 24.355 -10.277 23.637 C-10.256 19.931 -10.044 17.147 -8 14 Z M-4 45 C0.268 47.134 1.324 48.643 3 53 C5.017 54.344 5.017 54.344 7 55 C6.01 55.495 6.01 55.495 5 56 C3.293 54.719 1.626 53.382 0 52 C0 51.34 0 50.68 0 50 C-0.66 50 -1.32 50 -2 50 C-2.66 48.35 -3.32 46.7 -4 45 Z M7 56 C7.743 56.268 8.485 56.536 9.25 56.812 C16.694 59.17 24.234 61.117 32 62 C32 62.33 32 62.66 32 63 C29.604 63.054 27.209 63.094 24.812 63.125 C23.802 63.15 23.802 63.15 22.771 63.176 C18.712 63.215 15.65 62.8 12 61 C12 60.34 12 59.68 12 59 C11.361 58.876 10.721 58.752 10.062 58.625 C9.382 58.419 8.701 58.213 8 58 C7.67 57.34 7.34 56.68 7 56 Z " fill="#B8A0B2" transform="translate(68,78)"/>
<path d="M0 0 C1.65 0.33 3.3 0.66 5 1 C5.812 3.188 5.812 3.188 6 6 C5.247 6.722 4.494 7.444 3.719 8.188 C0.496 11.521 -0.757 14.524 -2.312 18.812 C-2.576 19.505 -2.84 20.198 -3.111 20.912 C-3.753 22.604 -4.378 24.301 -5 26 C-5.33 26 -5.66 26 -6 26 C-6.33 24.35 -6.66 22.7 -7 21 C-7.99 20.67 -8.98 20.34 -10 20 C-9.744 17.657 -9.407 15.322 -9 13 C-8.34 12.67 -7.68 12.34 -7 12 C-6.276 10.29 -5.556 8.578 -4.863 6.855 C-3.641 4.228 -1.903 2.166 0 0 Z " fill="#49546F" transform="translate(52,65)"/>
<path d="M0 0 C3.375 -0.125 3.375 -0.125 7 0 C9 2 9 2 9.125 5.125 C9.084 6.074 9.042 7.023 9 8 C7.02 8.99 7.02 8.99 5 10 C5.66 12.97 6.32 15.94 7 19 C5.68 18.67 4.36 18.34 3 18 C2.67 15.69 2.34 13.38 2 11 C1.01 11 0.02 11 -1 11 C-1.66 13.64 -2.32 16.28 -3 19 C-3.66 19 -4.32 19 -5 19 C-4.702 11.874 -3.289 6.333 0 0 Z " fill="#666B7E" transform="translate(209,128)"/>
<path d="M0 0 C0.815 0.003 1.629 0.005 2.469 0.008 C3.283 0.005 4.098 0.003 4.938 0 C6.969 0.133 6.969 0.133 7.969 1.133 C8.333 4.991 8.529 7.293 6.344 10.57 C3.366 12.529 1.465 12.451 -2.031 12.133 C-2.361 14.443 -2.691 16.753 -3.031 19.133 C-4.021 19.133 -5.011 19.133 -6.031 19.133 C-4.738 0.31 -4.738 0.31 0 0 Z " fill="#9094A3" transform="translate(196.03125,127.8671875)"/>
<path d="M0 0 C0.619 9.014 0.619 9.014 -1.688 12.688 C-4 14 -4 14 -6.75 13.75 C-7.493 13.502 -8.235 13.255 -9 13 C-9.62 4.941 -9.62 4.941 -7.312 1.438 C-4.601 -0.248 -3.125 -0.119 0 0 Z " fill="#EFF0F4" transform="translate(338,131)"/>
<path d="M0 0 C0.324 5.504 0.533 9.437 -3 14 C-5.438 13.625 -5.438 13.625 -8 13 C-9.39 10.22 -9.185 8.081 -9 5 C-7.133 0.065 -5.036 -0.133 0 0 Z " fill="#F1F3F6" transform="translate(231,131)"/>
<path d="M0 0 C1.671 0.062 1.671 0.062 3.375 0.125 C3.705 1.775 4.035 3.425 4.375 5.125 C1.708 4.458 -0.958 3.792 -3.625 3.125 C-2.606 6.182 -1.846 7.923 0.562 10.125 C2.375 12.125 2.375 12.125 2.312 14.688 C1.292 17.342 0.754 18.566 -1.625 20.125 C-4.812 20.312 -4.812 20.312 -7.625 20.125 C-8.285 18.475 -8.945 16.825 -9.625 15.125 C-8.635 14.795 -7.645 14.465 -6.625 14.125 C-6.625 15.115 -6.625 16.105 -6.625 17.125 C-4.975 16.795 -3.325 16.465 -1.625 16.125 C-1.892 13.191 -1.892 13.191 -2.625 10.125 C-3.615 9.465 -4.605 8.805 -5.625 8.125 C-5.938 5.125 -5.938 5.125 -5.625 2.125 C-3.625 0.125 -3.625 0.125 0 0 Z " fill="#545B6F" transform="translate(321.625,127.875)"/>
<path d="M0 0 C3.125 -0.188 3.125 -0.188 6 0 C6.33 1.32 6.66 2.64 7 4 C5.02 4 3.04 4 1 4 C0.67 4.66 0.34 5.32 0 6 C1.65 6.33 3.3 6.66 5 7 C5 7.99 5 8.98 5 10 C2.69 10.33 0.38 10.66 -2 11 C-2 12.65 -2 14.3 -2 16 C-0.02 15.67 1.96 15.34 4 15 C4 15.99 4 16.98 4 18 C1.237 19.381 -0.947 19.191 -4 19 C-4.66 18.34 -5.32 17.68 -6 17 C-5.618 10.506 -3.59 5.386 0 0 Z " fill="#555B70" transform="translate(374,128)"/>
<path d="M0 0 C0.33 1.32 0.66 2.64 1 4 C-1.64 4 -4.28 4 -7 4 C-7 4.99 -7 5.98 -7 7 C-5.35 7 -3.7 7 -2 7 C-2 7.99 -2 8.98 -2 10 C-4.31 10 -6.62 10 -9 10 C-9 11.98 -9 13.96 -9 16 C-5.535 15.505 -5.535 15.505 -2 15 C-2.66 16.32 -3.32 17.64 -4 19 C-6.343 18.744 -8.678 18.407 -11 18 C-12.422 15.157 -12.239 13.17 -12 10 C-9.398 2.69 -8.059 -0.537 0 0 Z " fill="#73798C" transform="translate(273,128)"/>
<path d="M0 0 C0.99 0 1.98 0 3 0 C3 3.96 3 7.92 3 12 C3.66 12 4.32 12 5 12 C5 11.01 5 10.02 5 9 C5.66 9 6.32 9 7 9 C7.155 8.165 7.155 8.165 7.312 7.312 C8.142 4.523 9.343 2.386 11 0 C11.66 0 12.32 0 13 0 C12.01 2.97 11.02 5.94 10 9 C9.34 9 8.68 9 8 9 C7.711 9.928 7.423 10.856 7.125 11.812 C6 15 6 15 4 18 C3.01 18 2.02 18 1 18 C0.044 14.002 -0.104 10.292 -0.062 6.188 C-0.053 5.026 -0.044 3.865 -0.035 2.668 C-0.024 1.788 -0.012 0.907 0 0 Z " fill="#828695" transform="translate(356,129)"/>
<path d="M0 0 C2.64 0 5.28 0 8 0 C7.67 1.32 7.34 2.64 7 4 C7 3.34 7 2.68 7 2 C4.69 2 2.38 2 0 2 C-0.33 2.66 -0.66 3.32 -1 4 C-0.67 2.68 -0.34 1.36 0 0 Z M-2 5 C-1.67 5.66 -1.34 6.32 -1 7 C1.31 6.34 3.62 5.68 6 5 C6.081 6.603 6.139 8.208 6.188 9.812 C6.222 10.706 6.257 11.599 6.293 12.52 C6 15 6 15 4.75 16.812 C1.651 18.916 -1.351 18.179 -5 18 C-4.886 16.395 -4.758 14.791 -4.625 13.188 C-4.555 12.294 -4.486 11.401 -4.414 10.48 C-4 8 -4 8 -2 5 Z M-1 9 C-1.33 11.31 -1.66 13.62 -2 16 C0.437 15.73 0.437 15.73 3 15 C5.277 12.185 5.277 12.185 5 9 C3.02 9 1.04 9 -1 9 Z " fill="#5C6276" transform="translate(240,129)"/>
<path d="M0 0 C3 0.25 3 0.25 5 2.25 C5 3.24 5 4.23 5 5.25 C2.36 4.59 -0.28 3.93 -3 3.25 C-1.75 6.903 -1.329 8.031 2 10.25 C2.312 13.75 2.312 13.75 2 17.25 C0 19.25 0 19.25 -3.625 19.375 C-4.739 19.334 -5.853 19.292 -7 19.25 C-7.33 17.93 -7.66 16.61 -8 15.25 C-5.69 15.58 -3.38 15.91 -1 16.25 C-1.415 12.614 -1.415 12.614 -3.562 9.812 C-5 8.25 -5 8.25 -5.312 5.188 C-4.879 1.11 -4.087 0.341 0 0 Z " fill="#585F73" transform="translate(302,127.75)"/>
<path d="M0 0 C3.377 2.609 4.22 5.969 5 10 C5.219 12.987 5.192 15.945 5.125 18.938 C5.116 19.717 5.107 20.496 5.098 21.299 C5.074 23.199 5.038 25.1 5 27 C4.34 27 3.68 27 3 27 C3.035 25.766 3.035 25.766 3.07 24.508 C3.186 17.38 2.744 10.911 1 4 C0.813 3.248 0.626 2.497 0.434 1.723 C0.291 1.154 0.147 0.586 0 0 Z M2 27 C2.75 28.562 2.75 28.562 3 31 C1.349 35.03 -0.352 37.568 -4 40 C-2.238 32.815 -2.238 32.815 1 30 C1.33 29.01 1.66 28.02 2 27 Z M-11 45 C-10.34 45 -9.68 45 -9 45 C-9 45.66 -9 46.32 -9 47 C-9.99 46.67 -10.98 46.34 -12 46 C-11.67 45.67 -11.34 45.34 -11 45 Z M-14 47 C-13.34 47.33 -12.68 47.66 -12 48 C-12.66 48.66 -13.32 49.32 -14 50 C-14.99 49.67 -15.98 49.34 -17 49 C-16.01 48.34 -15.02 47.68 -14 47 Z " fill="#C9A6BA" transform="translate(126,87)"/>
<path d="M0 0 C0.99 0.99 1.98 1.98 3 3 C2.01 3.495 2.01 3.495 1 4 C0.67 2.68 0.34 1.36 0 0 Z M-6 2 C-4.515 2.99 -4.515 2.99 -3 4 C-2.34 3.34 -1.68 2.68 -1 2 C-1 2.66 -1 3.32 -1 4 C-0.34 4 0.32 4 1 4 C1.33 5.65 1.66 7.3 2 9 C1.34 9 0.68 9 0 9 C0.66 10.65 1.32 12.3 2 14 C0.624 12.71 -0.708 11.373 -2 10 C-2 9.34 -2 8.68 -2 8 C-2.66 8 -3.32 8 -4 8 C-4.66 6.02 -5.32 4.04 -6 2 Z M4 6 C4.66 6 5.32 6 6 6 C6.722 6.743 7.444 7.485 8.188 8.25 C11.308 11.301 14.165 12.969 18 15 C16.258 15.668 16.258 15.668 14 16 C11.93 14.926 11.93 14.926 9.875 13.312 C9.192 12.793 8.509 12.274 7.805 11.738 C5.934 9.937 5.004 8.376 4 6 Z M2 14 C2.99 14.33 3.98 14.66 5 15 C4.01 15 3.02 15 2 15 C2 14.67 2 14.34 2 14 Z " fill="#71778A" transform="translate(62,122)"/>
<path d="M0 0 C1.65 0 3.3 0 5 0 C5.289 4.919 5.277 8.158 2 12 C-0.688 12.812 -0.688 12.812 -3 13 C-2.688 11.583 -2.376 10.167 -2.062 8.75 C-1.888 7.961 -1.714 7.172 -1.535 6.359 C-1.052 4.231 -0.538 2.115 0 0 Z " fill="#F2F4F7" transform="translate(387,131)"/>
<path d="M0 0 C0.66 0 1.32 0 2 0 C1.632 6.303 0.834 11.333 -2 17 C-0.02 17 1.96 17 4 17 C4 17.66 4 18.32 4 19 C1.36 19 -1.28 19 -4 19 C-3.46 12.31 -2.113 6.365 0 0 Z " fill="#61677A" transform="translate(253,128)"/>
<path d="M0 0 C0.66 0 1.32 0 2 0 C1.689 1.75 1.376 3.5 1.062 5.25 C0.888 6.225 0.714 7.199 0.535 8.203 C0.096 10.497 -0.403 12.743 -1 15 C0.65 15.33 2.3 15.66 4 16 C4 16.66 4 17.32 4 18 C1.36 18 -1.28 18 -4 18 C-3.405 5.33 -3.405 5.33 0 0 Z " fill="#808494" transform="translate(346,129)"/>
<path d="M0 0 C0.33 0.66 0.66 1.32 1 2 C0.691 2.577 0.381 3.155 0.062 3.75 C-1.301 6.638 -1.206 8.84 -1 12 C-0.67 12.66 -0.34 13.32 0 14 C1.98 14 3.96 14 6 14 C5.34 15.32 4.68 16.64 4 18 C-1.544 17.518 -1.544 17.518 -3.375 15.438 C-4.278 11.916 -4.609 8.579 -4 5 C-2 2 -2 2 0 0 Z " fill="#707486" transform="translate(224,130)"/>
<path d="M0 0 C0.99 0 1.98 0 3 0 C2.57 6.251 1.986 12.042 0 18 C-0.66 18 -1.32 18 -2 18 C-1.858 16.583 -1.711 15.166 -1.562 13.75 C-1.481 12.961 -1.4 12.172 -1.316 11.359 C-1.024 9.176 -0.579 7.123 0 5 C-0.66 5 -1.32 5 -2 5 C-1.125 1.125 -1.125 1.125 0 0 Z " fill="#676C7F" transform="translate(290,129)"/>
<path d="M0 0 C0.66 0 1.32 0 2 0 C1.716 2.064 1.422 4.126 1.125 6.188 C0.963 7.336 0.8 8.485 0.633 9.668 C0.059 12.687 -0.748 15.206 -2 18 C-2.99 18 -3.98 18 -5 18 C-4.429 11.58 -2.327 5.984 0 0 Z " fill="#747A8C" transform="translate(278,129)"/>
<path d="M0 0 C0.66 0 1.32 0 2 0 C2.486 7.172 2.486 7.172 0.312 10.875 C-2.938 13.862 -5.409 14.929 -9.812 15.125 C-10.534 15.084 -11.256 15.042 -12 15 C-12 14.34 -12 13.68 -12 13 C-10.928 12.711 -9.855 12.423 -8.75 12.125 C-4.664 10.964 -4.664 10.964 -1 9 C-0.301 6.815 -0.301 6.815 -0.25 4.375 C-0.193 3.558 -0.137 2.74 -0.078 1.898 C-0.052 1.272 -0.027 0.645 0 0 Z " fill="#575E73" transform="translate(393,132)"/>
<path d="M0 0 C0.643 0.266 1.286 0.531 1.949 0.805 C9.222 3.647 16.261 5.065 24 6 C24 6.33 24 6.66 24 7 C21.604 7.054 19.209 7.094 16.812 7.125 C15.802 7.15 15.802 7.15 14.771 7.176 C10.712 7.215 7.65 6.8 4 5 C4 4.34 4 3.68 4 3 C2.68 2.67 1.36 2.34 0 2 C0 1.34 0 0.68 0 0 Z " fill="#AE9CAE" transform="translate(76,134)"/>
<path d="M0 0 C1.562 1.812 1.562 1.812 3 4 C2.67 4.99 2.34 5.98 2 7 C0 4 0 4 0 0 Z M3 7 C7.268 9.134 8.324 10.643 10 15 C12.017 16.344 12.017 16.344 14 17 C13.01 17.495 13.01 17.495 12 18 C10.293 16.719 8.626 15.382 7 14 C7 13.34 7 12.68 7 12 C6.34 12 5.68 12 5 12 C4.34 10.35 3.68 8.7 3 7 Z " fill="#C5A6B9" transform="translate(61,116)"/>
<path d="M0 0 C3 1 3 1 4.938 4.062 C6.889 6.601 7.745 6.966 10.992 7.395 C14.015 7.377 16.989 7.259 20 7 C18 10 18 10 16.047 10.434 C10.522 10.443 7.348 9.727 3 6 C0 2.6 0 2.6 0 0 Z " fill="#B19AAC" transform="translate(80,107)"/>
<path d="M0 0 C3.486 2.694 4.109 5.797 5 10 C5.212 12.987 5.192 15.945 5.125 18.938 C5.116 19.717 5.107 20.496 5.098 21.299 C5.074 23.199 5.038 25.1 5 27 C4.67 27 4.34 27 4 27 C3.879 25.805 3.758 24.61 3.633 23.379 C2.404 11.593 2.404 11.593 0 0 Z " fill="#B39FB1" transform="translate(126,87)"/>
<path d="M0 0 C2.31 0 4.62 0 7 0 C6.67 1.65 6.34 3.3 6 5 C4.02 5.33 2.04 5.66 0 6 C0 4.02 0 2.04 0 0 Z " fill="#E6E9EE" transform="translate(209,131)"/>
<path d="M0 0 C1.454 0.031 1.454 0.031 2.938 0.062 C2.062 4.938 2.062 4.938 0.938 6.062 C-0.729 6.103 -2.396 6.105 -4.062 6.062 C-4.105 4.396 -4.103 2.729 -4.062 1.062 C-3.062 0.062 -3.062 0.062 0 0 Z " fill="#E9ECF1" transform="translate(199.0625,130.9375)"/>
<path d="M0 0 C2.475 0.99 2.475 0.99 5 2 C4.34 2.66 3.68 3.32 3 4 C3 3.34 3 2.68 3 2 C2.01 2 1.02 2 0 2 C0 1.34 0 0.68 0 0 Z M-9 1 C-8.258 1.351 -7.515 1.701 -6.75 2.062 C-4.123 3.256 -4.123 3.256 -1.938 2.375 C-1.298 2.251 -0.659 2.127 0 2 C2.25 3.938 2.25 3.938 4 6 C2.35 5.67 0.7 5.34 -1 5 C-1 5.66 -1 6.32 -1 7 C-4.914 5.731 -6.791 4.488 -9 1 Z " fill="#606981" transform="translate(68,147)"/>
<path d="M0 0 C1.65 0 3.3 0 5 0 C5.125 2.375 5.125 2.375 5 5 C4.34 5.66 3.68 6.32 3 7 C1.68 7 0.36 7 -1 7 C-0.67 4.69 -0.34 2.38 0 0 Z " fill="#EFF1F5" transform="translate(239,138)"/>
<path d="M0 0 C2.64 0 5.28 0 8 0 C8 0.33 8 0.66 8 1 C6.02 1 4.04 1 2 1 C1.897 2.155 1.794 3.31 1.688 4.5 C1.14 9.012 -0.277 12.806 -2 17 C-2.33 17 -2.66 17 -3 17 C-2.485 11.147 -1.546 5.67 0 0 Z " fill="#4E566C" transform="translate(194,129)"/>
<path d="M0 0 C0.99 0.33 1.98 0.66 3 1 C2.01 1 1.02 1 0 1 C0 0.67 0 0.34 0 0 Z M6 1 C8.625 1.375 8.625 1.375 11 2 C11 2.66 11 3.32 11 4 C9.35 4.66 7.7 5.32 6 6 C5.34 5.01 4.68 4.02 4 3 C4.66 2.34 5.32 1.68 6 1 Z M11 4 C11.99 4 12.98 4 14 4 C14 4.66 14 5.32 14 6 C13.01 5.67 12.02 5.34 11 5 C11 4.67 11 4.34 11 4 Z M14 6 C16 7 16 7 16 7 Z " fill="#3C4762" transform="translate(57,145)"/>
<path d="M0 0 C0.66 0.66 1.32 1.32 2 2 C1.977 4.383 1.977 4.383 1.625 7.125 C1.514 8.035 1.403 8.945 1.289 9.883 C1.194 10.581 1.098 11.28 1 12 C3.64 12 6.28 12 9 12 C9.33 11.34 9.66 10.68 10 10 C10 10.99 10 11.98 10 13 C6.7 13 3.4 13 0 13 C-2.215 7.955 -1.851 5.141 0 0 Z " fill="#D3D7DF" transform="translate(341,135)"/>
<path d="M0 0 C3 0.25 3 0.25 5 2.25 C5 3.24 5 4.23 5 5.25 C2.36 4.59 -0.28 3.93 -3 3.25 C-3.33 4.24 -3.66 5.23 -4 6.25 C-4.625 4.375 -4.625 4.375 -5 2.25 C-3 0.25 -3 0.25 0 0 Z " fill="#7C8091" transform="translate(302,127.75)"/>
<path d="M0 0 C2.64 0 5.28 0 8 0 C8.66 1.32 9.32 2.64 10 4 C9.34 4 8.68 4 8 4 C8.041 5.114 8.082 6.227 8.125 7.375 C8 11 8 11 6 13 C6.33 9.7 6.66 6.4 7 3 C5.35 3 3.7 3 2 3 C1.34 2.01 0.68 1.02 0 0 Z " fill="#9A9EAC" transform="translate(385,128)"/>
<path d="M0 0 C-1 2 -1 2 -3.812 3.062 C-6.202 3.765 -8.574 4.44 -11 5 C-7.723 -0.809 -6.55 -1.281 0 0 Z " fill="#7B8090" transform="translate(339,129)"/>
<path d="M0 0 C0.144 0.598 0.289 1.196 0.438 1.812 C0.887 3.562 1.429 5.287 2 7 C1.062 10.188 1.062 10.188 0 13 C-0.66 13 -1.32 13 -2 13 C-1.859 11.395 -1.712 9.791 -1.562 8.188 C-1.481 7.294 -1.4 6.401 -1.316 5.48 C-1 3 -1 3 0 0 Z " fill="#7E8192" transform="translate(206,134)"/>
<path d="M0 0 C2.31 0 4.62 0 7 0 C6.01 0.495 6.01 0.495 5 1 C5 1.66 5 2.32 5 3 C3.35 3 1.7 3 0 3 C0 4.98 0 6.96 0 9 C-0.66 8.01 -1.32 7.02 -2 6 C-1.125 2.812 -1.125 2.812 0 0 Z " fill="#828595" transform="translate(209,128)"/>
<path d="M0 0 C0.99 0.33 1.98 0.66 3 1 C3 2.98 3 4.96 3 7 C2.381 7.124 1.763 7.248 1.125 7.375 C-1.191 7.872 -1.191 7.872 -3 10 C-2.213 6.59 -1.129 3.311 0 0 Z " fill="#394560" transform="translate(43,84)"/>
<path d="M0 0 C1.65 0.33 3.3 0.66 5 1 C5.33 2.65 5.66 4.3 6 6 C5.01 6.495 5.01 6.495 4 7 C4 5.68 4 4.36 4 3 C2.02 3.33 0.04 3.66 -2 4 C-2.33 4.99 -2.66 5.98 -3 7 C-3.33 6.34 -3.66 5.68 -4 5 C-2.68 3.35 -1.36 1.7 0 0 Z " fill="#9093A2" transform="translate(52,65)"/>
<path d="M0 0 C0.66 1.32 1.32 2.64 2 4 C3.98 3.67 5.96 3.34 8 3 C8 3.99 8 4.98 8 6 C5.211 7.394 3.079 7.257 0 7 C-0.66 6.01 -1.32 5.02 -2 4 C-1.34 4 -0.68 4 0 4 C0 2.68 0 1.36 0 0 Z " fill="#5E6477" transform="translate(370,140)"/>
<path d="M0 0 C0.99 0.33 1.98 0.66 3 1 C2.67 3.31 2.34 5.62 2 8 C1.34 8 0.68 8 0 8 C-0.33 8.66 -0.66 9.32 -1 10 C-0.67 6.7 -0.34 3.4 0 0 Z M3 0 C4.65 0 6.3 0 8 0 C8 0.33 8 0.66 8 1 C6.35 1 4.7 1 3 1 C3 0.67 3 0.34 3 0 Z " fill="#838696" transform="translate(236,137)"/>
<path d="M0 0 C2.31 0 4.62 0 7 0 C7 0.33 7 0.66 7 1 C5.35 1 3.7 1 2 1 C1.67 3.31 1.34 5.62 1 8 C0.01 8 -0.98 8 -2 8 C-1.125 2.25 -1.125 2.25 0 0 Z " fill="#707588" transform="translate(385,129)"/>
<path d="M0 0 C0.66 0 1.32 0 2 0 C1.886 1.647 1.759 3.292 1.625 4.938 C1.521 6.312 1.521 6.312 1.414 7.715 C1.277 8.469 1.141 9.223 1 10 C0.01 10.495 0.01 10.495 -1 11 C-1.027 9.542 -1.046 8.083 -1.062 6.625 C-1.074 5.813 -1.086 5.001 -1.098 4.164 C-1 2 -1 2 0 0 Z " fill="#8E91A0" transform="translate(253,128)"/>
<path d="M0 0 C2.31 0 4.62 0 7 0 C7.33 1.65 7.66 3.3 8 5 C5.831 4.494 4 4 2 3 C2 2.34 2 1.68 2 1 C1.34 0.67 0.68 0.34 0 0 Z " fill="#898E9D" transform="translate(318,128)"/>
<path d="M0 0 C0.351 0.516 0.701 1.031 1.062 1.562 C3.095 3.401 3.095 3.401 6.688 2.688 C7.781 2.461 8.874 2.234 10 2 C9.34 3.32 8.68 4.64 8 6 C5.69 5.67 3.38 5.34 1 5 C0.67 3.35 0.34 1.7 0 0 Z " fill="#565C6F" transform="translate(261,141)"/>
<path d="M0 0 C0.33 0 0.66 0 1 0 C1 3.63 1 7.26 1 11 C0.67 11 0.34 11 0 11 C0 7.37 0 3.74 0 0 Z M4 9 C4.99 9.495 4.99 9.495 6 10 C5.01 10.495 5.01 10.495 4 11 C4 10.34 4 9.68 4 9 Z M1 11 C1.99 11 2.98 11 4 11 C3.67 12.32 3.34 13.64 3 15 C2.34 15 1.68 15 1 15 C1 13.68 1 12.36 1 11 Z " fill="#4C5369" transform="translate(357,131)"/>
<path d="M0 0 C2.25 -0.25 2.25 -0.25 5 0 C7.312 1.875 7.312 1.875 9 4 C9 4.66 9 5.32 9 6 C8.34 6 7.68 6 7 6 C7 5.34 7 4.68 7 4 C6.103 3.567 6.103 3.567 5.188 3.125 C3 2 3 2 0 0 Z M9 6 C9.66 6.66 10.32 7.32 11 8 C10.34 8 9.68 8 9 8 C9 7.34 9 6.68 9 6 Z " fill="#9B94A4" transform="translate(79,98)"/>
<path d="M0 0 C4.434 2.217 6.466 4.777 9 9 C8.67 9.66 8.34 10.32 8 11 C2.429 5.857 2.429 5.857 2 2 C1.34 2 0.68 2 0 2 C0 1.34 0 0.68 0 0 Z " fill="#C1A4B7" transform="translate(117,76)"/>
<path d="M0 0 C0.66 0 1.32 0 2 0 C2 0.99 2 1.98 2 3 C2.639 3.124 3.279 3.248 3.938 3.375 C4.618 3.581 5.299 3.787 6 4 C6.33 4.66 6.66 5.32 7 6 C5.02 6 3.04 6 1 6 C0.34 4.35 -0.32 2.7 -1 1 C-0.67 0.67 -0.34 0.34 0 0 Z " fill="#808494" transform="translate(313,142)"/>
<path d="M0 0 C1.945 2.918 2.453 4.625 3 8 C1.68 7.67 0.36 7.34 -1 7 C-1.625 4.625 -1.625 4.625 -2 2 C-1.34 1.34 -0.68 0.68 0 0 Z " fill="#888B9B" transform="translate(213,139)"/>
<path d="M0 0 C0.33 0 0.66 0 1 0 C1.222 1.456 1.427 2.915 1.625 4.375 C1.741 5.187 1.857 5.999 1.977 6.836 C1.984 7.55 1.992 8.264 2 9 C1.34 9.66 0.68 10.32 0 11 C-0.66 11 -1.32 11 -2 11 C-1.34 7.37 -0.68 3.74 0 0 Z " fill="#848897" transform="translate(231,133)"/>
<path d="M0 0 C1.98 0 3.96 0 6 0 C6.33 1.32 6.66 2.64 7 4 C4.69 3.34 2.38 2.68 0 2 C0 1.34 0 0.68 0 0 Z " fill="#878B9B" transform="translate(374,128)"/>
<path d="M0 0 C-1.245 0.677 -2.496 1.341 -3.75 2 C-4.446 2.371 -5.142 2.743 -5.859 3.125 C-8 4 -8 4 -12 4 C-10.72 1.441 -9.758 1.301 -7.125 0.312 C-6.077 -0.095 -6.077 -0.095 -5.008 -0.512 C-3 -1 -3 -1 0 0 Z " fill="#AA99AB" transform="translate(88,69)"/>
<path d="M0 0 C0.66 0.66 1.32 1.32 2 2 C3.988 2.398 5.989 2.738 8 3 C8 3.66 8 4.32 8 5 C5.36 5 2.72 5 0 5 C0 3.35 0 1.7 0 0 Z " fill="#6C7082" transform="translate(342,142)"/>
<path d="M0 0 C0.33 0.99 0.66 1.98 1 3 C2.65 3 4.3 3 6 3 C6 4.65 6 6.3 6 8 C5.34 7.67 4.68 7.34 4 7 C4 6.34 4 5.68 4 5 C2.35 5 0.7 5 -1 5 C-0.67 3.35 -0.34 1.7 0 0 Z " fill="#4A5269" transform="translate(207,134)"/>
<path d="M0 0 C0.33 0.66 0.66 1.32 1 2 C2.98 2 4.96 2 7 2 C6.67 2.66 6.34 3.32 6 4 C5.216 3.959 4.433 3.917 3.625 3.875 C0.839 3.713 0.839 3.713 -1 6 C-0.67 4.02 -0.34 2.04 0 0 Z M7 4 C7.33 4 7.66 4 8 4 C8 5.65 8 7.3 8 9 C7.67 9 7.34 9 7 9 C7 7.35 7 5.7 7 4 Z " fill="#4C5469" transform="translate(238,134)"/>
<path d="M0 0 C2 2 2 2 2.195 3.945 C2.13 5.964 2.065 7.982 2 10 C1.67 10 1.34 10 1 10 C0.67 6.7 0.34 3.4 0 0 Z M0 10 C0.33 10.99 0.66 11.98 1 13 C-0.485 13.99 -0.485 13.99 -2 15 C-1.125 11.125 -1.125 11.125 0 10 Z " fill="#4E556A" transform="translate(338,130)"/>
<path d="M0 0 C0.66 0 1.32 0 2 0 C1.67 1.98 1.34 3.96 1 6 C-0.98 6 -2.96 6 -5 6 C-4.361 5.567 -3.721 5.134 -3.062 4.688 C-0.733 3.088 -0.733 3.088 0 0 Z " fill="#535A6F" transform="translate(321,141)"/>
<path d="M0 0 C1.65 0 3.3 0 5 0 C5 0.99 5 1.98 5 3 C3.35 3.33 1.7 3.66 0 4 C0 2.68 0 1.36 0 0 Z " fill="#E7E9EF" transform="translate(241,131)"/>
<path d="M0 0 C3.937 1.312 6.227 2.919 9 6 C5.597 4.941 2.986 3.991 0 2 C0 1.34 0 0.68 0 0 Z " fill="#BDA4B6" transform="translate(108,70)"/>
<path d="M0 0 C0.33 0.66 0.66 1.32 1 2 C3.527 2.656 3.527 2.656 6 3 C5.67 3.99 5.34 4.98 5 6 C5 5.34 5 4.68 5 4 C3.35 4 1.7 4 0 4 C0 2.68 0 1.36 0 0 Z " fill="#999CAA" transform="translate(373,132)"/>
<path d="M0 0 C1.454 0.031 1.454 0.031 2.938 0.062 C2.607 1.053 2.278 2.042 1.938 3.062 C0.287 3.393 -1.363 3.722 -3.062 4.062 C-3.393 3.072 -3.722 2.083 -4.062 1.062 C-3.062 0.062 -3.062 0.062 0 0 Z " fill="#8B8E9E" transform="translate(228.0625,127.9375)"/>
<path d="M0 0 C2.296 3.445 2.54 5.938 3 10 C1.5 8.938 1.5 8.938 0 7 C-0.188 3.312 -0.188 3.312 0 0 Z " fill="#7B8092" transform="translate(45,114)"/>
<path d="M0 0 C2.007 0.287 4.009 0.619 6 1 C6 1.33 6 1.66 6 2 C4.35 2 2.7 2 1 2 C0.67 2.99 0.34 3.98 0 5 C-0.562 3.062 -0.562 3.062 -1 1 C-0.67 0.67 -0.34 0.34 0 0 Z " fill="#727687" transform="translate(298,129)"/>
<path d="M0 0 C0.66 0 1.32 0 2 0 C2.33 1.32 2.66 2.64 3 4 C1.02 4.99 1.02 4.99 -1 6 C-0.67 4.02 -0.34 2.04 0 0 Z " fill="#767B8E" transform="translate(40,85)"/>
<path d="M0 0 C1.98 0.66 3.96 1.32 6 2 C5.34 2.66 4.68 3.32 4 4 C1.875 3.625 1.875 3.625 0 3 C0 2.01 0 1.02 0 0 Z " fill="#686C7F" transform="translate(294,143)"/>
<path d="M0 0 C0.33 0.66 0.66 1.32 1 2 C0.066 4.031 -0.932 6.035 -2 8 C-2.33 8 -2.66 8 -3 8 C-3.369 3.446 -3.369 3.446 -1.5 1.188 C-1.005 0.796 -0.51 0.404 0 0 Z " fill="#5D6376" transform="translate(224,130)"/>
<path d="M0 0 C0.925 3.702 1.082 4.635 0 8 C-0.66 8 -1.32 8 -2 8 C-1.34 5.36 -0.68 2.72 0 0 Z " fill="#7D8193" transform="translate(142,118)"/>
<path d="M0 0 C1.461 2.647 2 3.894 2 7 C0.68 6.34 -0.64 5.68 -2 5 C-1.34 4.67 -0.68 4.34 0 4 C0 2.68 0 1.36 0 0 Z " fill="#818595" transform="translate(370,140)"/>
<path d="M0 0 C0.66 0 1.32 0 2 0 C1.34 1.98 0.68 3.96 0 6 C-0.66 5.67 -1.32 5.34 -2 5 C-1.34 3.35 -0.68 1.7 0 0 Z " fill="#6B7082" transform="translate(367,129)"/>
<path d="M0 0 C0.99 0.33 1.98 0.66 3 1 C4.188 3.562 4.188 3.562 5 6 C4.34 6 3.68 6 3 6 C0 2.538 0 2.538 0 0 Z " fill="#B9A3B5" transform="translate(80,107)"/>
<path d="M0 0 C0.66 0.33 1.32 0.66 2 1 C2.625 3.062 2.625 3.062 3 5 C1.68 5 0.36 5 -1 5 C-0.67 3.35 -0.34 1.7 0 0 Z " fill="#4C556B" transform="translate(70,54)"/>
<path d="M0 0 C1.562 1.25 1.562 1.25 3 3 C2.688 5.188 2.688 5.188 2 7 C2 6.01 2 5.02 2 4 C1.01 3.67 0.02 3.34 -1 3 C-0.67 2.01 -0.34 1.02 0 0 Z " fill="#7A7E90" transform="translate(321,137)"/>
<path d="M0 0 C0.66 0.33 1.32 0.66 2 1 C1.34 2.32 0.68 3.64 0 5 C-0.99 4.67 -1.98 4.34 -3 4 C-2.01 2.68 -1.02 1.36 0 0 Z " fill="#777A8B" transform="translate(331,129)"/>
<path d="M0 0 C1.98 0 3.96 0 6 0 C6 0.99 6 1.98 6 3 C4.02 2.34 2.04 1.68 0 1 C0 0.67 0 0.34 0 0 Z " fill="#717789" transform="translate(268,129)"/>
<path d="M0 0 C0.66 1.32 1.32 2.64 2 4 C1.34 4.66 0.68 5.32 0 6 C-0.382 4.344 -0.714 2.675 -1 1 C-0.67 0.67 -0.34 0.34 0 0 Z " fill="#7E8292" transform="translate(262,137)"/>
<path d="M0 0 C1.062 1.875 1.062 1.875 2 4 C1.67 4.66 1.34 5.32 1 6 C0.34 5.67 -0.32 5.34 -1 5 C-0.67 3.35 -0.34 1.7 0 0 Z " fill="#727688" transform="translate(202,132)"/>
<path d="M0 0 C0.99 0 1.98 0 3 0 C3 0.66 3 1.32 3 2 C2.34 2 1.68 2 1 2 C0.67 2.99 0.34 3.98 0 5 C-0.562 3.062 -0.562 3.062 -1 1 C-0.67 0.67 -0.34 0.34 0 0 Z " fill="#6B6F81" transform="translate(317,129)"/>
<path d="M0 0 C1.98 0.66 3.96 1.32 6 2 C6 2.33 6 2.66 6 3 C4.35 3 2.7 3 1 3 C0.67 2.01 0.34 1.02 0 0 Z " fill="#3C465E" transform="translate(89,112)"/>
<path d="M0 0 C1.485 0.99 1.485 0.99 3 2 C2.67 2.99 2.34 3.98 2 5 C1.34 4.67 0.68 4.34 0 4 C0 2.68 0 1.36 0 0 Z " fill="#444E67" transform="translate(281,138)"/>
<path d="M0 0 C0.99 0.33 1.98 0.66 3 1 C2.67 1.66 2.34 2.32 2 3 C1.34 3 0.68 3 0 3 C0 2.01 0 1.02 0 0 Z " fill="#7D8090" transform="translate(334,144)"/>
<path d="M0 0 C0.66 0 1.32 0 2 0 C2 1.32 2 2.64 2 4 C1.34 4 0.68 4 0 4 C-0.33 3.01 -0.66 2.02 -1 1 C-0.67 0.67 -0.34 0.34 0 0 Z " fill="#454E66" transform="translate(112,94)"/>
<path d="M0 0 C1.98 0.99 1.98 0.99 4 2 C2.68 2 1.36 2 0 2 C0 1.34 0 0.68 0 0 Z " fill="#B09CAE" transform="translate(108,70)"/>
<path d="M0 0 C0.66 0.66 1.32 1.32 2 2 C0.515 2.99 0.515 2.99 -1 4 C-0.67 2.68 -0.34 1.36 0 0 Z " fill="#646A7C" transform="translate(337,141)"/>
<path d="M0 0 C0.33 0.99 0.66 1.98 1 3 C0.01 3 -0.98 3 -2 3 C-1.34 2.01 -0.68 1.02 0 0 Z " fill="#37435D" transform="translate(291,130)"/>
<path d="M0 0 C0.99 0.33 1.98 0.66 3 1 C3 1.66 3 2.32 3 3 C2.01 2.67 1.02 2.34 0 2 C0 1.34 0 0.68 0 0 Z " fill="#C0A3B6" transform="translate(127,92)"/>
<path d="M0 0 C0.66 0 1.32 0 2 0 C1.67 0.99 1.34 1.98 1 3 C0.34 2.34 -0.32 1.68 -1 1 C-0.67 0.67 -0.34 0.34 0 0 Z " fill="#64697C" transform="translate(269,143)"/>
<path d="M0 0 C0.66 0 1.32 0 2 0 C1.67 0.99 1.34 1.98 1 3 C0.34 2.34 -0.32 1.68 -1 1 C-0.67 0.67 -0.34 0.34 0 0 Z " fill="#777A8B" transform="translate(393,138)"/>
<path d="M0 0 C0.66 0 1.32 0 2 0 C1.67 0.99 1.34 1.98 1 3 C0.34 2.34 -0.32 1.68 -1 1 C-0.67 0.67 -0.34 0.34 0 0 Z " fill="#696D7F" transform="translate(265,130)"/>
</svg>