<?xml version="1.0" encoding="UTF-8"?>
<svg version="1.1" xmlns="http://www.w3.org/2000/svg" width="500" height="500">
<path d="M0 0 C165 0 330 0 500 0 C500 165 500 330 500 500 C335 500 170 500 0 500 C0 335 0 170 0 0 Z " fill="#FEFEFE" transform="translate(0,0)"/>
<path d="M0 0 C2.01891858 1.43713098 3.81307961 2.93887462 5.609375 4.64453125 C6.42148438 5.41410156 6.42148438 5.41410156 7.25 6.19921875 C14.94388751 14.32054446 17.33635177 23.15335964 17.1262207 34.08129883 C16.57500593 45.63003928 12.03988011 52.79590691 3.609375 60.64453125 C-6.3505005 68.69224367 -16.98136144 69.88950377 -29.390625 68.64453125 C-32.81691312 67.81046941 -35.45640584 66.57872062 -38.390625 64.64453125 C-39.08414063 64.19722656 -39.77765625 63.74992187 -40.4921875 63.2890625 C-48.82218161 57.47054602 -54.49772941 50.25397152 -56.9765625 40.2890625 C-58.8555107 28.28861032 -57.26863266 18.69758069 -50.140625 8.89453125 C-37.41343091 -6.36195723 -17.42528242 -9.88002124 0 0 Z " fill="#E0A4B5" transform="translate(134.390625,211.35546875)"/>
<path d="M0 0 C1.31629395 -0.0151062 1.31629395 -0.0151062 2.65917969 -0.03051758 C15.73075971 0.14109255 26.21402324 5.28857366 35.75 14.125 C46.06629946 25.11916719 50.2126632 38.09327161 49.8515625 52.98046875 C48.61184114 65.1710621 42.48926829 77.12666705 33.5 85.4375 C26.70830092 90.62119556 19.61512932 93.8878141 11.5 96.4375 C10.51 96.7675 9.52 97.0975 8.5 97.4375 C-7.40317031 98.65315588 -20.4088566 94.88991071 -32.78515625 84.5234375 C-37.5423226 80.05970384 -40.83375029 75.37725913 -43.5 69.4375 C-43.89316406 68.58929688 -44.28632812 67.74109375 -44.69140625 66.8671875 C-48.87026545 56.41275927 -49.50433495 43.19976822 -45.9375 32.4375 C-43.46982094 26.8545949 -40.56280282 21.01554393 -36.5 16.4375 C-33.77734375 15.6328125 -33.77734375 15.6328125 -31.5 15.4375 C-30.828125 17.1640625 -30.828125 17.1640625 -30.5 19.4375 C-31.609375 21.5859375 -31.609375 21.5859375 -33.25 23.8125 C-40.26136955 33.76150356 -42.93766292 43.4816843 -41.1875 55.6015625 C-38.34363736 68.34816112 -31.43238328 78.34135665 -20.5 85.4375 C-10.20192654 90.96329551 0.85077772 92.09177795 12.25 89.25 C17.94173542 87.49421612 23.89262588 85.09501593 28.125 80.78125 C29.5 79.4375 29.5 79.4375 31.5 79.4375 C31.9021875 78.58478516 31.9021875 78.58478516 32.3125 77.71484375 C33.96738717 74.5411621 36.02093167 71.68866073 38.0625 68.75390625 C43.4569984 60.06114116 43.71730825 48.59692308 42.0390625 38.7265625 C39.29823022 28.50487036 33.31061915 18.58948875 24.1484375 13.00390625 C21.63720002 11.69386441 19.10851993 10.53986214 16.5 9.4375 C15.79101562 9.11652344 15.08203125 8.79554688 14.3515625 8.46484375 C5.67349895 4.99684438 -3.96249615 5.1647044 -12.625 8.5 C-13.47320312 8.88285156 -14.32140625 9.26570312 -15.1953125 9.66015625 C-17.78122302 10.53235319 -18.97486798 10.36260597 -21.5 9.4375 C-20.98428316 4.86430511 -20.98428316 4.86430511 -18.953125 3.07421875 C-12.69475324 0.37779262 -6.72230388 0.05024585 0 0 Z " fill="#3F5173" transform="translate(113.5,194.5625)"/>
<path d="M0 0 C3.64645171 2.71050415 6.35271572 5.48640691 7.5625 9.9375 C8.31915664 17.32142517 8.67959674 24.56264054 4.5625 30.9375 C-0.51921895 36.08979838 -3.79815534 38.10206159 -11.125 38.25 C-17.26930436 38.19339945 -20.69216325 37.85756079 -25.4375 33.9375 C-30.85062598 26.9574165 -31.31646768 20.55737623 -30.4375 11.9375 C-28.40045131 5.8351343 -25.23095128 1.8958581 -19.4375 -1.0625 C-13.06631583 -3.02080082 -5.89118914 -3.37113074 0 0 Z " fill="#060606" transform="translate(290.4375,198.0625)"/>
<path d="M0 0 C4.2623631 3.11880227 7.54824896 6.93741118 9.5625 11.875 C10.51284994 19.51095126 9.82334105 26.35923332 5.5625 32.875 C1.10711558 37.33038442 -3.54666374 39.16056947 -9.8125 39.1875 C-15.39993653 39.05983008 -19.72405314 38.46125404 -23.9375 34.4453125 C-28.99407444 28.67047465 -28.94396087 22.98379529 -28.7734375 15.62109375 C-28.22352822 9.48896588 -26.12775873 6.39750588 -21.74609375 2.2890625 C-15.30187207 -2.58110086 -7.45939671 -2.44125711 0 0 Z " fill="#050505" transform="translate(246.4375,197.125)"/>
<path d="M0 0 C5.74273255 3.33078488 8.37084649 6.44984668 10.125 12.8125 C10.9695508 19.97784679 11.04146818 26.2793866 6.625 32.2265625 C1.91186493 37.20972093 -2.87476919 38.96486107 -9.5625 39.1875 C-15.56559299 39.11491121 -19.54996153 38.06476138 -23.875 33.8125 C-28.07769363 28.64270925 -28.4404946 23.13759037 -28.1953125 16.6484375 C-27.33109609 8.9969605 -23.48914614 4.89515406 -17.75 0 C-12.21225409 -2.28732983 -5.60693863 -2.15178566 0 0 Z " fill="#050505" transform="translate(330.875,197.1875)"/>
<path d="M0 0 C2.01891858 1.43713098 3.81307961 2.93887462 5.609375 4.64453125 C6.42148438 5.41410156 6.42148438 5.41410156 7.25 6.19921875 C14.94388751 14.32054446 17.33635177 23.15335964 17.1262207 34.08129883 C16.57500593 45.63003928 12.03988011 52.79590691 3.609375 60.64453125 C-6.3505005 68.69224367 -16.98136144 69.88950377 -29.390625 68.64453125 C-32.81691312 67.81046941 -35.45640584 66.57872062 -38.390625 64.64453125 C-39.08414063 64.19722656 -39.77765625 63.74992187 -40.4921875 63.2890625 C-48.82218161 57.47054602 -54.49772941 50.25397152 -56.9765625 40.2890625 C-58.8555107 28.28861032 -57.26863266 18.69758069 -50.140625 8.89453125 C-37.41343091 -6.36195723 -17.42528242 -9.88002124 0 0 Z M-36.390625 4.64453125 C-37.30908203 5.13566406 -37.30908203 5.13566406 -38.24609375 5.63671875 C-44.37617063 9.34453567 -49.17516054 16.22529919 -51.06640625 23.1015625 C-52.37326851 33.35177128 -51.85653209 42.22266991 -45.84765625 50.86328125 C-39.96684433 58.07635949 -32.71389442 62.87654794 -23.3046875 63.86328125 C-13.57166436 64.27309275 -5.53517008 61.18985642 1.609375 54.64453125 C8.09655843 48.37800032 11.6603397 40.56289618 11.859375 31.45703125 C11.6930015 22.21573943 8.0167891 15.21243935 1.609375 8.64453125 C-9.45151628 -0.35807244 -23.78209672 -2.98628146 -36.390625 4.64453125 Z " fill="#3D4F71" transform="translate(134.390625,211.35546875)"/>
<path d="M0 0 C-0.11811006 4.80567423 -0.24234823 9.61113568 -0.37231445 14.41650391 C-0.41567538 16.05187653 -0.45734961 17.68729477 -0.49731445 19.32275391 C-0.55498912 21.67103841 -0.61869129 24.01909304 -0.68359375 26.3671875 C-0.70866249 27.46726639 -0.70866249 27.46726639 -0.73423767 28.58956909 C-0.88612829 33.77225659 -0.88612829 33.77225659 -2 36 C-5.87918356 37.31745857 -8.88375865 38 -13 38 C-12.85980449 33.68729764 -12.71181808 29.37489539 -12.5625 25.0625 C-12.52318359 23.85013672 -12.48386719 22.63777344 -12.44335938 21.38867188 C-12.2138853 14.87513852 -11.82995185 8.46525519 -11 2 C-7.12315913 0.80712589 -4.08378077 0 0 0 Z " fill="#090909" transform="translate(213,197)"/>
<path d="M0 0 C2.61593153 1.83115207 2.96989455 2.90968366 4 6 C4.91242938 17.33518036 4.91242938 17.33518036 1 22 C-1 24 -1 24 -4.4375 24.375 C-8 24 -8 24 -9.875 22.1875 C-12.57326965 16.94086457 -12.49011469 11.77997323 -12 6 C-9.30102904 -0.13402492 -6.48434399 -0.45504168 0 0 Z " fill="#F9F9F9" transform="translate(326,204)"/>
<path d="M0 0 C3.6875 0.375 3.6875 0.375 6.125 2.125 C8.53255209 7.13270835 8.31432384 11.91794537 7.6875 17.375 C5.625 22.90625 5.625 22.90625 2.6875 24.375 C-0.75 24.6875 -0.75 24.6875 -4.3125 24.375 C-7.79230888 21.01118475 -8.48785382 17.26156134 -8.625 12.5625 C-8.58982793 6.54807619 -6.56647904 0.74337499 0 0 Z " fill="#F8F8F8" transform="translate(279.3125,203.625)"/>
<path d="M0 0 C3.22366446 3.22366446 4.25450257 5.9845625 4.4375 10.4375 C4.19689298 15.71303176 2.8114286 20.1885714 -1 24 C-7.1954023 24.56321839 -7.1954023 24.56321839 -9.875 22.6875 C-12.14649027 19.28026459 -12.1904695 16.10362208 -12.25 12.125 C-12.28867188 10.58199219 -12.28867188 10.58199219 -12.328125 9.0078125 C-11.95503198 5.58779313 -11.03027507 3.74974147 -9 1 C-5.83263796 -0.58368102 -3.4846985 -0.42056706 0 0 Z " fill="#F9F9F9" transform="translate(241,204)"/>
<path d="M0 0 C2.31 0 4.62 0 7 0 C7 2.31 7 4.62 7 7 C9.31 7 11.62 7 14 7 C14.04241723 9.33294775 14.04092937 11.66702567 14 14 C13 15 13 15 9.4375 15.0625 C8.303125 15.041875 7.16875 15.02125 6 15 C6 17.31 6 19.62 6 22 C3.36 22 0.72 22 -2 22 C-2 19.69 -2 17.38 -2 15 C-3.98 15 -5.96 15 -8 15 C-7.67 12.36 -7.34 9.72 -7 7 C-4.69 7 -2.38 7 0 7 C0 4.69 0 2.38 0 0 Z " fill="#0A0A0A" transform="translate(353,206)"/>
<path d="M0 0 C0.5465625 0.27585938 1.093125 0.55171875 1.65625 0.8359375 C1.32975921 6.17851403 -1.60800985 8.60467855 -5.28125 12.0859375 C-5.83232422 12.62734375 -6.38339844 13.16875 -6.95117188 13.7265625 C-12.00448377 18.63865182 -12.00448377 18.63865182 -16.1015625 19.2421875 C-20.46502554 18.69544032 -22.3993585 16.45412321 -25.21875 13.3359375 C-25.71632813 12.81128906 -26.21390625 12.28664062 -26.7265625 11.74609375 C-27.94638915 10.45589248 -29.14705249 9.14762018 -30.34375 7.8359375 C-29.68375 6.5159375 -29.02375 5.1959375 -28.34375 3.8359375 C-23.8022741 4.53309389 -22.02515317 7.10232385 -19.125 10.4375 C-17.47504045 12.01644447 -17.47504045 12.01644447 -15.46875 11.8984375 C-11.72723353 10.02767927 -9.16600737 6.68811876 -6.41015625 3.609375 C-2.83068787 -0.19814815 -2.83068787 -0.19814815 0 0 Z " fill="#3D4D70" transform="translate(129.34375,234.1640625)"/>
<path d="M0 0 C1.423125 0.2475 1.423125 0.2475 2.875 0.5 C5.38750583 4.26875875 5.40516086 6.03150134 4.875 10.5 C3.47689047 13.14600895 2.16247722 14.41585409 -0.125 16.5 C-2.8125 17.0625 -2.8125 17.0625 -5.125 16.5 C-7.59272206 12.7984169 -7.79329025 9.79376485 -7.125 5.5 C-5.10895056 1.77806258 -4.21371532 0.67419445 0 0 Z " fill="#F2F3F6" transform="translate(320.125,263.5)"/>
<path d="M0 0 C2.375 0.4375 2.375 0.4375 4.375 2.4375 C5.13538137 6.9378967 4.8948062 10.494148 2.6875 14.5 C0.375 16.4375 0.375 16.4375 -2.1875 17 C-4.625 16.4375 -4.625 16.4375 -6.5 14.875 C-8.13509299 11.33229853 -7.6071211 9.16956019 -6.625 5.4375 C-3.75885827 0.62647638 -3.75885827 0.62647638 0 0 Z " fill="#F2F3F5" transform="translate(228.625,263.5625)"/>
<path d="M0 0 C2.875 -0.125 2.875 -0.125 6 0 C8 2 8 2 8.3125 5.3125 C7.98354921 9.19411929 7.35208803 10.95099699 5 14 C1.5647952 16.29013653 0.014669 16.17842973 -4 16 C-3.6083965 10.04492601 -2.62875405 5.37180176 0 0 Z " fill="#586886" transform="translate(363,264)"/>
<path d="M0 0 C1.134375 0.020625 2.26875 0.04125 3.4375 0.0625 C4.0625 1.875 4.0625 1.875 4.4375 4.0625 C3.4475 5.5475 3.4475 5.5475 2.4375 7.0625 C2.458125 8.0525 2.47875 9.0425 2.5 10.0625 C2.4375 13.0625 2.4375 13.0625 1.3125 14.9375 C-1.34284983 16.5307099 -3.53039518 16.26464032 -6.5625 16.0625 C-7.85552919 12.43339807 -7.24927944 10.02304037 -6.1875 6.375 C-5.91164062 5.40175781 -5.63578125 4.42851562 -5.3515625 3.42578125 C-4.11706045 -0.2716135 -4.17476749 0.07324153 0 0 Z " fill="#98A2B4" transform="translate(241.5625,263.9375)"/>
<path d="M0 0 C0.99 0.33 1.98 0.66 3 1 C4.1875 4.5625 4.1875 4.5625 5 8 C5.40992188 7.4225 5.81984375 6.845 6.2421875 6.25 C6.78101563 5.5075 7.31984375 4.765 7.875 4 C8.40867187 3.2575 8.94234375 2.515 9.4921875 1.75 C10.23855469 0.88375 10.23855469 0.88375 11 0 C11.66 0 12.32 0 13 0 C12.71937057 2.48088355 12.42609401 4.95909185 12.125 7.4375 C12.00705078 8.49807617 12.00705078 8.49807617 11.88671875 9.58007812 C11.66072324 11.39673432 11.33699273 13.20062522 11 15 C10.01 15.495 10.01 15.495 9 16 C9 13.03 9 10.06 9 7 C8.071875 8.485 8.071875 8.485 7.125 10 C6.42375 10.99 5.7225 11.98 5 13 C4.34 13 3.68 13 3 13 C2.67 11.02 2.34 9.04 2 7 C1.34 7 0.68 7 0 7 C-0.33 9.64 -0.66 12.28 -1 15 C-1.99 15.33 -2.98 15.66 -4 16 C-3.39891424 10.34979382 -1.92471317 5.33835539 0 0 Z " fill="#4B5C7C" transform="translate(271,264)"/>
<path d="M0 0 C3.375 -0.125 3.375 -0.125 7 0 C7.66 0.66 8.32 1.32 9 2 C8.625 4.625 8.625 4.625 8 7 C7.01 7.33 6.02 7.66 5 8 C5.66 10.64 6.32 13.28 7 16 C6.34 16 5.68 16 5 16 C4.34 13.69 3.68 11.38 3 9 C2.01 9.33 1.02 9.66 0 10 C-1.22520264 13.00847418 -1.22520264 13.00847418 -2 16 C-2.33 16 -2.66 16 -3 16 C-2.57910004 10.39538469 -2.08386889 5.27913453 0 0 Z " fill="#526381" transform="translate(211,264)"/>
<path d="M0 0 C2.33294775 -0.04241723 4.66702567 -0.04092937 7 0 C8 1 8 1 8.25 3.375 C8 6 8 6 6.875 7.8125 C4.22464043 9.49106106 2.06753576 9.20450238 -1 9 C-1.99 12.465 -1.99 12.465 -3 16 C-3.33 16 -3.66 16 -4 16 C-3.65697965 10.01488629 -3.17692157 5.24882694 0 0 Z " fill="#506180" transform="translate(200,264)"/>
<path d="M0 0 C-0.33 0.66 -0.66 1.32 -1 2 C-2.32 2 -3.64 2 -5 2 C-5.33 2.66 -5.66 3.32 -6 4 C-4.68 4 -3.36 4 -2 4 C-2.33 5.32 -2.66 6.64 -3 8 C-4.65 8.33 -6.3 8.66 -8 9 C-8 9.99 -8 10.98 -8 12 C-6.02 11.67 -4.04 11.34 -2 11 C-2.66 12.32 -3.32 13.64 -4 15 C-6.375 15.125 -6.375 15.125 -9 15 C-11 13 -11 13 -11.375 10.875 C-10.84666929 6.82446454 -9.19703453 3.43186416 -7 0 C-4.3333581 -1.33332095 -2.83319697 -0.67102033 0 0 Z " fill="#5B6A88" transform="translate(267,265)"/>
<path d="M0 0 C1.423125 0.2475 1.423125 0.2475 2.875 0.5 C5.38750583 4.26875875 5.40516086 6.03150134 4.875 10.5 C3.47689047 13.14600895 2.16247722 14.41585409 -0.125 16.5 C-2.8125 17.0625 -2.8125 17.0625 -5.125 16.5 C-7.59272206 12.7984169 -7.79329025 9.79376485 -7.125 5.5 C-5.10895056 1.77806258 -4.21371532 0.67419445 0 0 Z M-1.125 1.5 C-3.29158535 2.99479421 -3.29158535 2.99479421 -5.125 5.5 C-5.48300135 8.25871627 -5.31160165 10.70097524 -5.125 13.5 C-2.65 13.995 -2.65 13.995 -0.125 14.5 C2.36272258 11.2162062 2.90680444 9.88801417 2.5625 5.6875 C2.2221875 4.1096875 2.2221875 4.1096875 1.875 2.5 C0.885 2.17 -0.105 1.84 -1.125 1.5 Z " fill="#5B6B88" transform="translate(320.125,263.5)"/>
<path d="M0 0 C0.78375 0.04125 1.5675 0.0825 2.375 0.125 C2.375 1.115 2.375 2.105 2.375 3.125 C0.725 3.455 -0.925 3.785 -2.625 4.125 C-1.305 4.785 0.015 5.445 1.375 6.125 C1.375 6.785 1.375 7.445 1.375 8.125 C-0.605 8.455 -2.585 8.785 -4.625 9.125 C-4.625 10.445 -4.625 11.765 -4.625 13.125 C-2.645 12.795 -0.665 12.465 1.375 12.125 C0.715 13.445 0.055 14.765 -0.625 16.125 C-3 16.25 -3 16.25 -5.625 16.125 C-7.625 14.125 -7.625 14.125 -7.9375 11.9375 C-7.38208373 6.93875359 -5.75449198 0.27402343 0 0 Z " fill="#48597A" transform="translate(355.625,263.875)"/>
<path d="M0 0 C2.375 0.4375 2.375 0.4375 4.375 2.4375 C5.13538137 6.9378967 4.8948062 10.494148 2.6875 14.5 C0.375 16.4375 0.375 16.4375 -2.1875 17 C-4.625 16.4375 -4.625 16.4375 -6.5 14.875 C-8.13509299 11.33229853 -7.6071211 9.16956019 -6.625 5.4375 C-3.75885827 0.62647638 -3.75885827 0.62647638 0 0 Z M-1.625 1.4375 C-4.2433364 4.21948242 -5.54699358 5.77444545 -6 9.625 C-5.89708703 12.57037971 -5.89708703 12.57037971 -3.625 14.4375 C-2.305 14.4375 -0.985 14.4375 0.375 14.4375 C2.97518816 10.53721775 2.52585514 6.96315431 2.375 2.4375 C1.055 2.1075 -0.265 1.7775 -1.625 1.4375 Z " fill="#526281" transform="translate(228.625,263.5625)"/>
<path d="M0 0 C2.625 0.375 2.625 0.375 5 1 C5.33 2.32 5.66 3.64 6 5 C5.34 5 4.68 5 4 5 C4 4.34 4 3.68 4 3 C2.35 3 0.7 3 -1 3 C0.52206009 5.62901288 1.84365964 7.84365964 4 10 C4.25 12.5 4.25 12.5 4 15 C2 17 2 17 -1.125 17.125 C-2.548125 17.063125 -2.548125 17.063125 -4 17 C-4.66 15.68 -5.32 14.36 -6 13 C-3.69 13.33 -1.38 13.66 1 14 C0.56671758 11.48696195 0.3219867 10.28483439 -1.625 8.5625 C-2.07875 8.046875 -2.5325 7.53125 -3 7 C-2.75546876 3.65807308 -2.39456443 2.39456443 0 0 Z " fill="#465778" transform="translate(306,263)"/>
<path d="M0 0 C2.0625 0.1875 2.0625 0.1875 4 1 C4.33 1.99 4.66 2.98 5 4 C2.03 3.505 2.03 3.505 -1 3 C0.52206009 5.62901288 1.84365964 7.84365964 4 10 C3.43181818 15.56818182 3.43181818 15.56818182 2 17 C0.00041636 17.04080783 -2.00045254 17.04254356 -4 17 C-4.66 15.68 -5.32 14.36 -6 13 C-3.69 13.66 -1.38 14.32 1 15 C-0.26974972 10.58477891 -0.26974972 10.58477891 -3 7 C-2.67028521 3.70285207 -2.3773161 2.3773161 0 0 Z " fill="#576785" transform="translate(290,263)"/>
<path d="M0 0 C0.66 0 1.32 0 2 0 C2.33 3.63 2.66 7.26 3 11 C4.98 7.37 6.96 3.74 9 0 C9.66 0 10.32 0 11 0 C9.42986223 5.96652354 6.24970218 10.82909025 3 16 C2.01 15.67 1.02 15.34 0 15 C0 10.05 0 5.1 0 0 Z " fill="#516180" transform="translate(338,264)"/>
<path d="M0 0 C1.65 0 3.3 0 5 0 C5.36300778 6.29213483 5.36300778 6.29213483 3.75 9.4375 C2 11 2 11 -2 11 C-1.85892253 9.54119891 -1.71197585 8.08296449 -1.5625 6.625 C-1.48128906 5.81289063 -1.40007812 5.00078125 -1.31640625 4.1640625 C-1 2 -1 2 0 0 Z " fill="#F3F4F6" transform="translate(364,266)"/>
<path d="M0 0 C0.99 0.33 1.98 0.66 3 1 C3.33 3.31 3.66 5.62 4 8 C2.68 7.67 1.36 7.34 0 7 C-0.33 9.64 -0.66 12.28 -1 15 C-1.99 15.33 -2.98 15.66 -4 16 C-3.39891424 10.34979382 -1.92471317 5.33835539 0 0 Z " fill="#5E6D8A" transform="translate(271,264)"/>
<path d="M0 0 C0.66 0 1.32 0 2 0 C1.28547412 4.76350585 0.20465156 9.34201396 -1 14 C0.65 14 2.3 14 4 14 C4 14.66 4 15.32 4 16 C1.69 16 -0.62 16 -3 16 C-2.57910004 10.39538469 -2.08386889 5.27913453 0 0 Z " fill="#5F6E8A" transform="translate(329,264)"/>
<path d="M0 0 C1.25127906 3.54667178 0.72285053 5.72253438 -0.4375 9.25 C-0.72496094 10.14203125 -1.01242188 11.0340625 -1.30859375 11.953125 C-1.53675781 12.62859375 -1.76492187 13.3040625 -2 14 C-0.02 14 1.96 14 4 14 C4 14.66 4 15.32 4 16 C1.36 16 -1.28 16 -4 16 C-3.47606294 10.13190493 -2.23891142 5.45126259 0 0 Z " fill="#5A6A87" transform="translate(250,264)"/>
<path d="M0 0 C3.0625 0.1875 3.0625 0.1875 5.0625 2.1875 C5.1875 5.8125 5.1875 5.8125 5.0625 9.1875 C4.4025 9.1875 3.7425 9.1875 3.0625 9.1875 C3.0625 6.8775 3.0625 4.5675 3.0625 2.1875 C1.4125 2.1875 -0.2375 2.1875 -1.9375 2.1875 C-2.5975 4.4975 -3.2575 6.8075 -3.9375 9.1875 C-4.2675 9.1875 -4.5975 9.1875 -4.9375 9.1875 C-3.94464286 0.25178571 -3.94464286 0.25178571 0 0 Z " fill="#445677" transform="translate(365.9375,263.8125)"/>
<path d="M0 0 C0.66 0.33 1.32 0.66 2 1 C1.38454214 3.31543614 0.75821964 5.62692196 0.125 7.9375 C-0.04902344 8.59685547 -0.22304687 9.25621094 -0.40234375 9.93554688 C-0.87476237 11.641503 -1.43215028 13.32339261 -2 15 C-2.99 15.495 -2.99 15.495 -4 16 C-3.65697965 10.01488629 -3.17692157 5.24882694 0 0 Z " fill="#4C5D7D" transform="translate(200,264)"/>
<path d="M0 0 C0.99 0.33 1.98 0.66 3 1 C3.125 3.375 3.125 3.375 3 6 C1 8 1 8 -2.125 8.125 C-3.07375 8.08375 -4.0225 8.0425 -5 8 C-5.66 6.68 -6.32 5.36 -7 4 C-4.69 4.33 -2.38 4.66 0 5 C0 3.35 0 1.7 0 0 Z " fill="#4B5C7C" transform="translate(307,272)"/>
<path d="M0 0 C1.134375 0.020625 2.26875 0.04125 3.4375 0.0625 C3.7675 1.3825 4.0975 2.7025 4.4375 4.0625 C3.1175 5.0525 1.7975 6.0425 0.4375 7.0625 C1.0975 5.4125 1.7575 3.7625 2.4375 2.0625 C0.7875 2.0625 -0.8625 2.0625 -2.5625 2.0625 C-3.2225 3.3825 -3.8825 4.7025 -4.5625 6.0625 C-4.605221 4.39638095 -4.60313832 2.72867115 -4.5625 1.0625 C-3.5625 0.0625 -3.5625 0.0625 0 0 Z " fill="#516180" transform="translate(241.5625,263.9375)"/>
<path d="M0 0 C0.33 0 0.66 0 1 0 C1.22223194 2.74086056 1.34781139 4.43963721 -0.125 6.8125 C-2.77535957 8.49106106 -4.93246424 8.20450238 -8 8 C-8.33 6.68 -8.66 5.36 -9 4 C-8.34 3.67 -7.68 3.34 -7 3 C-7 3.99 -7 4.98 -7 6 C-3.18586998 4.8321734 -3.18586998 4.8321734 -0.6875 1.875 C-0.460625 1.25625 -0.23375 0.6375 0 0 Z " fill="#4A5B7B" transform="translate(243,272)"/>
<path d="M0 0 C0.33 0 0.66 0 1 0 C1.66 1.98 2.32 3.96 3 6 C6.87797662 6.43386092 6.87797662 6.43386092 8.75 4.5 C9.1625 4.005 9.575 3.51 10 3 C10 6 10 6 8.8125 7.6875 C6.37975439 9.44914337 4.93752198 9.45192646 2 9 C-0.29013653 5.5647952 -0.17842973 4.014669 0 0 Z " fill="#4A5B7B" transform="translate(313,271)"/>
<path d="M0 0 C1.98 0 3.96 0 6 0 C6 1.32 6 2.64 6 4 C4.02 4.33 2.04 4.66 0 5 C0 3.35 0 1.7 0 0 Z " fill="#F1F2F5" transform="translate(212,266)"/>
<path d="M0 0 C1.65 0 3.3 0 5 0 C4.67 1.65 4.34 3.3 4 5 C2.35 5 0.7 5 -1 5 C-0.67 3.35 -0.34 1.7 0 0 Z " fill="#F4F5F7" transform="translate(201,266)"/>
<path d="M0 0 C0.78375 0.04125 1.5675 0.0825 2.375 0.125 C2.375 1.115 2.375 2.105 2.375 3.125 C0.725 3.455 -0.925 3.785 -2.625 4.125 C-1.635 4.785 -0.645 5.445 0.375 6.125 C-1.605 6.455 -3.585 6.785 -5.625 7.125 C-4.53409091 0.21590909 -4.53409091 0.21590909 0 0 Z " fill="#61708C" transform="translate(355.625,263.875)"/>
<path d="M0 0 C1.32 0 2.64 0 4 0 C3.67 1.65 3.34 3.3 3 5 C1.68 5.33 0.36 5.66 -1 6 C-0.67 4.02 -0.34 2.04 0 0 Z " fill="#FCFDFD" transform="translate(238,272)"/>
<path d="M0 0 C2.64 0.66 5.28 1.32 8 2 C8 2.66 8 3.32 8 4 C6.02 4 4.04 4 2 4 C1.34 2.68 0.68 1.36 0 0 Z " fill="#4A5B7B" transform="translate(284,276)"/>
<path d="M0 0 C0.66 0 1.32 0 2 0 C0.25 5.75 0.25 5.75 -2 8 C-3 5 -3 5 -1.6875 2.3125 C-1.130625 1.549375 -0.57375 0.78625 0 0 Z " fill="#5B6A88" transform="translate(347,264)"/>
<path d="M0 0 C2.475 0.495 2.475 0.495 5 1 C5.33 2.32 5.66 3.64 6 5 C5.34 5 4.68 5 4 5 C4 4.34 4 3.68 4 3 C2.68 2.67 1.36 2.34 0 2 C0 1.34 0 0.68 0 0 Z " fill="#79869E" transform="translate(306,263)"/>
</svg>
